<?xml version="1.0" encoding="utf-8"?>
<!-- Generator: Adobe Illustrator 25.2.0, SVG Export Plug-In . SVG Version: 6.00 Build 0)  -->
<svg version="1.1" id="Vrstva_1" xmlns="http://www.w3.org/2000/svg" xmlns:xlink="http://www.w3.org/1999/xlink" x="0px" y="0px"
	 viewBox="0 0 100 100" style="enable-background:new 0 0 100 100;" xml:space="preserve">
<style type="text/css">
	.st0{fill:#2692D1;}
</style>
<path id="check-color" class="st0" d="M94.6,20.1c-1.2-1.2-2.8-1.9-4.5-1.9s-3.3,0.7-4.5,1.9L38.3,67.5l-24-24
	c-1.2-1.2-2.8-1.9-4.5-1.9l0,0c-1.7,0-3.3,0.7-4.5,1.9S3.4,46.3,3.4,48s0.7,3.3,1.9,4.5L33.8,81c1.2,1.2,2.8,1.9,4.5,1.9
	s3.3-0.7,4.5-1.9l51.8-52c1.2-1.2,1.9-2.8,1.9-4.5C96.5,22.9,95.8,21.3,94.6,20.1z"/>
</svg>
