<?xml version="1.0" encoding="utf-8"?>
<!-- Generator: Adobe Illustrator 25.2.0, SVG Export Plug-In . SVG Version: 6.00 Build 0)  -->
<svg version="1.1" id="Vrstva_1" xmlns="http://www.w3.org/2000/svg" xmlns:xlink="http://www.w3.org/1999/xlink" x="0px" y="0px"
	 viewBox="0 0 100 100" style="enable-background:new 0 0 100 100;" xml:space="preserve">
<style type="text/css">
	.st0{clip-path:url(#SVGID_2_);fill:#039560;}
	.st1{clip-path:url(#SVGID_4_);fill:#F5E725;}
	.st2{clip-path:url(#SVGID_6_);fill:#FFFFFF;}
	.st3{clip-path:url(#SVGID_8_);fill:#DADADA;}
	.st4{clip-path:url(#SVGID_10_);fill:#2692D1;}
	.st5{fill:#FFFFFF;}
	.st6{fill:#E53835;}
	.st7{fill:#84152C;}
</style>
<g id="google-map-color">
	<g>
		<g>
			<defs>
				<polygon id="SVGID_1_" points="96.3,96.1 4.3,96.1 11.9,31.4 80.1,31 				"/>
			</defs>
			<clipPath id="SVGID_2_">
				<use xlink:href="#SVGID_1_"  style="overflow:visible;"/>
			</clipPath>
			<polygon class="st0" points="96.3,96.1 4.3,96.1 11.9,31.4 80.1,31 			"/>
		</g>
		<g>
			<defs>
				<polygon id="SVGID_3_" points="96.3,96.1 4.3,96.1 11.9,31.4 80.1,31 				"/>
			</defs>
			<clipPath id="SVGID_4_">
				<use xlink:href="#SVGID_3_"  style="overflow:visible;"/>
			</clipPath>
			<polygon class="st1" points="85.6,28.1 0.6,95.3 -6.4,86.5 78.6,19.2 			"/>
		</g>
		<g>
			<defs>
				<polygon id="SVGID_5_" points="96.3,96.1 4.3,96.1 11.9,31.4 80.1,31 				"/>
			</defs>
			<clipPath id="SVGID_6_">
				<use xlink:href="#SVGID_5_"  style="overflow:visible;"/>
			</clipPath>
			<polygon class="st2" points="90.1,110.9 43.7,61.2 52.6,54.2 98.4,103.3 			"/>
		</g>
		<g>
			<defs>
				<polygon id="SVGID_7_" points="96.3,96.1 4.3,96.1 11.9,31.4 80.1,31 				"/>
			</defs>
			<clipPath id="SVGID_8_">
				<use xlink:href="#SVGID_7_"  style="overflow:visible;"/>
			</clipPath>
			<polygon class="st3" points="80.4,32.2 52.6,54.2 91.7,96.1 96.3,96.1 			"/>
		</g>
		<g>
			<defs>
				<polygon id="SVGID_9_" points="96.3,96.1 4.3,96.1 11.9,31.4 80.1,31 				"/>
			</defs>
			<clipPath id="SVGID_10_">
				<use xlink:href="#SVGID_9_"  style="overflow:visible;"/>
			</clipPath>
			<polygon class="st4" points="4.3,96.1 4.3,92.4 43.7,61.2 76.2,96.1 			"/>
		</g>
	</g>
	<path class="st5" d="M33.4,44.6L33.4,44.6C33.4,44.6,33.4,44.6,33.4,44.6c-0.8,3.5-3.9,6.2-7.7,6.2c-4.3,0-7.8-3.5-7.8-7.8
		s3.5-7.8,7.8-7.8c1.1,0,2.1,0.2,3,0.6l-1.8,1.8c-0.4-0.1-0.8-0.1-1.2-0.1c-3,0-5.5,2.5-5.5,5.5s2.5,5.5,5.5,5.5
		c2.5,0,4.6-1.6,5.3-3.9h-6.3v-2.6h8.7h0.5C33.9,43,33.4,44.6,33.4,44.6z"/>
	<path class="st6" d="M92.1,27.2c0,6.6-2.8,12.5-7.2,16.7c0,0,0,0,0,0C84.5,44.3,72.1,56.8,69.5,67l0,0c-0.4,1.4-0.9,0.1-0.9,0l0,0
		c-2.6-10.3-15.2-22.9-15.4-23.1l0,0l0,0c-4.4-4.2-7.2-10.1-7.2-16.7C45.9,14.4,56.3,4.1,69,4.1C81.8,4.1,92.1,14.4,92.1,27.2z"/>
	<ellipse class="st7" cx="69" cy="24.5" rx="10.8" ry="10.8"/>
</g>
</svg>
