<?xml version="1.0" encoding="utf-8"?>
<!-- Generator: Adobe Illustrator 25.2.0, SVG Export Plug-In . SVG Version: 6.00 Build 0)  -->
<svg version="1.1" id="Vrstva_1" xmlns="http://www.w3.org/2000/svg" xmlns:xlink="http://www.w3.org/1999/xlink" x="0px" y="0px"
	 viewBox="0 0 100 100" style="enable-background:new 0 0 100 100;" xml:space="preserve">
<style type="text/css">
	.st0{fill:#FFFFFF;}
</style>
<g id="hand-money">
	<path id="Path_953" class="st0" d="M95.9,51.3c-1.3,2.9-3.7,5.1-5.7,7.5c-3.8,4.6-7.6,9.2-11.5,13.7c-2.5,2.9-5.9,4.7-9.7,5.1
		c-1.2,0.1-2.4,0.2-3.7,0.2c-7.3,0-14.6,0.1-21.9,0c-2.7,0-4.3,1.5-5.9,3.2c-0.1,0.1-0.1,0.4,0,0.6c0.4,1.9-0.2,4-1.7,5.3
		c-2.8,2.7-5.5,5.4-8.2,8.1c-0.3,0.3-0.6,0.5-1,0.8h-1.3L8.7,78.9c-1.2-1.2-2.5-2.5-3.7-3.7c-0.8-0.6-1-1.7-0.4-2.6
		c0.1-0.2,0.2-0.3,0.4-0.4c2.8-2.8,5.6-5.6,8.4-8.4c1.1-1.1,2.6-1.7,4.1-1.6c0.4,0.1,0.9-0.2,1.1-0.6C22,55.8,28,51.8,34.7,51
		c4.1-0.6,8.4-0.2,12.3,1.3c0.4,0.1,0.8,0.2,1.2,0.2c6.2,0,12.4,0,18.5,0c2.4-0.1,4.7,0.9,6.3,2.6c0.2-0.2,0.4-0.3,0.6-0.5
		c3.4-3.5,6.8-6.9,10.1-10.4c2.6-3,7.2-3.2,10.2-0.6c0.9,0.8,1.5,1.7,1.9,2.8c0.1,0.1,0.1,0.2,0.2,0.3L95.9,51.3L95.9,51.3z
		 M35.1,78.1c0.1,0,0.2-0.1,0.3-0.1c0.1-0.1,0.2-0.2,0.3-0.3c2.2-2.5,5.5-3.8,8.8-3.5c7.3,0.1,14.6,0,21.9,0c4,0.2,7.8-1.6,10.2-4.7
		c0.6-0.7,1.2-1.4,1.8-2.1c4.4-5.2,8.7-10.4,13.1-15.7c1.4-1.4,1.4-3.7,0-5.1c-1.4-1.4-3.7-1.4-5.1,0c-0.1,0.1-0.2,0.2-0.2,0.3
		c-3.7,3.8-7.4,7.6-11.1,11.4c-0.3,0.3-0.5,0.7-0.5,1.1c0.2,4-3,7.4-7,7.6c-0.2,0-0.4,0-0.5,0c-4.6,0-9.3,0-13.9,0
		c-0.4,0-0.7,0-1.1-0.2c-0.8-0.2-1.3-1-1.2-1.8c0-0.8,0.5-1.5,1.3-1.6c0.4-0.1,0.8-0.1,1.2-0.1c4.6,0,9.2,0,13.8,0
		c1.9,0.1,3.6-1.5,3.7-3.4s-1.5-3.6-3.4-3.7c-0.1,0-0.2,0-0.3,0c-6.5,0-13,0-19.5,0c-0.5,0-1.1-0.1-1.6-0.2
		c-3.5-1.5-7.4-1.9-11.1-1.3c-5.5,0.6-10.4,3.8-13.3,8.6c-0.4,0.4-0.3,1,0.1,1.4l0.1,0.1c3.9,3.9,7.8,7.7,11.7,11.7
		C34.1,77,34.6,77.6,35.1,78.1 M8.5,73.7l17.9,17.5c0,0,0.2-0.2,0.4-0.3c2.1-2.1,4.3-4.2,6.4-6.3c1.3-1.3,1.3-2.1,0-3.4
		C28.8,76.7,24.4,72.3,20,68c-0.5-0.5-1-1.1-1.6-1.6c-0.6-0.7-1.6-0.8-2.3-0.2c-0.1,0-0.1,0.1-0.1,0.1C13.5,68.7,11.1,71.2,8.5,73.7
		"/>
	<path id="Path_954" class="st0" d="M57.8,43.3C46.9,43.3,38,34.5,38,23.6S46.8,3.8,57.7,3.8s19.8,8.8,19.8,19.7l0,0
		C77.5,34.4,68.7,43.3,57.8,43.3 M57.7,39.7c8.9,0,16.1-7.2,16.2-16.1c0-8.9-7.2-16.1-16.1-16.2c-8.9,0-16.1,7.2-16.2,16.1
		S48.8,39.6,57.7,39.7L57.7,39.7"/>
	<path id="Path_955" class="st0" d="M45.2,63.1c0.9,0,1.8,0.7,1.8,1.6c0,0.1,0,0.1,0,0.2c0,1-0.7,1.8-1.7,1.8h-0.1
		c-1,0-1.7-0.8-1.8-1.8C43.4,63.9,44.2,63.1,45.2,63.1L45.2,63.1"/>
	<path id="Path_956" class="st0" d="M55.6,14.8c0-0.8,0-1.5,0-2.1c0-1,0.8-1.8,1.8-1.8s1.8,0.8,1.8,1.8l0,0c0,0.7,0,1.4,0,2
		c0.9,0.6,1.8,1.1,2.5,1.7c0.8,0.6,1,1.7,0.4,2.4c0,0.1-0.1,0.1-0.1,0.2c-0.7,0.7-1.8,0.8-2.6,0.2c-0.3-0.3-0.7-0.5-1-0.7
		c-0.7-0.4-1.5-0.3-2.1,0.2c-0.6,0.4-0.8,1.2-0.5,1.8c0.2,0.8,0.9,1.3,1.8,1.3c1.6,0,3.2,0.8,4.2,2.1c1.8,2.3,1.4,5.7-0.9,7.5
		c-0.3,0.2-0.6,0.4-0.9,0.6c-0.5,0.2-0.8,0.7-0.7,1.2c0,0.4,0,0.8,0,1.2c0,1-0.7,1.8-1.7,1.8h-0.1c-0.9,0-1.7-0.6-1.7-1.6
		c0-0.1,0-0.1,0-0.2c0.3-1.3-0.4-2.6-1.6-3c-0.6-0.3-1.2-0.8-1.6-1.4c-0.7-0.7-0.7-1.8-0.1-2.5c0.1-0.1,0.1-0.1,0.2-0.2
		c0.8-0.7,1.9-0.6,2.6,0.2c0.5,0.5,1,0.9,1.6,1.2c0.9,0.4,1.9,0.1,2.3-0.8c0.4-0.9,0.1-1.9-0.8-2.3c-0.2-0.1-0.3-0.1-0.5-0.2
		c-0.5-0.1-1-0.1-1.5-0.2c-2.9-0.7-4.7-3.6-4-6.5c0.4-1.6,1.4-2.9,2.9-3.6C55.1,15,55.3,14.9,55.6,14.8"/>
</g>
</svg>
