<?xml version="1.0" encoding="utf-8"?>
<!-- Generator: Adobe Illustrator 25.2.0, SVG Export Plug-In . SVG Version: 6.00 Build 0)  -->
<svg version="1.1" id="Vrstva_1" xmlns="http://www.w3.org/2000/svg" xmlns:xlink="http://www.w3.org/1999/xlink" x="0px" y="0px"
	 viewBox="0 0 100 100" style="enable-background:new 0 0 100 100;" xml:space="preserve">
<style type="text/css">
	.st0{fill:#20224A;}
</style>
<g id="key-color-black">
	<path class="st0" d="M22,95.7H6.9c-1.6,0-2.8-1.3-2.8-2.8V77.7c0-0.7,0.3-1.5,0.8-2l38.4-38.4c-2.5-9.3,0.1-19,7-25.8
		c5.1-5.1,11.8-7.9,19-7.9c7.2,0,13.9,2.8,19,7.9c5.1,5.1,7.9,11.8,7.9,19s-2.8,13.9-7.9,19c-6.8,6.8-16.6,9.4-25.8,7L58,60.8
		c-0.2,0.2-0.5,0.4-0.7,0.5l-6.7,3.4l-3.4,6.7c-0.4,0.8-1.1,1.3-2,1.5l-7.6,1.5l-1.5,7.6c-0.2,0.9-0.7,1.6-1.5,2l-6.7,3.4l-3.4,6.7
		C24.1,95.1,23.1,95.7,22,95.7z M9.7,90h10.6l3-6c0.3-0.5,0.7-1,1.3-1.3l6.3-3.2l1.6-8.1c0.2-1.1,1.1-2,2.2-2.2l8.1-1.6l3.2-6.3
		c0.3-0.5,0.7-1,1.3-1.3l7.1-3.6l5.2-5.2c0.8-0.8,1.9-1,2.9-0.7c7.7,2.6,16,0.6,21.8-5.1l0,0c4-4,6.2-9.3,6.2-15s-2.2-11-6.2-15
		c-4-4-9.3-6.2-15-6.2c-5.7,0-11,2.2-15,6.2c-5.7,5.7-7.7,14.1-5.1,21.8c0.3,1,0.1,2.1-0.7,2.9L9.7,78.9V90z"/>
	<path class="st0" d="M74.9,33c-2.1,0-4.2-0.8-5.8-2.4c-1.5-1.5-2.4-3.6-2.4-5.8c0-2.2,0.8-4.2,2.4-5.8c3.2-3.2,8.4-3.2,11.5,0
		c3.2,3.2,3.2,8.4,0,11.5C79.1,32.2,77,33,74.9,33z M74.9,22.3c-0.6,0-1.3,0.2-1.8,0.7c-0.5,0.5-0.7,1.1-0.7,1.8s0.3,1.3,0.7,1.8
		c1,1,2.6,1,3.6,0c1-1,1-2.6,0-3.6C76.2,22.6,75.6,22.3,74.9,22.3z"/>
</g>
</svg>
