<?xml version="1.0" encoding="utf-8"?>
<!-- Generator: Adobe Illustrator 25.2.0, SVG Export Plug-In . SVG Version: 6.00 Build 0)  -->
<svg version="1.1" id="Vrstva_1" xmlns="http://www.w3.org/2000/svg" xmlns:xlink="http://www.w3.org/1999/xlink" x="0px" y="0px"
	 viewBox="0 0 100 100" style="enable-background:new 0 0 100 100;" xml:space="preserve">
<style type="text/css">
	.st0{fill-rule:evenodd;clip-rule:evenodd;fill:#E53835;}
	.st1{fill-rule:evenodd;clip-rule:evenodd;fill:#2692D1;}
</style>
<g id="geovap-color" transform="matrix(4.16667,0,0,4.16667,0,0)">
	<g transform="matrix(1,0,0,1,23.4502,14.9733)">
		<path class="st0" d="M-11.2-13.4l2.2,1.8c0.4,0.3,0.3,0.5-0.4,0.5c-3.4-0.3-7.6,1.5-11.3,5c-0.3,0.3-0.4,0.2-0.2-0.1l5.4-6.7
			C-14.4-14.3-12.5-14.5-11.2-13.4"/>
	</g>
	<g transform="matrix(1,0,0,1,1.3833,37.6523)">
		<path class="st0" d="M0.2-26L2-28.2c0.3-0.4,0.5-0.3,0.5,0.4c-0.3,3.4,1.5,7.6,5,11.3c0.3,0.3,0.2,0.4-0.1,0.2l-6.7-5.4
			C-0.6-22.7-0.8-24.7,0.2-26"/>
	</g>
	<g transform="matrix(1,0,0,1,22.5088,30.9857)">
		<path class="st0" d="M-10.7-8.7l-2.2-1.8c-0.4-0.3-0.3-0.5,0.4-0.5c3.4,0.3,7.6-1.6,11.3-5c0.3-0.3,0.4-0.2,0.2,0.1l-5.4,6.7
			C-7.5-7.9-9.4-7.7-10.7-8.7"/>
	</g>
	<g transform="matrix(1,0,0,1,44.5762,8.3057)">
		<path class="st0" d="M-22.2,3.8L-24,6.1c-0.3,0.4-0.5,0.3-0.5-0.4c0.3-3.4-1.6-7.6-5-11.3c-0.3-0.3-0.2-0.4,0.1-0.2l6.7,5.4
			C-21.4,0.6-21.2,2.5-22.2,3.8"/>
	</g>
	<g transform="matrix(1,0,0,1,28.4609,25.1532)">
		<path class="st1" d="M-13.8-14.3l-1.8,0.6l0.3,0.9c-0.1,0.1-0.3,0.1-0.4,0.2c-0.8,0.3-1.3,0-1.4-0.5c-0.2-0.6,0.3-1.2,1.4-1.5
			c0.6-0.2,1.2-0.3,1.5-0.3l-0.3-0.9c-0.5,0.1-1,0.2-2,0.6c-1.7,0.6-3,1.7-2.6,2.8c0.4,1.2,2.1,1.3,3.8,0.7c0.8-0.3,1.5-0.6,2.1-0.9
			L-13.8-14.3z M-18-17.7c2.9-1.1,5.9,0.1,6.8,2.5s-0.8,5.3-3.7,6.4s-5.9-0.1-6.8-2.5C-22.5-13.8-20.9-16.6-18-17.7"/>
	</g>
</g>
</svg>
