<?xml version="1.0" encoding="utf-8"?>
<!-- Generator: Adobe Illustrator 25.2.0, SVG Export Plug-In . SVG Version: 6.00 Build 0)  -->
<svg version="1.1" id="Vrstva_1" xmlns="http://www.w3.org/2000/svg" xmlns:xlink="http://www.w3.org/1999/xlink" x="0px" y="0px"
	 viewBox="0 0 100 100" style="enable-background:new 0 0 100 100;" xml:space="preserve">
<style type="text/css">
	.st0{fill:#20224A;}
</style>
<g id="phone-color-dark">
	<g id="Group_1211_1_">
		<path id="Path_911_1_" class="st0" d="M24.1,4c2.8,0.7,5.2,2.3,7.1,4.5c3.6,3.7,7.2,7.2,10.7,10.9c3.2,3.3,3.2,8.5,0,11.8
			c-2.2,2.5-4.6,4.8-7,7.1c-0.5,0.3-0.6,1-0.3,1.4c2.5,4.8,5.7,9.3,9.5,13.1c3.7,4.1,8,7.7,12.6,10.7c1.3,0.8,2.7,1.5,4,2.3
			c0.3,0.2,0.8,0.2,1-0.1l0,0c2-2,3.9-4.1,6.1-6c1.1-1.1,2.4-2,3.8-2.7c3.3-1.5,7.1-0.7,9.6,2c3.9,3.8,7.8,7.8,11.7,11.6
			c3.8,3.2,4.4,8.9,1.2,12.8c-0.2,0.2-0.4,0.4-0.5,0.6c-2.8,3-5.6,6-8.7,8.7c-3.2,2.7-7.4,3.9-11.6,3.3c-6.6-0.7-13-2.7-18.8-5.9
			c-8.8-4.3-16.9-10-23.9-16.9c-10.7-10-19-22.5-24-36.3c-1.4-3.9-2.1-8-2.1-12.2c0-3.9,1.5-7.7,4.3-10.5c2.4-2.4,4.8-4.8,7.2-7.2
			c1.6-1.5,3.6-2.6,5.8-3.1L24.1,4L24.1,4z M74.8,91.4c2.7,0.2,5.4-0.7,7.4-2.6c2.7-2.6,5.3-5.3,7.8-8c1.7-1.5,1.9-4.2,0.3-5.9
			c-0.1-0.1-0.2-0.2-0.4-0.4c-4-4.2-8.2-8.3-12.3-12.3c-1.4-1.5-3.8-1.7-5.4-0.3c-0.5,0.4-0.9,0.7-1.3,1.2c-2.2,2.2-4.4,4.4-6.7,6.7
			c-1.2,1.4-3.3,1.8-4.9,0.8c-1.3-0.7-2.7-1.4-3.9-2.1C49.9,65,44.9,60.8,40.5,56c-4.3-4.4-7.9-9.4-10.6-15
			c-1.2-1.9-0.7-4.4,1.1-5.6c2.3-2.2,4.5-4.4,6.7-6.6c1.9-1.4,2.3-4.2,0.8-6.1c-0.2-0.3-0.5-0.6-0.8-0.8c-0.1-0.1-0.2-0.2-0.2-0.2
			c-3.7-3.7-7.4-7.5-11.2-11.2c-0.6-0.6-1.2-1.1-1.9-1.4c-1.9-0.8-4.1-0.2-5.3,1.4c-2.3,2.2-4.5,4.4-6.7,6.7
			c-1.1,1.1-1.9,2.4-2.5,3.8c-1,3-1.1,6.2-0.3,9.2C10.8,36,13,41.6,16,46.7C26,65,41.7,79.5,60.7,87.9
			C65.1,89.9,69.9,91.1,74.8,91.4"/>
	</g>
</g>
</svg>
