<?xml version="1.0" encoding="utf-8"?>
<!-- Generator: Adobe Illustrator 25.2.0, SVG Export Plug-In . SVG Version: 6.00 Build 0)  -->
<svg version="1.1" id="Vrstva_1" xmlns="http://www.w3.org/2000/svg" xmlns:xlink="http://www.w3.org/1999/xlink" x="0px" y="0px"
	 viewBox="0 0 100 100" style="enable-background:new 0 0 100 100;" xml:space="preserve">
<style type="text/css">
	.st0{fill:#4DAD33;}
</style>
<g id="content-color-green">
	<path class="st0" d="M76.1,96.3H7.4c-1.7,0-3-1.4-3-3V11.7c0-1.7,1.4-3,3-3h68.7c1.7,0,3,1.4,3,3v23.2c0,1.7-1.4,3-3,3
		c-1.7,0-3-1.4-3-3V14.7H10.4v75.5h62.6V70.1c0-1.7,1.4-3,3-3c1.7,0,3,1.4,3,3v23.1C79.1,94.9,77.8,96.3,76.1,96.3z"/>
	<path class="st0" d="M22.5,20.1c-1.1,0-2-0.9-2-2V5.3c0-1.1,0.9-2,2-2s2,0.9,2,2v12.9C24.5,19.2,23.6,20.1,22.5,20.1z"/>
	<path class="st0" d="M35.3,20.1c-1.1,0-2-0.9-2-2V5.3c0-1.1,0.9-2,2-2s2,0.9,2,2v12.9C37.3,19.2,36.4,20.1,35.3,20.1z"/>
	<path class="st0" d="M48.2,20.1c-1.1,0-2-0.9-2-2V5.3c0-1.1,0.9-2,2-2c1.1,0,2,0.9,2,2v12.9C50.2,19.2,49.3,20.1,48.2,20.1z"/>
	<path class="st0" d="M61.1,20.1c-1.1,0-2-0.9-2-2V5.3c0-1.1,0.9-2,2-2c1.1,0,2,0.9,2,2v12.9C63.1,19.2,62.2,20.1,61.1,20.1z"/>
	<path class="st0" d="M61.3,36.5H22.6c-1,0-1.8-0.9-1.8-2c0-1.1,0.8-2,1.8-2h38.6c1,0,1.8,0.9,1.8,2C63.1,35.6,62.3,36.5,61.3,36.5z
		"/>
	<path class="st0" d="M61.3,49.3H22.6c-1,0-1.8-0.9-1.8-2c0-1.1,0.8-2,1.8-2h38.6c1,0,1.8,0.9,1.8,2C63.1,48.4,62.3,49.3,61.3,49.3z
		"/>
	<path class="st0" d="M48.8,62.2H23c-1.2,0-2.2-0.9-2.2-2s1-2,2.2-2h25.8c1.2,0,2.2,0.9,2.2,2S50,62.2,48.8,62.2z"/>
	<g id="XMLID_10_">
		<path class="st0" d="M44.9,86c-0.7,0-1.3-0.3-1.8-0.7c-0.6-0.6-0.9-1.6-0.6-2.4l2.3-8.3c0.1-0.4,0.3-0.8,0.6-1.1l39.5-39.5
			c1.3-1.3,3-2,4.8-2c1.8,0,3.5,0.7,4.8,2c2.7,2.7,2.7,7,0,9.6L55,83c-0.3,0.3-0.7,0.5-1.1,0.6l-8.3,2.3C45.3,86,45.1,86,44.9,86z
			 M49.4,76.5l-0.9,3.5l3.5-0.9l39-39c0.7-0.7,0.7-1.8,0-2.5c-0.7-0.7-1.8-0.7-2.5,0c0,0,0,0,0,0L49.4,76.5z M86.6,35.7L86.6,35.7
			L86.6,35.7z"/>
		<path class="st0" d="M85.8,51.1c-0.6,0-1.3-0.2-1.8-0.7L78,44.3c-1-1-1-2.6,0-3.6c1-1,2.6-1,3.6,0l6.1,6.1c1,1,1,2.6,0,3.6
			C87.1,50.9,86.5,51.1,85.8,51.1z"/>
	</g>
</g>
</svg>
