<?xml version="1.0" encoding="utf-8"?>
<!-- Generator: Adobe Illustrator 25.2.0, SVG Export Plug-In . SVG Version: 6.00 Build 0)  -->
<svg version="1.1" id="Vrstva_1" xmlns="http://www.w3.org/2000/svg" xmlns:xlink="http://www.w3.org/1999/xlink" x="0px" y="0px"
	 viewBox="0 0 100 100" style="enable-background:new 0 0 100 100;" xml:space="preserve">
<style type="text/css">
	.st0{fill:#2692D1;}
</style>
<g id="view-color">
	<path id="Path_1181_1_" class="st0" d="M49.7,76.7c-11.4-0.1-22.4-4.2-31.1-11.6c-3.8-3.2-7.6-6.2-11.4-9.4c-3.2-2.3-4-6.7-1.8-10
		C5.9,45,6.5,44.4,7.1,44c5.1-4.1,10-8.5,15.4-12.3c9.7-7,21.7-10,33.5-8.3c9.4,1.1,18.3,5,25.5,11.1c3.8,3.2,7.7,6.3,11.5,9.4
		c3.3,2.3,4.1,6.8,1.8,10c-0.5,0.7-1.1,1.3-1.8,1.8c-4.9,4-9.6,8.1-14.6,11.8C70,73.7,60,76.9,49.7,76.7 M50.1,69.4
		c10.8,0,19.6-8.7,19.6-19.5S61,30.3,50.2,30.3c-10.7,0-19.4,8.6-19.6,19.3S39,69.2,49.8,69.4C49.9,69.4,50,69.4,50.1,69.4 M71.1,65
		c1.1-0.7,2.2-1.3,3.2-2.1c5-4,10.1-8.1,15.1-12.2c0.9-0.7,0.8-1.3-0.1-2c-3-2.5-6.1-5-9.1-7.4c-2.5-1.9-5-3.8-7.4-5.6
		c-0.5-0.3-1-0.6-1.5-0.9c3,4.5,4.6,9.8,4.6,15.2C75.8,55.4,74.1,60.6,71.1,65 M28.8,65.1l0.2-0.3c-6.3-9.1-6.2-21.1,0.2-30.2
		c-1.3,0.9-2.5,1.5-3.5,2.3c-5,4-9.9,8-14.8,12c-0.8,0.6-0.7,1.2,0.1,1.9c3.3,2.7,6.5,5.4,9.8,8.1C23.4,61,26.1,63,28.8,65.1"/>
	<path id="Path_1182_1_" class="st0" d="M53.2,38c-1.6,3.6-1.3,6,0.8,8c2.1,2.1,5.4,2.3,7.9,0.7c1.4,5.1-0.6,10.5-5,13.4
		c-5.7,3.8-13.3,2.2-17.1-3.5c-2.7-4-2.8-9.2-0.2-13.3C42.4,38.7,48,36.5,53.2,38"/>
</g>
</svg>
