<?xml version="1.0" encoding="utf-8"?>
<!-- Generator: Adobe Illustrator 25.2.0, SVG Export Plug-In . SVG Version: 6.00 Build 0)  -->
<svg version="1.1" id="Vrstva_1" xmlns="http://www.w3.org/2000/svg" xmlns:xlink="http://www.w3.org/1999/xlink" x="0px" y="0px"
	 viewBox="0 0 100 100" style="enable-background:new 0 0 100 100;" xml:space="preserve">
<style type="text/css">
	.st0{fill:#20224A;}
</style>
<g id="print-color-dark">
	<g id="Group_1202_1_">
		<path id="Path_900_1_" class="st0" d="M31.9,3.7h36.3c0,0,0.2,0.1,0.3,0.1c6.8,1,11.8,6.9,11.6,13.7v9.3h2.7
			c6,0.1,11.2,4,12.8,9.8c0.2,0.7,0.3,1.4,0.5,2.1v24.8C96,63.7,96,63.8,95.9,64c-0.9,5.9-5.6,10.4-11.5,11.2
			c-1.4,0.2-2.8,0.2-4.3,0.2v11.8c0.2,4.5-3.3,8.2-7.7,8.4c-0.2,0-0.5,0-0.7,0c-14.4,0-28.8,0-43.2,0c-4.5,0.2-8.2-3.3-8.4-7.8
			c0-0.2,0-0.4,0-0.6V75.4H18c-7.4,0.2-13.7-5.6-13.9-13c0-0.3,0-0.6,0-0.9V40.9c-0.3-7.4,5.5-13.7,13-13.9c0.3,0,0.6,0,0.9,0h2.1
			c0-3.4,0-6.6,0-9.8c0-6.1,4.2-11.4,10.1-13C30.8,4,31.3,3.8,31.9,3.7 M80.1,70h2.2c4.5,0.1,8.2-3.4,8.3-7.8c0-0.2,0-0.3,0-0.5
			c0-7,0-14.1,0-21.1c0.1-4.4-3.4-8.2-7.8-8.3c-0.2,0-0.3,0-0.5,0c-21.6,0-43.1,0-64.7,0c-4.4-0.1-8.1,3.4-8.3,7.8
			c0,0.1,0,0.3,0,0.4c0,7.1,0,14.2,0,21.3c0,4.9,4,9.2,10.6,8.1V61c-0.6,0-1.2,0-1.7,0c-1.2,0-2.2-1-2.4-2.4
			c-0.1-1.3,0.7-2.5,1.9-2.9c0.4-0.1,0.9-0.1,1.3-0.1c20.7,0,41.4,0,62.1,0h0.6c1.5,0,2.7,1.3,2.6,2.8c0,1.4-1.2,2.6-2.6,2.6
			c-0.5,0-1.1,0-1.6,0V70L80.1,70z M25.5,61.1c0,0.2,0,0.3,0,0.4v25.9c-0.1,1.5,1.1,2.8,2.6,2.9c0.2,0,0.3,0,0.5,0h43
			c1.5,0.2,2.9-0.8,3.1-2.4c0-0.3,0-0.5,0-0.8V62c0-0.3,0-0.6,0-0.9H25.5L25.5,61.1z M25.6,26.8h49.1c0-3.5,0.1-6.9,0-10.4
			c-0.3-4.1-3.7-7.3-7.8-7.3c-11.2,0-22.3,0-33.5,0c-3.9,0-7.2,2.8-7.6,6.6C25.3,19.4,25.6,23.1,25.6,26.8"/>
		<path id="Path_901_1_" class="st0" d="M22.8,43.8c-1.4,0-2.7,0-4.1,0c-1.5,0.1-2.8-1-2.9-2.5c-0.1-1.5,1-2.8,2.5-2.9
			c0.1,0,0.2,0,0.4,0c2.8,0,5.6,0,8.3,0c1.5-0.1,2.8,1.1,2.8,2.5c0.1,1.5-1.1,2.8-2.5,2.8c-0.1,0-0.2,0-0.2,0
			C25.6,43.8,24.2,43.8,22.8,43.8"/>
		<path id="Path_902_1_" class="st0" d="M50.1,72.5h-6.9c-1.5,0.1-2.8-0.9-3-2.4c-0.1-1.5,0.9-2.8,2.4-3c0.2,0,0.4,0,0.6,0h13.7
			c1.5-0.2,2.8,0.9,3,2.4s-0.9,2.8-2.4,3c-0.2,0-0.4,0-0.7,0H50.1"/>
		<path id="Path_903_1_" class="st0" d="M50.2,78.6H57c1.5-0.1,2.8,0.9,2.9,2.4c0.1,1.5-0.9,2.8-2.4,2.9c-0.2,0-0.3,0-0.5,0
			c-4.6,0-9.3,0-13.9,0c-1.5,0.1-2.8-1-2.9-2.5c-0.1-1.5,1-2.8,2.5-2.9c0.2,0,0.3,0,0.5,0L50.2,78.6"/>
	</g>
</g>
</svg>
