<?xml version="1.0" encoding="utf-8"?>
<!-- Generator: Adobe Illustrator 25.2.0, SVG Export Plug-In . SVG Version: 6.00 Build 0)  -->
<svg version="1.1" id="Vrstva_1" xmlns="http://www.w3.org/2000/svg" xmlns:xlink="http://www.w3.org/1999/xlink" x="0px" y="0px"
	 viewBox="0 0 100 100" style="enable-background:new 0 0 100 100;" xml:space="preserve">
<style type="text/css">
	.st0{fill:none;}
	.st1{fill:#254874;}
</style>
<g id="cuzk-color">
	<path class="st0" d="M10.5,60.8c2.4,7.1,7.3,13.3,13.8,17.9c-1.5-3.6-2.5-7.3-3.1-11.1C16.9,65.8,13.2,63.5,10.5,60.8z"/>
	<path class="st0" d="M24.7,68.8c0.8,4.7,2.4,9.1,4.8,13c1.2,0.6,2.4,1.1,3.6,1.6l4.6-12.1c0,0,0,0,0,0
		C33.1,70.9,28.7,70.1,24.7,68.8z"/>
	<path class="st0" d="M24.4,66.3c4,1.5,8.6,2.5,13.5,2.8c0.2,0,0.5,0,0.7,0l5-13c-6.8-0.7-13-2.4-18.2-4.9
		C24.1,56.4,23.8,61.5,24.4,66.3z"/>
	<path class="st0" d="M29.4,40c-1.4,2.7-2.5,5.5-3.3,8.3c5.1,2.7,11.5,4.5,18.4,5.2l6.7-17.5c-6.5,0-12.5-1.2-17.4-3.3
		C32.2,35,30.7,37.5,29.4,40z"/>
	<path class="st0" d="M20.9,64.9c-0.4-4.9,0-10,1.5-15.2c-5.2-3-9-6.8-11-11.1C10,41.9,9.1,45.4,8.9,49l0.2,0c0,0.1,0,0.3,0,0.4
		C8.5,55.5,13.2,61.1,20.9,64.9z"/>
	<path class="st0" d="M32.8,29.3c4.5-5.9,9.9-10.6,16.1-14.1c-8.5,0.2-16.3,2.6-22.8,6.6C27.3,24.7,29.6,27.3,32.8,29.3z"/>
	<path class="st0" d="M23.3,46.7c0.8-2.2,1.7-4.5,2.9-6.8c1.5-3,3.2-5.8,5-8.4c-3.6-2-6.4-4.7-7.9-7.8c-3.9,2.9-7.1,6.3-9.5,10.2
		C14.5,38.8,18,43.2,23.3,46.7z"/>
	<path class="st0" d="M54.9,15.4c-7.4,3.4-14.1,8.6-19.5,15.3c4.6,2.1,10.3,3.3,16.6,3.2L58.9,16C57.6,15.7,56.3,15.5,54.9,15.4z"/>
	<g>
		<path class="st1" d="M25.3,64.2c0.3,0.1,0.6,0.2,1,0.3c-0.4-3.6-0.1-7.4,0.8-11.2c3.7,1.7,8,3,12.8,3.6l0.2-0.6
			c-5.2-0.6-10-1.9-14-3.8C25.1,56.6,24.9,60.5,25.3,64.2z"/>
		<path class="st1" d="M16.2,60.4c-3.4-2.7-5.4-6-5.1-9.4c0-0.1,0-0.2,0-0.3l-0.1,0c0.1-2.6,0.7-5,1.6-7.3c-0.3-0.5-0.5-0.9-0.7-1.4
			c-1.1,2.5-1.7,5.2-1.9,8l0.1,0c0,0.1,0,0.2,0,0.3C9.8,54,12.1,57.6,16.2,60.4z"/>
		<path class="st1" d="M54.6,16.6c-5.7,2.6-10.9,6.6-15,11.8c0.4,0.2,0.8,0.3,1.2,0.5c4.1-5.1,9.2-9,14.8-11.6
			c0.6,0.1,1.3,0.2,1.9,0.3l0.2-0.5C56.6,16.9,55.6,16.7,54.6,16.6z"/>
		<path class="st1" d="M13.7,64.3c-0.4-0.3-0.8-0.7-1.1-1c1.8,5.5,5.6,10.3,10.6,13.8c0,0,0,0,0,0C18.8,73.7,15.4,69.3,13.7,64.3z"
			/>
		<path class="st1" d="M30.9,39.5c-1.1,2.1-1.9,4.2-2.6,6.4c0.3,0.2,0.7,0.4,1.1,0.5c0.6-2.1,1.5-4.1,2.5-6.2c1-2,2.1-3.8,3.4-5.6
			c3.4,1.5,7.6,2.4,12.1,2.5l0.3-0.7c-5,0-9.7-0.9-13.4-2.5C33.1,35.6,31.9,37.5,30.9,39.5z"/>
		<path class="st1" d="M30.3,80.2c-1.7-2.9-2.9-6.2-3.5-9.6c2.7,0.9,5.7,1.5,8.8,1.8l0.2-0.6c0,0,0,0,0,0c-3.6-0.2-7-0.9-10-1.9
			c0.6,3.6,1.9,7,3.7,10C29.8,80,30,80.1,30.3,80.2z"/>
		<path class="st1" d="M14.8,34c0.5,3.6,3,6.9,6.8,9.5c-3.2-2.5-5.3-5.5-5.8-8.8c1.8-2.9,4.1-5.4,6.9-7.5c-0.2-0.3-0.4-0.7-0.6-1.1
			C19.2,28.4,16.7,31,14.8,34z"/>
		<path class="st1" d="M32.5,27.2c-1.8-1.3-3.1-2.9-3.9-4.7c4.2-2.8,9.3-4.8,14.8-5.5c0.5-0.3,0.9-0.6,1.4-0.9
			c-6.5,0.4-12.5,2.4-17.3,5.7C28.5,24,30.2,25.8,32.5,27.2z"/>
	</g>
	<g>
		<path class="st1" d="M95.4,44.3v1.3c-0.2-1.3-0.5-2.6-0.8-3.7l-9.3-0.1h-7.4L75,41.9l-2.3,0.6l-2.4,1.6l-1.9,2.4l-1.3,3.3
			l-0.6,4.8l0.1,4.8l0.8,4.8l1.5,2.8l2,2l2.3,1.3l2.5,0.6l13.8,0.3c0.6-1,1.2-1.9,1.7-2.9C94.3,63,96,57,96,50.7
			C96,48.6,95.8,46.4,95.4,44.3z"/>
		<path class="st1" d="M78,81.8l-3.9,0.1l-4.8-0.4l-3.1-0.8l-3.4-1.4L60,77.3l-1.8-2.1L56.1,72l-2-4.9l-1-5.8l-0.3-5.6l0.4-4.5
			l0.9-5.5l1.3-3.3l2.3-3.9l2.5-2.8l2.9-2l3.3-1.5l4.3-0.9l3.9-0.2l15.3,0.1l-2.6-3.9l-9.4,1.9L60,25.6l2.3-6.7l15.4,3.4l3.8-0.8
			C73.2,14.9,62.2,10.7,50,10.7c-25.4,0-46,17.9-46,40c0,22.1,20.6,40,46,40c11,0,21.1-3.4,29-9L78,81.8z M48.9,15.1
			c-6.2,3.5-11.6,8.2-16.1,14.1c-3.2-2-5.5-4.6-6.6-7.6C32.6,17.7,40.5,15.3,48.9,15.1z M23.3,23.6c1.5,3.1,4.2,5.8,7.9,7.8
			c-1.8,2.6-3.5,5.4-5,8.4c-1.1,2.3-2.1,4.5-2.9,6.8c-5.3-3.4-8.8-7.9-9.5-12.8C16.2,30,19.5,26.5,23.3,23.6z M8.9,49
			c0.2-3.6,1-7.1,2.4-10.4c2,4.3,5.9,8.1,11,11.1C21,54.9,20.5,60,20.9,64.9C13.2,61.1,8.5,55.5,9,49.4c0-0.1,0-0.3,0-0.4L8.9,49z
			 M10.5,60.8c2.7,2.6,6.4,4.9,10.7,6.7c0.5,3.8,1.6,7.6,3.1,11.1C17.8,74.2,12.9,68,10.5,60.8z M33.1,83.4c-1.2-0.5-2.4-1-3.6-1.6
			c-2.4-3.9-4-8.3-4.8-13c4,1.3,8.3,2.1,13,2.4c0,0,0,0,0,0L33.1,83.4z M38.6,69.2c-0.2,0-0.5,0-0.7,0c-4.9-0.3-9.5-1.3-13.5-2.8
			c-0.5-4.8-0.3-9.9,1-15.1c5.2,2.5,11.4,4.2,18.2,4.9L38.6,69.2z M44.5,53.5c-7-0.7-13.3-2.6-18.4-5.2c0.8-2.8,1.9-5.5,3.3-8.3
			c1.3-2.6,2.8-5,4.4-7.3c4.9,2.1,10.9,3.3,17.4,3.3L44.5,53.5z M35.4,30.7c5.4-6.7,12.1-11.9,19.5-15.3c1.4,0.1,2.7,0.3,4,0.6
			l-6.9,17.9C45.8,34,40,32.8,35.4,30.7z"/>
	</g>
</g>
</svg>
