<?xml version="1.0" encoding="utf-8"?>
<!-- Generator: Adobe Illustrator 25.2.0, SVG Export Plug-In . SVG Version: 6.00 Build 0)  -->
<svg version="1.1" id="Vrstva_1" xmlns="http://www.w3.org/2000/svg" xmlns:xlink="http://www.w3.org/1999/xlink" x="0px" y="0px"
	 viewBox="0 0 100 100" style="enable-background:new 0 0 100 100;" xml:space="preserve">
<style type="text/css">
	.st0{fill:#FFFFFF;}
</style>
<g id="comparator-color_1_">
	<path id="Path_912_1_" class="st0" d="M83.4,64.8c-3.3-7.4-6.6-14.6-10-22.1c-3.4,7.5-6.7,14.7-10.1,22.1
		C63.4,64.8,83.4,64.8,83.4,64.8z M26.3,25.5c-3.4,7.5-6.7,14.8-10.1,22.1h20C32.9,40.3,29.7,33,26.3,25.5 M10.6,54.2
		c1.6,7.9,8.8,13.3,16.8,12.8c7.1-0.5,14.4-7,14.4-12.8L10.6,54.2z M57.8,71.3c1.6,8.1,9.1,13.6,17.3,12.7
		c6.7-0.6,14.3-7.5,13.8-12.7L57.8,71.3L57.8,71.3z M69.7,35.3c-12.8-4.8-25.5-9.6-38.4-14.4c0.2,0.5,0.3,0.8,0.4,1
		c3.7,8.3,7.5,16.6,11.2,24.9c0.3,0.7,0.7,1.1,1.5,1c0.3,0,0.7,0,1,0c1.8-0.1,3.3,1.3,3.4,3.1c0,0.1,0,0.3,0,0.4
		c-0.2,10.3-7.3,19.2-17.3,21.6C19.4,75.7,7.3,68.2,4.4,56.2c-0.2-0.9-0.4-1.9-0.5-2.8c-0.1-0.8-0.1-1.6-0.1-2.4
		c-0.1-1.6,1.2-3,2.9-3.1c0.1,0,0.2,0,0.2,0c1.8,0.2,2.5-0.6,3.2-2.1c4-9,8.1-18,12.2-27c0.1-0.3,0.2-0.6,0.4-1
		c-2.1-0.8-4.1-1.5-6.1-2.3c-1.6-0.6-2.5-2.4-1.9-4v-0.1c0.6-1.7,2.5-2.5,4.1-1.9c0.1,0,0.2,0.1,0.2,0.1c5.2,1.9,10.3,3.9,15.5,5.8
		c5,1.9,10.1,3.8,15.1,5.7c0.4,0.1,0.7,0.2,1.2,0.4c0-2.3,0-4.5,0-6.6c-0.1-1.7,1.1-3.1,2.8-3.3c1.7-0.3,3.3,0.9,3.6,2.6
		c0,0.2,0,0.4,0,0.5c0,2.7,0.1,5.3,0,8c-0.1,0.8,0.4,1.6,1.2,1.7c9.5,3.5,19,7.1,28.4,10.6c1.7,0.4,2.8,2.1,2.5,3.9
		c-0.2,0.7-0.5,1.3-1.1,1.8c-0.9,0.8-2.2,1-3.3,0.5c-1.8-0.7-3.6-1.4-5.5-2c-0.2-0.1-0.4-0.2-0.8-0.3c0.2,0.5,0.3,0.8,0.4,1
		C82.7,47.8,86.4,55.9,90,64c0.3,0.7,0.7,1,1.4,0.9c0.3,0,0.7,0,1,0c1.8-0.1,3.3,1.2,3.4,2.9c0,0.2,0,0.4,0,0.5
		c0.1,7.4-3.7,14.4-9.9,18.4c-10.3,6.9-24.3,4.2-31.2-6.1c-1.9-2.9-3.2-6.2-3.6-9.6c-0.1-0.9-0.2-1.7-0.2-2.6
		c-0.2-1.7,1-3.2,2.7-3.4c0.2,0,0.4,0,0.6,0c1.7,0.1,2.3-0.6,2.9-2c4-8.9,8-17.7,12-26.5C69.3,36.1,69.4,35.8,69.7,35.3"/>
</g>
</svg>
