<?xml version="1.0" encoding="utf-8"?>
<!-- Generator: Adobe Illustrator 25.2.0, SVG Export Plug-In . SVG Version: 6.00 Build 0)  -->
<svg version="1.1" id="Vrstva_1" xmlns="http://www.w3.org/2000/svg" xmlns:xlink="http://www.w3.org/1999/xlink" x="0px" y="0px"
	 viewBox="0 0 100 100" style="enable-background:new 0 0 100 100;" xml:space="preserve">
<style type="text/css">
	.st0{fill:#20224A;}
</style>
<g id="doc-plan-color-dark_2_">
	<g id="XMLID_6_">
		<path class="st0" d="M89,93H37c-3.9,0-7-3.1-7-7V76h6v10c0,0.6,0.4,1,1,1h52c0.6,0,1-0.4,1-1V29.2L73.8,13H37c-0.6,0-1,0.4-1,1v10
			h-6V14c0-3.9,3.1-7,7-7h39.2L96,26.8V86C96,89.9,92.9,93,89,93z"/>
		<path class="st0" d="M93,31H79c-3.9,0-7-3.1-7-7V10c0-1.2,0.7-2.3,1.9-2.8C75,6.8,76.3,7,77.1,7.9l18,18c0.9,0.9,1.1,2.1,0.7,3.3
			S94.2,31,93,31z M78,17.2V24c0,0.6,0.4,1,1,1h6.8L78,17.2z"/>
	</g>
	<path class="st0" d="M57,73H9c-2.8,0-5-2.2-5-5V32c0-2.8,2.2-5,5-5h48c2.8,0,5,2.2,5,5v36C62,70.8,59.8,73,57,73z M10,67h46V33H10
		V67z"/>
	<polygon class="st0" points="9.2,58.8 6.2,55.8 19.3,42.6 30.9,55.9 27.6,58.7 19.1,48.9 	"/>
	<polygon class="st0" points="43.5,58.8 32.1,47.4 26.5,53.1 23.4,50 32.1,41.3 46.5,55.8 	"/>
	<polygon class="st0" points="58.2,61.4 46.8,50 41.1,55.6 38.1,52.6 46.8,43.9 61.2,58.3 	"/>
</g>
</svg>
