<?xml version="1.0" encoding="utf-8"?>
<!-- Generator: Adobe Illustrator 25.2.0, SVG Export Plug-In . SVG Version: 6.00 Build 0)  -->
<svg version="1.1" id="Vrstva_1" xmlns="http://www.w3.org/2000/svg" xmlns:xlink="http://www.w3.org/1999/xlink" x="0px" y="0px"
	 viewBox="0 0 100 100" style="enable-background:new 0 0 100 100;" xml:space="preserve">
<style type="text/css">
	.st0{fill:#FFFFFF;}
</style>
<g id="logout">
	<path id="Path_1217" class="st0" d="M33.6,95.7L9.9,87.8c-3.6-0.9-6-4.3-5.7-7.9c0-22.7,0-45.3,0-68C3.9,7.6,7.1,4,11.4,3.7
		c0.3,0,0.6,0,1,0c14.2,0,28.3,0,42.5,0c5.2-0.1,9.7,3.6,10.5,8.7c0.1,0.5,0.1,1,0.1,1.5c0,5.8,0,11.6,0,17.4c0.1,1.6-1.1,2.9-2.7,3
		c-0.3,0-0.7,0-1-0.1c-1.3-0.4-2.1-1.7-2-3.1c0-4.5,0-9,0-13.5c0-1.2,0-2.5,0-3.7c-0.1-2.5-2.1-4.5-4.6-4.5c-8.1,0-16.2,0-24.3,0.1
		c0.5,0.2,1.1,0.4,1.6,0.6c1.5,0.5,3,1,4.5,1.5c3.4,1,5.6,4.1,5.5,7.7c0,7.8,0,15.5,0,23.3v35.8c0.3,0,0.6,0.1,0.9,0.1
		c3.7,0,7.5,0,11.2,0c2.6,0.2,4.9-1.8,5.1-4.4c0-0.2,0-0.5,0-0.7c0-5.5,0-11.1,0-16.6c-0.2-1.6,1-3,2.6-3.2c0.3,0,0.7,0,1,0.1
		c1.2,0.3,2,1.3,2.1,2.5c0,0.2,0,0.5,0,0.7c0,5.5,0,11,0,16.5C65.6,79.2,61,84,55.2,84.2c-0.2,0-0.4,0-0.7,0c-3.7,0-7.4,0-11,0h-1.1
		c0,1.1,0,2.1,0,3.1c0.4,4-2.4,7.6-6.4,8.3c-0.1,0-0.1,0.1-0.1,0.1H33.6z M9.9,45.9c0,11.3,0,22.6,0,33.9c-0.2,1.2,0.6,2.3,1.7,2.5
		l0,0c7.4,2.5,14.7,4.9,22.1,7.4c1.9,0.6,3-0.2,3-2.2c0-2.5,0-5,0-7.5c0-20.1,0-40.3,0-60.4c0-1.6-0.4-2.1-1.8-2.6L13,9.7
		C11,9,9.9,9.8,9.9,12C9.9,23.3,9.9,34.6,9.9,45.9"/>
	<path id="Path_1218" class="st0" d="M96.2,44.8c-0.6,0.7-1.1,1.4-1.8,2.1c-4.4,4.4-8.8,8.9-13.3,13.3c-1,1.2-2.8,1.4-4,0.3
		c-0.5-0.4-0.8-0.9-0.9-1.5c-0.3-1.1,0.1-2.2,0.9-2.9c2.8-2.8,5.7-5.7,8.5-8.5c0.2-0.2,0.4-0.4,0.7-0.8h-1.1c-9.3,0-18.7,0-28,0
		c-1.6,0.1-3-1-3.1-2.6c0-0.3,0-0.7,0.1-1c0.3-1.2,1.3-2,2.5-2.1c0.3,0,0.7,0,1,0h28.7c-0.3-0.3-0.5-0.6-0.7-0.8
		c-2.9-2.9-5.8-5.8-8.6-8.6c-0.9-0.8-1.2-2.2-0.6-3.3c0.5-1.1,1.6-1.8,2.8-1.6c0.7,0.1,1.3,0.4,1.8,0.9c4.8,4.7,9.6,9.5,14.4,14.3
		c0.3,0.4,0.6,0.7,0.8,1.1L96.2,44.8z"/>
</g>
</svg>
