<?xml version="1.0" encoding="utf-8"?>
<!-- Generator: Adobe Illustrator 25.2.0, SVG Export Plug-In . SVG Version: 6.00 Build 0)  -->
<svg version="1.1" id="Vrstva_1" xmlns="http://www.w3.org/2000/svg" xmlns:xlink="http://www.w3.org/1999/xlink" x="0px" y="0px"
	 viewBox="0 0 100 100" style="enable-background:new 0 0 100 100;" xml:space="preserve">
<style type="text/css">
	.st0{fill:#20224A;}
</style>
<g id="edit-color-dark">
	<path id="Path_1185_2_" class="st0" d="M76.3,3.7c3.3,0,6.4,1.3,8.8,3.6c2.3,2.2,4.5,4.5,6.7,6.7c5.1,4.8,5.3,12.8,0.5,17.8
		c-0.2,0.2-0.3,0.3-0.5,0.5C80.2,44,68.6,55.6,56.9,67.3c-5.6,5.6-11.1,11.1-16.7,16.6c-0.6,0.6-1.2,1-2,1.2
		c-10,3.5-20.1,6.8-30.2,10.2c-0.6,0.2-1.2,0.4-1.8,0.4c-1.4,0-2.5-1.2-2.4-2.6c0-0.3,0.1-0.7,0.2-1c2.1-6.4,4.3-12.9,6.4-19.3
		c1.3-3.9,2.6-7.9,3.9-11.8c0.2-0.6,0.6-1.2,1-1.7C32.6,42.1,49.9,24.8,67.1,7.6C69.5,5.1,72.9,3.7,76.3,3.7 M64.6,17.4L20.7,61.3
		l17.4,17.4L82,34.8L64.6,17.4 M85.9,31.1c0.9-0.9,1.9-1.7,2.7-2.7c2.8-2.9,2.9-7.4,0.1-10.3c-2.4-2.6-4.9-5-7.4-7.4
		c-1.7-1.6-4-2.2-6.2-1.8c-3.1,0.4-4.8,2.8-6.8,4.7L85.9,31.1 M10.3,89.1l22.9-7.6L17.9,66.3L10.3,89.1"/>
</g>
</svg>
