<?xml version="1.0" encoding="utf-8"?>
<!-- Generator: Adobe Illustrator 25.2.0, SVG Export Plug-In . SVG Version: 6.00 Build 0)  -->
<svg version="1.1" id="Vrstva_1" xmlns="http://www.w3.org/2000/svg" xmlns:xlink="http://www.w3.org/1999/xlink" x="0px" y="0px"
	 viewBox="0 0 100 100" style="enable-background:new 0 0 100 100;" xml:space="preserve">
<style type="text/css">
	.st0{fill:#FFFFFF;}
</style>
<path id="check" class="st0" d="M94.6,20.1c-1.2-1.2-2.8-1.9-4.5-1.9s-3.3,0.7-4.5,1.9L38.3,67.5l-24-24c-1.2-1.2-2.8-1.9-4.5-1.9
	c0,0,0,0,0,0c-1.7,0-3.3,0.7-4.5,1.9c-1.2,1.2-1.9,2.8-1.9,4.5s0.7,3.3,1.9,4.5l28.5,28.5c1.2,1.2,2.8,1.9,4.5,1.9
	c1.7,0,3.3-0.7,4.5-1.9L94.6,29c1.2-1.2,1.9-2.8,1.9-4.5C96.5,22.9,95.8,21.3,94.6,20.1z"/>
</svg>
