<?xml version="1.0" encoding="utf-8"?>
<!-- Generator: Adobe Illustrator 25.2.0, SVG Export Plug-In . SVG Version: 6.00 Build 0)  -->
<svg version="1.1" id="Vrstva_1" xmlns="http://www.w3.org/2000/svg" xmlns:xlink="http://www.w3.org/1999/xlink" x="0px" y="0px"
	 viewBox="0 0 100 100" style="enable-background:new 0 0 100 100;" xml:space="preserve">
<style type="text/css">
	.st0{fill:#20234A;}
</style>
<g id="cart-color-dark_2_">
	<g>
		<path class="st0" d="M95.8,26.7c-0.4-0.7-0.9-1.5-1.5-2.1c-0.8-0.6-1.8-0.8-2.8-0.7H25.1c-0.1-0.4-0.2-0.7-0.3-0.9
			c-0.9-4-1.8-7.8-2.8-11.7c-0.2-1.9-1.9-3.2-3.8-3H7.7c-0.4,0-0.9,0-1.3,0.1c-1.6,0.5-2.7,2.1-2.5,3.7c0.2,1.7,1.6,3,3.3,3
			c2.5,0,5,0,7.5,0c0.9,0,1.4,0.4,1.6,1.3c3.6,15,7.2,30,10.7,44.9c0,0.1,0,0.2,0,0.3c0.3,1.9,2.1,3.2,4,2.9h52.4c0,0,0.1,0,0.2,0
			c2,0.2,3.7-1.2,3.9-3.2c2.2-8.8,4.3-17.6,6.5-26.4c0.6-2.3,1.2-4.6,1.8-6.9V26.7L95.8,26.7z M86.1,38.3C84.6,44.5,83,50.7,81.5,57
			c-0.1,0.6-0.4,0.7-0.9,0.7H33.8c-0.2,0-0.3,0-0.6,0c-2.1-8.9-4.3-17.8-6.4-26.9H88C87.3,33.4,86.7,35.8,86.1,38.3L86.1,38.3z"/>
		<path class="st0" d="M46.5,80.9c0-6.3-5.2-11.4-11.5-11.4h-0.1c-6.3,0.1-11.4,5.2-11.3,11.5v0.1c0.1,6.3,5.2,11.4,11.5,11.3
			C41.5,92.4,46.5,87.3,46.5,80.9L46.5,80.9L46.5,80.9z M35,85.6c-2.5,0-4.6-2.1-4.6-4.6l0,0c0-2.5,2.1-4.6,4.6-4.5
			c2.5,0,4.5,2.1,4.5,4.6C39.6,83.5,37.5,85.6,35,85.6z"/>
		<path class="st0" d="M76.7,69.5L76.7,69.5c-6.4,0-11.5,5.2-11.4,11.5l0,0v0.1c0,6.3,5.2,11.4,11.5,11.3l0,0
			c6.3,0,11.4-5.2,11.4-11.5C88.1,74.6,83,69.5,76.7,69.5z M76.6,85.6c-2.5,0-4.5-2.1-4.5-4.6l0,0c0-2.5,2.1-4.5,4.6-4.5
			s4.6,2.1,4.6,4.6C81.2,83.5,79.1,85.6,76.6,85.6z"/>
	</g>
</g>
</svg>
