<?xml version="1.0" encoding="utf-8"?>
<!-- Generator: Adobe Illustrator 25.2.0, SVG Export Plug-In . SVG Version: 6.00 Build 0)  -->
<svg version="1.1" id="Vrstva_1" xmlns="http://www.w3.org/2000/svg" xmlns:xlink="http://www.w3.org/1999/xlink" x="0px" y="0px"
	 viewBox="0 0 100 100" style="enable-background:new 0 0 100 100;" xml:space="preserve">
<style type="text/css">
	.st0{fill:#FFFFFF;}
</style>
<g id="hide">
	<g>
		<path class="st0" d="M49.7,76.7L49.7,76.7L49.7,76.7L49.7,76.7z"/>
		<path class="st0" d="M93,43.9c-3.8-3.1-7.7-6.2-11.5-9.4c-2.5-2.1-5.2-4-8.1-5.6l-6.8,10.5c1.9,3,3.1,6.6,3,10.5
			c0,10.8-8.8,19.5-19.6,19.5l0,0c-0.1,0-0.2,0-0.3,0c-0.9,0-1.8-0.1-2.6-0.2l-4.6,7c2.3,0.4,4.7,0.6,7.1,0.6
			C59.9,77,70,73.7,78.3,67.6c5-3.7,9.8-7.8,14.6-11.8c0.7-0.5,1.3-1.1,1.8-1.8C97.1,50.7,96.3,46.2,93,43.9z M89.4,50.8
			c-5,4.1-10,8.1-15.1,12.2c-1,0.8-2.1,1.4-3.2,2.1c3-4.5,4.6-9.7,4.7-15.1c0-5.4-1.6-10.7-4.6-15.2c0.5,0.3,1,0.6,1.5,0.9
			c2.5,1.9,5,3.7,7.4,5.6c3.1,2.4,6.1,4.9,9.1,7.4C90.2,49.5,90.2,50.1,89.4,50.8z"/>
		<path class="st0" d="M33.1,59.5c-1.7-2.9-2.6-6.3-2.6-9.9c0.1-10.7,8.9-19.3,19.6-19.3c0.7,0,1.3,0,2,0.1l4.6-7
			c-0.2,0-0.5-0.1-0.7-0.1c-11.8-1.6-23.8,1.4-33.5,8.3C17.2,35.5,12.2,39.9,7.1,44c-0.7,0.5-1.3,1.1-1.7,1.7
			c-2.3,3.2-1.5,7.7,1.8,10c3.8,3.1,7.6,6.2,11.4,9.4c2.3,2,4.8,3.8,7.5,5.3L33.1,59.5z M11,50.8c-0.8-0.7-0.9-1.3-0.1-1.9
			c4.9-4,9.9-8,14.8-12c1-0.8,2.2-1.4,3.5-2.3c-6.4,9-6.5,21.1-0.2,30.2L28.8,65c-2.7-2-5.4-4.1-8-6.2C17.5,56.2,14.2,53.5,11,50.8z
			"/>
	</g>
	<g>
		<path class="st0" d="M47.3,37.8c-3.1,0.7-5.9,2.7-7.7,5.5C38,46,37.4,49.1,38,52.1L47.3,37.8z"/>
		<path class="st0" d="M61.7,46.8l-10,15.3c1.8-0.2,3.6-0.9,5.2-1.9c4.4-2.9,6.5-8.3,5-13.4C61.9,46.7,61.8,46.8,61.7,46.8z"/>
	</g>
	<path class="st0" d="M27.1,84.3L27.1,84.3c-2.1-1.4-2.7-4.1-1.3-6.2l40-61.1c1.4-2.1,4.1-2.7,6.2-1.3l0,0c2.1,1.4,2.7,4.1,1.3,6.2
		L33.3,83C31.9,85.1,29.1,85.7,27.1,84.3z"/>
</g>
</svg>
