<?xml version="1.0" encoding="utf-8"?>
<!-- Generator: Adobe Illustrator 25.2.0, SVG Export Plug-In . SVG Version: 6.00 Build 0)  -->
<svg version="1.1" id="Vrstva_1" xmlns="http://www.w3.org/2000/svg" xmlns:xlink="http://www.w3.org/1999/xlink" x="0px" y="0px"
	 viewBox="0 0 100 100" style="enable-background:new 0 0 100 100;" xml:space="preserve">
<style type="text/css">
	.st0{fill:#A9A9A9;}
</style>
<g id="disapproved-color-gray">
	<path class="st0" d="M71.6,91.6H12.1c-4.6,0-8.4-3.8-8.4-8.4V23.7c0-4.6,3.8-8.4,8.4-8.4h25.8c1.7,0,3,1.3,3,3s-1.3,3-3,3H12.1
		c-1.3,0-2.4,1.1-2.4,2.4v59.5c0,1.3,1.1,2.4,2.4,2.4h59.5c1.3,0,2.4-1.1,2.4-2.4V58.9c0-1.7,1.3-3,3-3s3,1.3,3,3v24.4
		C80,87.9,76.2,91.6,71.6,91.6z"/>
	<path class="st0" d="M50.6,56c-0.8,0-1.5-0.3-2.1-0.9c-1.2-1.2-1.2-3.1,0-4.2l42-42.1c1.2-1.2,3.1-1.2,4.2,0c1.2,1.2,1.2,3.1,0,4.2
		l-42,42.1C52.1,55.7,51.4,56,50.6,56z"/>
	<path class="st0" d="M92.7,56c-0.8,0-1.5-0.3-2.1-0.9L48.5,13c-1.2-1.2-1.2-3.1,0-4.2c1.2-1.2,3.1-1.2,4.2,0l42.1,42.1
		c1.2,1.2,1.2,3.1,0,4.2C94.2,55.7,93.4,56,92.7,56z"/>
</g>
</svg>
