<?xml version="1.0" encoding="utf-8"?>
<!-- Generator: Adobe Illustrator 25.2.0, SVG Export Plug-In . SVG Version: 6.00 Build 0)  -->
<svg version="1.1" id="Vrstva_1" xmlns="http://www.w3.org/2000/svg" xmlns:xlink="http://www.w3.org/1999/xlink" x="0px" y="0px"
	 viewBox="0 0 100 100" style="enable-background:new 0 0 100 100;" xml:space="preserve">
<style type="text/css">
	.st0{fill:#FFFFFF;}
</style>
<g id="pics">
	<g id="XMLID_7844_">
		<path class="st0" d="M85.7,85.6H6.2c-1.3,0-2.4-1.1-2.4-2.5V24.7c0-1.4,1.1-2.5,2.4-2.5h79.6c1.3,0,2.4,1.1,2.4,2.5v58.4
			C88.2,84.5,87.1,85.6,85.7,85.6z M8.6,80.6h74.7V27.2H8.6V80.6z"/>
		<path class="st0" d="M59.2,85.1c-0.5,0-1-0.2-1.4-0.6L23.2,48.9L7.5,65c-0.8,0.8-2,0.8-2.7,0c-0.8-0.8-0.8-2,0-2.8l17.1-17.5
			c0.8-0.8,2-0.8,2.7,0l36,37c0.8,0.8,0.8,2,0,2.8C60.2,84.9,59.7,85.1,59.2,85.1z"/>
		<path class="st0" d="M82,85.1c-0.5,0-1-0.2-1.4-0.6l-29-29.7L41.6,65c-0.8,0.8-2,0.8-2.7,0c-0.8-0.8-0.8-2,0-2.8l11.4-11.7
			c0.8-0.8,2-0.8,2.7,0l30.3,31.1c0.8,0.8,0.8,2,0,2.8C83,84.9,82.5,85.1,82,85.1z"/>
		<path class="st0" d="M68.7,47.6c-3.9,0-7.1-3.3-7.1-7.3s3.2-7.3,7.1-7.3s7.1,3.3,7.1,7.3S72.6,47.6,68.7,47.6z M68.7,35.9
			c-2.3,0-4.2,1.9-4.2,4.3s1.9,4.3,4.2,4.3c2.3,0,4.2-1.9,4.2-4.3S71,35.9,68.7,35.9z"/>
	</g>
	<path class="st0" d="M93.3,77.8h-7.6c-1.3,0-2.4-1.1-2.4-2.5s1.1-2.5,2.4-2.5h5.2V19.4H16.2v5.3c0,1.4-1.1,2.5-2.4,2.5
		s-2.4-1.1-2.4-2.5v-7.8c0-1.4,1.1-2.5,2.4-2.5h79.6c1.3,0,2.4,1.1,2.4,2.5v58.4C95.8,76.7,94.7,77.8,93.3,77.8z"/>
</g>
</svg>
