<?xml version="1.0" encoding="utf-8"?>
<!-- Generator: Adobe Illustrator 25.2.0, SVG Export Plug-In . SVG Version: 6.00 Build 0)  -->
<svg version="1.1" id="Vrstva_1" xmlns="http://www.w3.org/2000/svg" xmlns:xlink="http://www.w3.org/1999/xlink" x="0px" y="0px"
	 viewBox="0 0 100 100" style="enable-background:new 0 0 100 100;" xml:space="preserve">
<style type="text/css">
	.st0{fill:#20224A;}
</style>
<g id="pics-3d-color-dark">
	<g id="XMLID_9_">
		<path class="st0" d="M85.7,85.6H6.2c-1.3,0-2.4-1.1-2.4-2.5V24.7c0-1.4,1.1-2.5,2.4-2.5h79.6c1.3,0,2.4,1.1,2.4,2.5v58.4
			C88.2,84.5,87.1,85.6,85.7,85.6z M8.6,80.6h74.7V27.2H8.6V80.6z"/>
	</g>
	<g>
		<path class="st0" d="M28.8,70.6c-2.5,0-4.8-0.4-6.9-1.3c-2.1-0.9-3.9-2.1-5.3-3.7l4-3.8c1.2,1.3,2.4,2.2,3.6,2.7
			c1.2,0.5,2.7,0.8,4.5,0.8c1.3,0,2.4-0.2,3.4-0.6c1-0.4,1.7-0.9,2.2-1.6c0.5-0.7,0.8-1.5,0.8-2.4c0-0.9-0.2-1.6-0.6-2.2
			c-0.4-0.6-1-1.1-1.7-1.4s-1.6-0.5-2.6-0.5h-4v-5h3.5c1.4,0,2.6-0.4,3.4-1.1c0.8-0.7,1.2-1.8,1.2-3.1c0-0.9-0.2-1.6-0.7-2.3
			c-0.5-0.7-1.2-1.2-2-1.6c-0.8-0.4-1.8-0.6-2.9-0.6c-1.6,0-3,0.3-4.1,0.8s-2.3,1.5-3.6,2.9l-4.1-3.8c1.5-1.7,3.3-3,5.4-3.9
			c2.1-0.9,4.3-1.4,6.6-1.4c2.2,0,4.2,0.4,5.9,1.2c1.7,0.8,3.1,1.9,4,3.2c1,1.4,1.5,3,1.5,4.7c0,1.7-0.6,3.2-1.7,4.6
			c-1.1,1.3-2.6,2.3-4.4,2.8c2.1,0.4,3.8,1.3,5.1,2.6c1.3,1.3,1.9,2.8,1.9,4.6s-0.5,3.4-1.6,4.9c-1.1,1.4-2.5,2.6-4.4,3.4
			C33.4,70.2,31.2,70.6,28.8,70.6z"/>
		<path class="st0" d="M46.3,70.1V38h12.3c2.4,0,4.6,0.4,6.7,1.2c2,0.8,3.8,1.9,5.4,3.4c1.5,1.5,2.7,3.2,3.6,5.1
			c0.9,2,1.3,4.1,1.3,6.3c0,2.3-0.4,4.4-1.3,6.3c-0.9,1.9-2.1,3.6-3.6,5.1c-1.5,1.5-3.3,2.6-5.4,3.4c-2.1,0.8-4.3,1.2-6.7,1.2H46.3z
			 M52.9,64.2h5.6c1.4,0,2.8-0.3,4-0.8c1.2-0.5,2.3-1.2,3.3-2.1c0.9-0.9,1.7-2,2.2-3.2c0.5-1.2,0.8-2.6,0.8-4c0-1.4-0.3-2.8-0.8-4
			c-0.5-1.2-1.2-2.3-2.2-3.2c-0.9-0.9-2-1.6-3.2-2.2c-1.2-0.5-2.6-0.8-4-0.8h-5.6V64.2z"/>
	</g>
	<path class="st0" d="M93.3,77.8h-7.6c-1.3,0-2.4-1.1-2.4-2.5c0-1.4,1.1-2.5,2.4-2.5h5.2V19.4H16.2v5.3c0,1.4-1.1,2.5-2.4,2.5
		s-2.4-1.1-2.4-2.5v-7.8c0-1.4,1.1-2.5,2.4-2.5h79.6c1.3,0,2.4,1.1,2.4,2.5v58.4C95.8,76.7,94.7,77.8,93.3,77.8z"/>
</g>
</svg>
