<?xml version="1.0" encoding="utf-8"?>
<!-- Generator: Adobe Illustrator 25.2.0, SVG Export Plug-In . SVG Version: 6.00 Build 0)  -->
<svg version="1.1" id="Vrstva_1" xmlns="http://www.w3.org/2000/svg" xmlns:xlink="http://www.w3.org/1999/xlink" x="0px" y="0px"
	 viewBox="0 0 100 100" style="enable-background:new 0 0 100 100;" xml:space="preserve">
<style type="text/css">
	.st0{fill:#20224A;}
</style>
<g id="mail-color-dark_1_">
	<g id="Group_1414_2_">
		<path id="Path_1094_2_" class="st0" d="M95.8,75.5c-0.4,1.3-1,2.6-1.6,3.8c-1.5,2.1-3.9,3.4-6.4,3.4h-0.5c-24.9,0-49.9,0-74.8,0
			c-2.7,0.1-5.3-1.1-6.9-3.2c-1.1-1.5-1.7-3.2-1.7-5V26.3c-0.1-4.5,3.4-8.2,7.9-8.3c0.2,0,0.4,0,0.7,0h74.9c3.3-0.2,6.4,1.7,7.8,4.6
			c0.3,0.8,0.6,1.7,0.8,2.5L95.8,75.5L95.8,75.5z M86.5,23.7l-0.1-0.2H13.2c0.1,0.1,0.2,0.2,0.2,0.3C23.6,33.9,33.8,44.1,44,54.2
			c0.9,0.9,1.9,1.5,3,2c3.1,1.2,6.7,0.3,8.8-2.2c10-9.9,19.9-19.8,29.9-29.8C86.1,24,86.3,23.8,86.5,23.7 M13.7,77.3H86L63.3,54.1
			c-1.3,1.3-2.5,2.6-3.7,3.8c-5.2,5.4-13.7,5.5-19.1,0.4c-0.1-0.1-0.3-0.3-0.4-0.4c-1.2-1.2-2.4-2.5-3.7-3.8L13.7,77.3 M9.3,27.2
			v46.3L32,50.4L9.3,27.2 M90.4,27.2l-22.7,23l22.7,23.1V27.2z"/>
	</g>
</g>
</svg>
