<?xml version="1.0" encoding="utf-8"?>
<!-- Generator: Adobe Illustrator 25.2.0, SVG Export Plug-In . SVG Version: 6.00 Build 0)  -->
<svg version="1.1" id="Vrstva_1" xmlns="http://www.w3.org/2000/svg" xmlns:xlink="http://www.w3.org/1999/xlink" x="0px" y="0px"
	 viewBox="0 0 100 100" style="enable-background:new 0 0 100 100;" xml:space="preserve">
<style type="text/css">
	.st0{fill:#20224A;}
</style>
<g id="approved-color-dark">
	<path class="st0" d="M71.6,91.6H12.1c-4.6,0-8.4-3.8-8.4-8.4V23.7c0-4.6,3.8-8.4,8.4-8.4h47.8c1.7,0,3,1.3,3,3s-1.3,3-3,3H12.1
		c-1.3,0-2.4,1.1-2.4,2.4v59.5c0,1.3,1.1,2.4,2.4,2.4h59.5c1.3,0,2.4-1.1,2.4-2.4V48.9c0-1.7,1.3-3,3-3s3,1.3,3,3v34.4
		C80,87.9,76.2,91.6,71.6,91.6z"/>
	<path class="st0" d="M45.9,60.6c-0.8,0-1.6-0.3-2.1-0.9L18.1,34c-1.2-1.2-1.2-3.1,0-4.2c1.2-1.2,3.1-1.2,4.2,0l23.6,23.6L90.5,8.7
		c1.2-1.2,3.1-1.2,4.2,0c1.2,1.2,1.2,3.1,0,4.2L48,59.8C47.5,60.3,46.7,60.6,45.9,60.6z"/>
</g>
</svg>
