<?xml version="1.0" encoding="utf-8"?>
<!-- Generator: Adobe Illustrator 25.2.0, SVG Export Plug-In . SVG Version: 6.00 Build 0)  -->
<svg version="1.1" id="Vrstva_1" xmlns="http://www.w3.org/2000/svg" xmlns:xlink="http://www.w3.org/1999/xlink" x="0px" y="0px"
	 viewBox="0 0 100 100" style="enable-background:new 0 0 100 100;" xml:space="preserve">
<style type="text/css">
	.st0{fill:#20224A;}
</style>
<g id="profile-color-dark_1_">
	<g>
		<path id="Path_916" class="st0" d="M41.6,59.5c-3.5,0-6.9,0-10.4,0C20,59.7,11,68.9,11,80.1c-0.1,5.4,4.3,9.9,9.7,10h0.1
			c4.2,0,8.5,0,12.7,0c1.7-0.2,3.3,1,3.4,2.7c0,0.1,0,0.2,0,0.3c0,1.7-1.3,3.1-3,3.1c-0.1,0-0.3,0-0.4,0H21.2
			C12.4,96.5,5,89.6,4.8,80.7c0-0.7,0-1.4,0.1-2.2C5.4,68,12.2,58.8,22.1,55.2c2.7-1.2,5.7-1.7,8.7-1.7c7.2-0.1,14.4-0.1,21.6,0
			c12.8,0.4,23.5,9.8,25.6,22.4c0.8,3.7,0.4,7.7-1.1,11.2c-2.5,5.7-8.1,9.3-14.3,9.3c-4.3,0.1-8.7,0-13,0c-1.7,0.1-3.1-1.2-3.3-2.9
			c0-0.1,0-0.1,0-0.2c0-1.7,1.5-3.1,3.2-3c0,0,0,0,0.1,0h12.3c5.5,0.3,10.2-3.9,10.5-9.4c0-0.7,0-1.4-0.1-2.1
			c-0.7-9.5-7.8-17.2-17.2-18.8c-1.6-0.2-3.2-0.3-4.8-0.3C47.4,59.5,44.5,59.5,41.6,59.5z"/>
		<path id="Path_917" class="st0" d="M41.7,10.4c-8.5,0-15.4,6.8-15.4,15.3l0,0c0,8.5,6.8,15.3,15.2,15.3c8.5,0,15.4-6.8,15.4-15.2
			l0,0C57,17.3,50.2,10.5,41.7,10.4L41.7,10.4 M41.6,47.3c-11.8,0-21.4-9.6-21.5-21.5S29.7,4.3,41.6,4.3h0.1
			c11.8,0,21.4,9.6,21.4,21.4v0.1C63.1,37.6,53.5,47.2,41.6,47.3"/>
		<path id="Path_918" class="st0" d="M73.1,39.6h20.4c1.5-0.1,2.8,0.9,3.1,2.3c0.4,1.3-0.2,2.6-1.3,3.3c-0.7,0.3-1.4,0.5-2.1,0.5
			c-6.3,0-12.6,0-18.9,0h-1.2c0.2,0.3,0.4,0.5,0.6,0.7c1.4,1.6,2.8,3.1,4.2,4.7c1.3,1.2,1.3,3.2,0.1,4.4l-0.1,0.1
			c-1.2,1.1-3.1,1.1-4.3-0.2c-0.1-0.1-0.1-0.1-0.2-0.2c-3.2-3.4-6.3-6.8-9.4-10.3c-1.3-1.1-1.4-3-0.3-4.3c0.1-0.1,0.2-0.2,0.3-0.3
			c3.2-3.5,6.3-6.9,9.5-10.4c1.1-1.3,3-1.5,4.3-0.4l0.1,0.1c1.2,1.2,1.3,3.1,0.2,4.3L78,34C76.5,35.9,74.9,37.6,73.1,39.6"/>
	</g>
</g>
</svg>
