<?xml version="1.0" encoding="utf-8"?>
<!-- Generator: Adobe Illustrator 25.2.0, SVG Export Plug-In . SVG Version: 6.00 Build 0)  -->
<svg version="1.1" id="Vrstva_1" xmlns="http://www.w3.org/2000/svg" xmlns:xlink="http://www.w3.org/1999/xlink" x="0px" y="0px"
	 viewBox="0 0 100 100" style="enable-background:new 0 0 100 100;" xml:space="preserve">
<style type="text/css">
	.st0{fill:#FFFFFF;}
</style>
<g id="hammer">
	<path class="st0" d="M38.3,23.6c-0.2-0.5-0.9-0.8-1.4-1.1l0,0c-0.5,0.2-1,0.4-1.4,0.7c-2.6,2.6-5.2,5.1-7.8,7.8
		c-0.6,0.7-0.6,1.7,0.1,2.4c0.7,0.6,1.7,0.7,2.5,0.1c0.2-0.2,0.3-0.3,0.4-0.4c2.3-2.3,4.6-4.6,6.9-6.9c0.2-0.2,0.5-0.4,0.6-0.7
		C38.4,24.8,38.4,24.2,38.3,23.6z"/>
	<path class="st0" d="M24.1,38.9C24.1,38.9,24.1,38.9,24.1,38.9C24.1,38.9,24.1,38.9,24.1,38.9L24.1,38.9z"/>
	<path class="st0" d="M24,35.4C24,35.4,24,35.4,24,35.4c-1,0-1.8,0.9-1.8,1.8c0,0,0,0,0,0c0,0.9,0.8,1.6,1.8,1.6
		c1,0,1.8-0.8,1.8-1.8C25.8,36.2,25,35.4,24,35.4z"/>
	<path class="st0" d="M92.3,77c-3.3-2.9-6.6-5.7-9.8-8.6l-16.1-14L54.6,44.2c0.4-0.4,0.6-0.8,0.8-1.2c1.4-2.8,0.2-6.2-2.5-7.5
		c0.6-0.4,1.1-0.9,1.6-1.4c0.3-0.4,0.9-0.6,1.4-0.4c1.3,0.2,2.7,0.1,3.9-0.5c0.9-0.4,1.7-0.9,2.4-1.6c2.7-2.9,2.6-7.4-0.2-10.1
		c-4.5-4.6-9.2-9.1-13.7-13.7c-1.4-1.7-3.3-2.9-5.4-3.5h-0.1h-2.1c-0.8,0.2-1.6,0.5-2.3,0.8c-2.8,1.4-4.3,4.5-3.7,7.6
		c0,0.4,0,0.7-0.3,1c-6.9,6.9-13.8,13.9-20.8,20.8c-0.2,0.2-0.5,0.4-0.8,0.4c-0.1,0-0.2,0-0.3,0c-3.9-0.7-7.6,1.9-8.2,5.8
		c0,0.1-0.1,0.2-0.1,0.2v2.1c0.4,1.5,1.1,2.9,2.2,4c5,5,10.1,10.1,15.1,15c1.7,1.7,4.1,2.5,6.4,2.1c3.9-0.6,6.5-4.4,5.8-8.3
		c0-0.3,0-0.6,0.2-0.9c0.5-0.7,1.1-1.3,1.7-2c2.6,3.5,4.9,3.9,8.8,1.7c0.1,0.1,0.3,0.3,0.3,0.3l15.8,18.2C66,79.5,71.6,86,77.3,92.4
		c3,3.3,7.7,4.5,11.8,2.8c4.3-1.6,7-5.7,7-10.3C96,81.9,94.6,79,92.3,77z M38.5,10.4c0.6-1.3,1.9-2.2,3.3-2.2L42,8l0,0
		c0.8,0.3,1.6,0.8,2.4,1.3c5.1,5.1,10.2,10.2,15.3,15.3c1.4,1.4,1.4,3.7,0,5.1c-1.4,1.4-3.7,1.4-5.1,0c-5.1-5.1-10.2-10.2-15.3-15.3
		C38.2,13.3,37.9,11.7,38.5,10.4z M29.9,58.9c-0.6,1.4-2.2,2.3-3.7,2.2l0,0c-0.7-0.3-1.4-0.6-2.1-1.1c-5.1-5-10.2-10.1-15.2-15.2
		c0,0-0.1-0.1-0.1-0.1c-1.4-1.4-1.3-3.6,0.1-5c0,0,0.1-0.1,0.1-0.1c1.4-1.4,3.7-1.3,5,0.1C19,44.7,24,49.8,29.1,54.9
		C30.2,56,30.5,57.6,29.9,58.9z M31.7,52.2l-15-15L36.8,17l15,15L31.7,52.2z M42,52.3c-0.5,0.6-1.4,0.8-2.1,0.5
		c-0.7-0.4-1.2-1.1-1.1-1.9h0c0.2-0.4,0.4-0.8,0.6-1.1c3.3-3.3,6.5-6.6,9.8-9.9c0,0,0.1-0.1,0.1-0.1c0.7-0.7,1.9-0.7,2.6,0
		c0.1,0,0.1,0.1,0.2,0.2c0.6,0.8,0.5,1.9-0.3,2.5C48.5,45.7,45.3,49,42,52.3z M46.9,52.6l5.3-5.3l22,19.2h0l-8.1,8.1L46.9,52.6z
		 M68.7,77.6l8.5-8.5l2.5,2.1L70.8,80L68.7,77.6z M90.4,91c-2.8,2.7-7.4,2.7-10.1-0.2c-2.4-2.5-4.6-5.2-6.9-7.9l9.1-9.1
		c0,0,0.1,0,0.2,0c2.6,2.3,5.3,4.4,7.8,6.8c0,0,0.1,0.1,0.2,0.2C93.2,83.7,93.2,88.2,90.4,91z"/>
	<path class="st0" d="M49.7,84.3c0.1-0.2,0.2-0.4,0.4-0.7c0.4-0.9,0.7-1.8,0.7-2.8c0-3.5-2.7-6.3-6.2-6.4c-10.3,0-20.6,0-30.9,0
		c-0.4,0-0.8,0.1-1.2,0.2c-3.3,0.8-5.4,4.1-4.7,7.4c0.2,0.9,0.6,1.7,0.9,2.5c-1.6,0.9-2.9,2.2-3.7,3.9c-0.4,0.9-0.7,1.8-1,2.8l0-0.1
		v3.6c0.5,0.9,1.4,1.4,2.5,1.3c15.2,0,30.3,0,45.4,0c0.3,0,0.5,0,0.8,0c0.8,0,1.5-0.7,1.6-1.5c0.5-2.8-0.3-5.7-2.1-7.9
		C51.4,85.8,50.6,85,49.7,84.3z M11.4,81.1c0.1-1.5,1.3-2.7,2.8-2.6h15.2h0h15c0.4,0,0.8,0,1.1,0.2c1.4,0.5,2.1,2.1,1.5,3.5
		c-0.4,1-1.3,1.7-2.4,1.7c-10.3,0-20.5,0-30.8,0C12.5,83.9,11.4,82.7,11.4,81.1C11.4,81.2,11.4,81.1,11.4,81.1z M7.8,92.9
		C7.8,92.8,7.8,92.8,7.8,92.9c0-3,2.4-5.3,5.3-5.3c5.2,0,10.4,0,15.6,0c5.5,0,11.1,0,16.7,0c0,0,0,0,0,0c2.9,0,5.3,2.4,5.3,5.3H7.8z
		"/>
</g>
</svg>
