<?xml version="1.0" encoding="utf-8"?>
<!-- Generator: Adobe Illustrator 25.2.0, SVG Export Plug-In . SVG Version: 6.00 Build 0)  -->
<svg version="1.1" id="Vrstva_1" xmlns="http://www.w3.org/2000/svg" xmlns:xlink="http://www.w3.org/1999/xlink" x="0px" y="0px"
	 viewBox="0 0 100 100" style="enable-background:new 0 0 100 100;" xml:space="preserve">
<style type="text/css">
	.st0{fill:#FFFFFF;}
</style>
<g id="copy">
	<g>
		<path class="st0" d="M63,37v53H10V37H63 M63,31H10c-3.3,0-6,2.7-6,6v53c0,3.3,2.7,6,6,6h53c3.3,0,6-2.7,6-6V37
			C69,33.7,66.3,31,63,31L63,31z"/>
	</g>
	<path class="st0" d="M90,4H37c-3.3,0-6,2.7-6,6v15h6V10h53v53H75v6h15c3.3,0,6-2.7,6-6V10C96,6.7,93.3,4,90,4z"/>
</g>
</svg>
