<?xml version="1.0" encoding="utf-8"?>
<!-- Generator: Adobe Illustrator 25.2.0, SVG Export Plug-In . SVG Version: 6.00 Build 0)  -->
<svg version="1.1" id="Vrstva_1" xmlns="http://www.w3.org/2000/svg" xmlns:xlink="http://www.w3.org/1999/xlink" x="0px" y="0px"
	 viewBox="0 0 100 100" style="enable-background:new 0 0 100 100;" xml:space="preserve">
<style type="text/css">
	.st0{fill:#FFFFFF;}
</style>
<g id="instagram">
	<path class="st0" d="M68.4,4.3H31.2C16.1,4.3,3.8,16.6,3.8,31.7v37.2c0,15.1,12.3,27.4,27.4,27.4h37.2c15.1,0,27.4-12.3,27.4-27.4
		V31.7C95.8,16.6,83.5,4.3,68.4,4.3z M86.6,68.9c0,10-8.1,18.2-18.2,18.2H31.2C21.2,87.1,13,79,13,68.9V31.7
		c0-10,8.1-18.2,18.2-18.2h37.2c10,0,18.2,8.1,18.2,18.2C86.6,31.7,86.6,68.9,86.6,68.9z"/>
	<path class="st0" d="M86.6,68.9"/>
	<path class="st0" d="M49.8,26.5C36.7,26.5,26,37.2,26,50.3s10.7,23.8,23.8,23.8s23.8-10.7,23.8-23.8S62.9,26.5,49.8,26.5z
		 M49.8,64.9c-8,0-14.5-6.5-14.5-14.5s6.5-14.5,14.5-14.5s14.5,6.5,14.5,14.5C64.4,58.4,57.8,64.9,49.8,64.9z"/>
	<path class="st0" d="M49.8,64.9"/>
	<path class="st0" d="M79.4,26.7c0,3.1-2.6,5.7-5.7,5.7S68,29.8,68,26.7s2.6-5.7,5.7-5.7S79.4,23.6,79.4,26.7L79.4,26.7z"/>
	<path class="st0" d="M79.4,26.7"/>
</g>
</svg>
