<?xml version="1.0" encoding="utf-8"?>
<!-- Generator: Adobe Illustrator 25.2.0, SVG Export Plug-In . SVG Version: 6.00 Build 0)  -->
<svg version="1.1" id="Vrstva_1" xmlns="http://www.w3.org/2000/svg" xmlns:xlink="http://www.w3.org/1999/xlink" x="0px" y="0px"
	 viewBox="0 0 98 100" style="enable-background:new 0 0 98 100;" xml:space="preserve">
<style type="text/css">
	.st0{fill:#FFFFFF;}
</style>
<path id="messenger" class="st0" d="M49.5,4.5c-24.6,0-44.8,19.2-44.8,43c0,12.7,5.9,23.9,14.9,31.8v17.3l16.6-8.3
	c4.2,1.3,8.6,2.2,13.3,2.2c24.6,0,44.8-19.2,44.8-43S74.1,4.5,49.5,4.5z M49.5,12c20.8,0,37.4,15.9,37.4,35.5S70.3,83,49.5,83
	c-4.5,0-8.7-0.8-12.7-2.2l-1.5-0.5l-8.2,4.1V76l-1.4-1.2c-8.3-6.5-13.5-16.3-13.5-27.3C12.1,27.9,28.7,12,49.5,12z M45.3,35.7
	L22.8,59.5L43,48.3l10.7,11.6L76,35.7L56.3,46.8L45.3,35.7z"/>
</svg>
