<?xml version="1.0" encoding="utf-8"?>
<!-- Generator: Adobe Illustrator 25.2.0, SVG Export Plug-In . SVG Version: 6.00 Build 0)  -->
<svg version="1.1" id="Vrstva_1" xmlns="http://www.w3.org/2000/svg" xmlns:xlink="http://www.w3.org/1999/xlink" x="0px" y="0px"
	 viewBox="0 0 79 100" style="enable-background:new 0 0 79 100;" xml:space="preserve">
<style type="text/css">
	.st0{fill:#FFFFFF;}
</style>
<path id="pinterest" class="st0" d="M71.7,20C69,15.4,65,11.6,59.8,8.7S48.7,4.3,42.2,4.3c-4.8,0-9.4,0.7-13.6,2s-7.8,3.1-10.7,5.3
	s-5.4,4.8-7.5,7.6c-2.1,2.9-3.6,5.9-4.6,9s-1.5,6.2-1.5,9.3c0,4.8,0.9,9,2.8,12.7c1.8,3.6,4.5,6.2,8.1,7.7c1.4,0.6,2.3,0.1,2.6-1.4
	c0.1-0.3,0.3-1,0.5-2.1c0.3-1.1,0.5-1.8,0.6-2.1c0.3-1.1,0-2-0.8-3c-2.4-2.8-3.5-6.3-3.5-10.4c0-7,2.4-12.9,7.2-17.9
	s11.1-7.5,18.9-7.5c7,0,12.4,1.9,16.3,5.7s5.8,8.7,5.8,14.7c0,7.8-1.6,14.5-4.7,20c-3.2,5.5-7.2,8.2-12.1,8.2c-2.8,0-5.1-1-6.8-3
	s-2.2-4.4-1.6-7.2c0.4-1.6,1-3.8,1.8-6.5s1.5-5.1,2.1-7.1c0.5-2.1,0.8-3.8,0.8-5.2c0-2.3-0.6-4.2-1.9-5.7c-1.2-1.5-3-2.3-5.3-2.3
	c-2.9,0-5.3,1.3-7.3,3.9s-3,5.9-3,9.8c0,3.4,0.6,6.2,1.7,8.4l-6.8,28.9c-0.8,3.2-1.5,7.2-1.4,12.2c0,1.6,0.3,7.7,1.5,8.1
	c0.8,0.3,4.3-4.5,5.2-5.8c3-4.1,4.5-8.1,5.4-11.3c0.4-1.6,1.7-6.4,3.7-14.6c0.9,1.8,2.6,3.4,5,4.7c2.4,1.3,5.1,2,7.9,2
	c5.6,0,10.6-1.6,14.9-4.7c4.4-3.2,7.8-7.5,10.2-13c2.4-5.5,3.6-11.8,3.6-18.7C75.8,29.6,74.4,24.6,71.7,20z"/>
</svg>
