 <svg  version="1.0" xmlns="http://www.w3.org/2000/svg"  width="300.000000pt" height="211.000000pt" viewBox="0 0 300.000000 211.000000"  preserveAspectRatio="xMidYMid meet">  <g transform="translate(0.000000,211.000000) scale(0.100000,-0.100000)" fill="#ffffff" stroke="none"> <path d="M686 1909 c-226 -33 -337 -108 -387 -261 -24 -73 -24 -74 -24 -548 0 -524 1 -535 65 -666 54 -110 161 -184 321 -222 67 -15 150 -17 859 -17 713 0 791 2 853 17 184 48 285 148 333 329 15 54 18 132 21 513 5 489 -1 555 -52 656 -34 68 -112 134 -188 160 -138 47 -201 50 -997 49 -410 -1 -772 -5 -804 -10z m747 -555 c204 -102 432 -226 445 -242 6 -9 12 -30 12 -48 0 -49 -17 -59 -402 -258 -92 -47 -179 -86 -193 -86 -14 0 -37 11 -50 25 l-25 24 0 294 c0 283 1 295 21 321 30 39 65 33 192 -30z"/> </g> </svg> 