<?xml version="1.0" encoding="utf-8"?>
<!-- Generator: Adobe Illustrator 25.2.0, SVG Export Plug-In . SVG Version: 6.00 Build 0)  -->
<svg version="1.1" id="Vrstva_1" xmlns="http://www.w3.org/2000/svg" xmlns:xlink="http://www.w3.org/1999/xlink" x="0px" y="0px"
	 viewBox="0 0 458.6 414.2" style="enable-background:new 0 0 458.6 414.2;" xml:space="preserve">
<style type="text/css">
	.st0{fill:#FFFFFF;}
</style>
<g>
	<path id="Path_1238" class="st0" d="M31.5,321.7h395.9c-2.2-5.5-4.3-10.6-6.5-15.8c-8.8-21.2-17.6-42.5-26.4-63.7
		c-2.7-6.5-3.7-7.2-10.6-7.2c-37.5,0-75,0-112.5,0c-1.6,0.1-3.2,0-4.8-0.2c-3.5-0.8-5.5-3.1-5.5-6.8s2.1-5.9,5.6-6.7
		c1.3-0.2,2.6-0.3,3.9-0.2c37.9,0,75.9,0,113.8,0c11.9,0,18.2,4.2,22.7,15.2c12.2,29.5,24.5,59,36.6,88.6c0.6,1.6,0.9,3.3,0.9,5
		c0.1,16.5,0.1,33,0,49.5c0,13.8-8.7,22.4-22.6,22.4c-128.6,0-257.2,0-385.8,0c-13.8,0-22.6-8.7-22.6-22.4c0-16.4,0-32.7,0-49.1
		c0-1.7,0.2-3.4,0.8-5C25,300,35.5,274.9,45.9,249.9c0.5-1.4,1.1-2.7,1.8-3.9c2.1-2.9,4.9-4.1,8.3-2.6c3.5,1.5,5,4.3,4.1,8.1
		c-0.4,1.4-0.9,2.8-1.5,4.1c-8.4,20.4-16.9,40.9-25.4,61.3C32.7,318.3,32.2,319.7,31.5,321.7 M27.7,335.8c0,14.7,0,29.1,0,43.4
		c0,6.2,2.5,8.6,8.7,8.6c128.5,0,257.1,0,385.6,0c6.3,0,8.7-2.4,8.8-8.6c0-13.5,0-26.9,0-40.4c0-1-0.2-1.9-0.3-3L27.7,335.8z"/>
	<path id="Path_1239" class="st0" d="M205.7,38.7c0-6.5,0-12.3,0-18c0.1-5.7,2.5-8.1,8.3-8.2c10.3-0.1,20.6-0.1,30.8,0
		c5.7,0,8.1,2.5,8.2,8.2s0,11.5,0,18h5.4c31,0,62,0,93,0c7.9,0,10,2.1,10,10V189c0,8-2,10-10,10H253v5.4c0,23.6,0,47.2,0,70.8
		c0,8.1-1.9,10.1-9.9,10.1h-27.4c-8.3,0-10.1-1.9-10.1-10.3c0-23.6,0-47.2,0-70.8v-5.1H200c-30.8,0-61.7,0-92.5,0
		c-8.3,0-10.3-2-10.3-10.2V48.5c0-7.7,2.1-9.8,9.8-9.8c31,0,62,0,93,0L205.7,38.7 M347.2,52.8H111.4v132h235.9V52.8z M219.9,271.2
		h19v-71.7h-19L219.9,271.2z M238.9,26.7h-19.1v11.6h19.1L238.9,26.7z"/>
	<path id="Path_1240" class="st0" d="M96.4,279.4c0,6.9,0,13.5,0,20.2c0,5.8-2.7,9.1-7.1,8.9c-4.2-0.1-6.8-3.4-6.8-8.9
		c0-18.8,0-37.6,0-56.4v-4.4c-6.1-0.4-11.8-0.2-17.2-1.2c-17.7-3.2-31.2-18.3-32.9-36.3c-0.3-3.6,1-6.3,4.4-7.6
		c9.4-3.4,19.1-5.2,29-3.5c15.6,2.6,26.6,14.3,29.5,31.2c1,5.5,1.1,11.2,1.6,16.9c0.1,0,0.6,0.1,0.9-0.1
		c14.1-10.4,29.1-8.2,44.3-3.2c4.1,1.3,5.1,4.7,4.5,8.8c-3,22.5-23.3,38.6-45.9,36.2L96.4,279.4 M97.7,264.9
		c14.6,4.5,31-4.7,33.5-18.5C114.4,240.7,100.8,248.2,97.7,264.9 M81.3,223.9c-1.8-16.2-16.6-24.4-33.4-18.6
		C50.9,219,65.2,227.1,81.3,223.9"/>
	<path id="Path_1241" class="st0" d="M173.1,234.9c-5.3,0-10.7,0.1-16,0c-4.9-0.1-7.7-2.6-7.8-6.8c-0.1-4.3,2.9-7,8-7.1
		c10.7-0.1,21.4-0.1,32.1,0c5.1,0,8.1,2.7,8,7c0,4.3-3,6.8-8.2,6.9C183.7,234.9,178.4,234.9,173.1,234.9"/>
	<path id="Path_1242" class="st0" d="M237.5,160.5c0,0.8-0.4,1.2-1.3,1.3c-0.9,0-1.7,0-2.6,0c-0.3,0-0.9,0-1.5,0
		c-0.7,0-1.4-0.1-2.2-0.2s-1.5-0.1-2.3-0.1c-0.5,0-1-0.1-1.5-0.3c-0.3-0.1-0.6-0.4-0.7-0.7c-0.1-0.3-0.1-0.7-0.1-1
		c0.1-0.8,0.2-1.6,0.2-2.5c0-0.8,0-1.6,0.1-2.3c-2.2-0.1-4.4-0.1-6.7-0.2c-2.3-0.1-4.5-0.1-6.7-0.1c-0.7,0.1-1.4-0.5-1.4-1.2
		c0-0.1,0-0.2,0-0.2c-0.1-0.9-0.1-1.8-0.1-2.6v-3.2c0-0.6,0-1.3,0-1.8c0-0.4,0.1-0.8,0.3-1.2c0.3-0.7,1.1-1.2,1.9-1.1
		c0.3,0,0.5,0,0.8,0.1c2.1,0.1,4.2,0.1,6.2,0.1c2,0,4.1-0.1,6.1-0.2c0.8-0.1,1.5-0.1,2.3-0.1c0.8,0,1.5-0.1,2.3-0.3
		c1.5-0.3,2.8-1,3.9-2c1-1,1.4-2.4,1-3.8c-0.3-1-0.8-2-1.5-2.8c-0.7-0.8-1.6-1.6-2.5-2.3c-1.9-1.6-3.9-2.9-6-4.1
		c-2.1-1.2-4.2-2.6-6.1-4c-1.4-0.9-2.6-2-3.8-3.1c-1.2-1.1-2.3-2.4-3.1-3.8c-1.7-2.7-2.7-5.8-3.1-8.9c-0.4-3.2-0.1-6.5,0.8-9.6
		c0.7-2.2,1.7-4.2,3.2-5.9c1.6-1.9,3.4-3.6,5.4-4.9c2-1.4,4.2-2.4,6.5-3.2v-2.8c0-0.6,0-1.2,0-1.7c0-0.4-0.1-0.7-0.1-1.1
		c0-0.2,0-0.3-0.1-0.5c-0.1-0.1-0.1-0.3,0-0.5c0.1-0.1,0.1-0.2,0.3-0.3c0.1-0.1,0.3-0.2,0.4-0.3c0.3-0.4,0.8-0.7,1.3-0.7
		c0.7-0.1,1.2-0.2,1.6-0.3c1-0.1,1.9-0.1,2.9,0c1,0,1.9,0.1,2.9,0.2c0.4,0.1,0.8,0.3,1,0.7c0.2,0.4,0.4,0.8,0.4,1.2v0.9
		c0,0.5,0,1,0,1.6c0,0.6,0.1,1.1,0.1,1.6v0.9c1.7,0.2,3.4,0.6,5,1.3c1.6,0.6,3.1,1.5,4.5,2.6c1.2,1,2.2,2.1,3,3.4
		c0.8,1.3,1.5,2.6,2,4c0.7,2,1.3,4,1.6,6.1c0.3,2.1,0.6,4.2,0.7,6.4c0.1,0.9,0.1,1.8,0,2.7c0.1,0.8-0.4,1.7-1.2,2
		c-0.6,0.2-1.2,0.3-1.8,0.3c-0.9,0-1.8,0-2.8,0s-1.9,0-2.9,0c-0.9,0-1.6,0-1.9,0c-0.5,0.2-0.9,0.1-1.3-0.2c-0.2-0.1-0.4-0.4-0.5-0.6
		c-0.1-0.3-0.2-0.5-0.2-0.8c-0.1-1.6-0.3-3.3-0.6-4.9c-0.3-1.6-0.8-3.2-1.6-4.6c-0.8-1.7-2.2-3.2-3.9-4.1c-1-0.6-2-0.9-3.1-1
		c-1.1-0.1-2.2,0-3.2,0.4c-1.5,0.5-2.7,1.5-3.6,2.7c-0.9,1.2-1.4,2.5-1.6,4c-0.2,1.5-0.1,3,0.3,4.5c0.4,1.5,1.2,3,2.3,4.1
		c1.8,2,3.8,3.7,6,5.2c2.2,1.5,4.5,2.9,6.8,4.3c2.4,1.5,4.6,3.4,6.4,5.6c1.8,2.2,3.4,4.6,4.8,7.2c0.8,1.6,1.4,3.3,1.7,5.1
		c0.6,3,0.1,6-1.3,8.7c-0.5,1-1.2,2-2,2.8c-1.3,1.3-2.9,2.3-4.7,2.8c-1.8,0.5-3.5,1-5.4,1.2v3.1
		C237.4,158.3,237.4,159.4,237.5,160.5"/>
</g>
</svg>
