<?xml version="1.0" encoding="utf-8"?>
<!-- Generator: Adobe Illustrator 25.2.0, SVG Export Plug-In . SVG Version: 6.00 Build 0)  -->
<svg version="1.1" id="Vrstva_1" xmlns="http://www.w3.org/2000/svg" xmlns:xlink="http://www.w3.org/1999/xlink" x="0px" y="0px"
	 viewBox="0 0 462.8 511.4" style="enable-background:new 0 0 462.8 511.4;" xml:space="preserve">
<style type="text/css">
	.st0{fill:#09CE02;}
</style>
<g id="Cesta_1" transform="translate(0 0)">
	<path id="Path_1227" class="st0" d="M441,311.6c-38.6-17-77.1-34.2-115.5-51.4c-16.6-7.4-33.2-15-49.8-22.6
		c-6.2-2.8-11-1.7-13.4,3.1s-0.3,9.2,5.8,12.3c1.3,0.7,2.5,1.4,4.3,2.5c-11.1,5.7-21.8,10.7-32,16.6c-6.4,3.8-11.5,3.9-18,0.1
		c-10.9-6.4-22.4-11.7-34.2-17.8c2.1-1.1,3.5-1.8,4.9-2.5c5.7-2.9,7.8-7.3,5.7-12s-7-6.2-12.8-3.6C130.6,261.6,75.2,287,19.9,312.4
		c-4.1,1.9-6.1,4.8-6.1,9.2c0,19.7,0,39.4,0.1,59c0,2,0.5,3.9,1.5,5.6c2,3.5,5.4,4.7,9.3,3.6c4.3-1.2,6.3-4.4,6.3-8.9
		c0-13.2,0-26.5,0-39.7v-6.4c2.9,1.5,4.8,2.4,6.7,3.4c30.2,15.5,60.4,31,90.6,46.5c29.4,15.1,58.8,30.2,88.1,45.4
		c1.7,0.9,3.9,3.1,3.9,4.7c0.3,12.5,0.2,25,0.2,38.5c-2.2-1-3.6-1.5-5-2.2c-18.6-9.5-37.2-19.1-55.8-28.6
		c-13.2-6.8-26.3-13.6-39.6-20.2c-4.9-2.4-9.8-0.7-11.9,3.6c-2,4.2-0.5,8.7,3.9,11.5c0.6,0.4,1.2,0.7,1.9,1
		c36.2,18.6,72.5,37.3,108.6,55.9c4.7,2.4,8.6,2.2,13.1-0.1c68.6-34.6,137.2-69.1,205.9-103.5c5.2-2.6,7.3-6.2,7.2-11.9
		c-0.2-18.4-0.2-36.8,0-55.3C449,317.5,446.5,314,441,311.6 M368.1,298.1c17,7.4,33.9,15,52,23.1c-14.5,7.3-28.1,13.5-41.1,20.9
		c-7.5,4.3-13.4,4.2-20.9-0.1c-12.6-7.3-25.8-13.5-39.8-20.7c4.7-2.5,8.5-4.5,12.4-6.5c10.5-5.4,20.9-10.8,31.5-16
		C363.9,298,366.5,297.4,368.1,298.1 M349.1,356.5c-1.8,1.1-2.9,2-4.2,2.6c-13.9,7-27.7,14.1-41.7,20.9c-1.6,0.8-4.3,1.1-5.8,0.3
		c-15.5-7.8-30.8-15.8-46.9-24.1c8-4.1,15.4-8,22.8-11.8c7.6-3.9,15.2-8,22.9-11.7c1.7-0.8,4.3-1.1,5.8-0.4
		C317.5,340.1,332.9,348.1,349.1,356.5 M291.3,265.4c1.3-0.4,2.7-0.3,3.9,0.2c16.3,7.2,32.6,14.5,50.2,22.3
		c-12.1,6.2-23.4,11.1-33.7,17.6c-8.8,5.5-15.9,5.2-24.7-0.1c-11.6-7-24-12.6-36.7-19.2C264.4,279.1,277.8,272.2,291.3,265.4
		 M228.8,297.5c1.7-0.7,3.6-0.7,5.3,0c15.2,7.6,30.2,15.3,45.8,23.4c-1,0.8-2,1.6-3,2.3c-13.9,7.2-27.9,14.4-41.9,21.5
		c-1.5,0.8-4,1.3-5.3,0.6c-15.4-7.7-30.8-15.7-47.1-24.1C198.6,312.9,213.6,305.1,228.8,297.5 M120.7,285.4
		c14.8-6.8,29.6-13.5,44.4-20.2c1.5-0.7,3.7-1.3,4.9-0.7c14,7,28,14.2,42.6,21.8c-16.2,8.3-31.5,16.3-46.9,24.1
		c-1.5,0.5-3.1,0.4-4.4-0.3c-14.5-7.4-28.9-14.8-43.9-22.6C118.5,286.7,119.6,286.1,120.7,285.4 M73.1,337.1
		c-9.9-5.1-19.8-10.3-30.8-15.9c9.3-4.2,17.5-7.9,25.6-11.7c8.4-3.9,16.8-7.9,25.3-11.5c1.8-0.8,4.7-1,6.4-0.2
		c14.8,7.4,29.5,15.1,45.3,23.2c-11,5.7-21,10.9-31.2,16.1c-6.8,3.4-13.7,9.3-20.6,9.3C86.5,346.5,79.8,340.5,73.1,337.1
		 M160.1,381.7c-15.7-8-31.3-16-47.7-24.5c15.2-7.8,29.8-15,43.9-22.8c5.5-3,9.7-2.9,15.1,0.1c11.8,6.7,24,12.6,36,18.8
		c1.6,0.8,3.1,1.7,5.3,2.9c-17,8.7-33.3,17.1-49.6,25.4C162.1,382,161.1,382.1,160.1,381.7 M230.9,416.3c-1.1,0.5-2.3,0.5-3.5,0
		c-15.4-7.8-30.7-15.7-47.1-24.1c6.5-3.4,12.1-6.3,17.7-9.2c10-5.1,20-10.3,30.1-15.3c1.6-0.8,4-1.4,5.4-0.7
		c15.4,7.7,30.8,15.7,47.3,24.3C263.4,400,247.2,408.2,230.9,416.3 M426.9,378.9c-56.8,28.5-113.6,57-170.4,85.5c-6,3-12,6-18.8,9.4
		c0-13.8-0.2-26.6,0.2-39.4c0-1.5,2.5-3.5,4.3-4.5c46.4-23.4,92.8-46.7,139.2-70c16.4-8.2,32.8-16.5,50.2-25.2V354
		c0,5.9-0.3,11.8,0.1,17.7C432.1,375.8,430,377.3,426.9,378.9"/>
	<path id="Path_1228" class="st0" d="M223.3,243c4.6,5.7,10.2,5.6,14.9-0.2c17.1-21.4,34.3-42.6,50.8-64.4
		c15.6-20.5,26.2-43.3,28.9-69.4c2.5-24.6-1.7-47.3-19.3-65.6C263.8,7.2,208.8,8,173.7,34.9c-21.7,16.6-29,40.3-29.5,66.7
		c-0.2,17.3,4.2,34.2,12.8,49.2C176.1,183.7,199.5,213.5,223.3,243 M165.5,75.7c5-15.8,15.2-27.6,30.3-34.4
		c22.1-10,44.5-12.3,67.4-2.1c28.2,12.7,41.9,37.5,37.7,68.2c-2.6,18.5-8.2,35.9-19.1,51.2c-10.8,15.1-21.8,30.1-33,44.9
		c-5.5,7.3-11.5,14.1-17.8,21.8c-22-28.4-44.3-55.8-60.8-87.1C159.5,118.2,158.7,97,165.5,75.7"/>
	<path id="Path_1229" class="st0" d="M49.2,386.6c-5.6,0.1-10.1,4.7-10,10.2v0.1c0.2,5.6,4.8,10,10.4,10c5.6-0.2,10-4.8,10-10.4
		c-0.1-5.5-4.6-9.9-10.1-9.9C49.4,386.6,49.3,386.6,49.2,386.6"/>
	<path id="Path_1230" class="st0" d="M83.5,404c-5.5-0.2-10,4.1-10.2,9.6c0,0.1,0,0.3,0,0.4c-0.1,5.6,4.4,10.2,10,10.3
		c5.6-0.1,10.2-4.5,10.3-10.2C93.6,408.6,89.1,404,83.5,404"/>
	<path id="Path_1231" class="st0" d="M235.7,161.1c-1.5-0.9-3.2-1.3-4.9-1.3c-5.3,0-9.7,4.3-9.7,9.7c0,1.7,0.4,3.4,1.3,4.8
		c2.7,4.6,8.6,6.2,13.2,3.6c1.5-0.9,2.7-2.1,3.6-3.6c1.7-3,1.7-6.7,0-9.7C238.4,163.1,237.2,161.9,235.7,161.1"/>
	<path id="Path_1232" class="st0" d="M204.6,105.6h10.8c0.7,0,1.4-0.3,1.8-0.8c0.5-0.5,0.8-1.2,0.8-1.9c0-4.5,1.4-8,4.1-10.6
		c2.7-2.6,6.4-3.9,11-3.9c4.8,0,8.6,1.2,11.4,3.6c2.8,2.4,4.4,6,4.2,9.7c0,2.2-0.5,4.3-1.7,6.1c-1.1,1.8-2.6,3.3-4.3,4.6
		c-1.7,1.3-4.4,3.2-8,5.5c-2.2,1.4-4.2,3.1-5.9,5.1c-1.8,2.2-3.3,4.6-4.4,7.2c-1.1,2.4-1.6,5-1.5,7.6l0.3,8.8c0,0.6,0.3,1.1,0.7,1.5
		c0.5,0.4,1.1,0.6,1.8,0.6l9.5-0.1c0.6,0,1.2-0.2,1.6-0.6c0.4-0.4,0.7-0.9,0.8-1.5l0.1-7.8c0-2.3,1-4.8,3-7.4c2.1-2.7,4.7-5,7.6-6.8
		c5.3-3.5,9.3-7.1,11.8-10.7s3.9-7.8,3.8-12.2c0.1-5.2-1.3-10.3-4-14.8c-2.6-4.3-6.4-7.9-11-10.2c-5-2.5-10.5-3.8-16.1-3.7
		c-5.6-0.1-11.1,1.1-16.1,3.6c-4.6,2.3-8.3,5.9-10.8,10.4c-2.7,4.9-4,10.5-3.9,16.1c0,0.6,0.2,1.3,0.7,1.8
		C203.4,105.3,204,105.6,204.6,105.6"/>
</g>
</svg>
