<?xml version="1.0" encoding="utf-8"?>
<!-- Generator: Adobe Illustrator 25.2.0, SVG Export Plug-In . SVG Version: 6.00 Build 0)  -->
<svg version="1.1" id="Vrstva_1" xmlns="http://www.w3.org/2000/svg" xmlns:xlink="http://www.w3.org/1999/xlink" x="0px" y="0px"
	 viewBox="0 0 449.4 561.6" style="enable-background:new 0 0 449.4 561.6;" xml:space="preserve">
<style type="text/css">
	.st0{fill:#FFFFFF;}
</style>
<g>
	<path id="Path_1252" class="st0" d="M173.7,391c-18.7-5.1-37.4-10.1-56.1-15.3c-19.5-5.5-24.1-15.7-15.1-34.1
		c6.7-13.6,13.6-27.1,20.8-40.5c3-5.6,4.5-10.3-2-14.6c-9.5-6.2-8.8-14.8-5.1-23.9c0.3-0.9,0.7-1.8,1.3-2.5
		c29.8-33.8,11.7-64.5-6.1-95.4c-4.6-7.9-7.4-5.1-10.3,1c-14.5,29.4-29,58.7-43.6,88c-2.1,4.1-4.5,7.7,1.5,10.3
		c11,4.8,7.6,12.5,3.9,20.1c-5.5,11.1-10.9,22.1-16.7,33c-2.9,5.5-5.2,10.1,2.7,13.6c7,3.1,6,8.8,3.2,14.5
		c-5.7,11.5-10.9,23.2-17.2,34.3c-3.9,7-5.4,11.9,3.6,15.7c4.4,1.8,6.5,5.7,4.4,10.5c-2.1,5-6.5,4.7-10.9,4.1
		c-16.7-2.5-22.8-13.4-15.9-28.9c3.4-7.8,7.2-15.5,11.5-22.9c4.8-8,7.3-14.9-0.9-22.6c-4.3-4-2.5-9.8-0.2-14.7
		c4-8.6,7.9-17.3,12.4-25.5c4.8-8.6,9.3-16.3-0.6-25c-4.7-4.1-2.5-10.6,0.2-15.9c19.2-38.1,38.5-76.3,57.7-114.4
		c2.4-4.7,5.3-9.6,11.4-9.5c6.3,0.1,8.2,5.7,10.5,10.3c3.2,6.3,6.4,12.7,9.6,19.1c1.4,2.9,2,7.1,5.9,7.2c4.5,0.1,5.7-4.2,7.3-7.7
		c6.5-13.2,13-26.4,19.8-39.5c2.4-4.7,5.4-10,11.9-6.6c6,3.1,5,8.4,2.5,13.6c-8,16.2-15.7,32.4-24,48.5c-3.7,7.2-6.3,12.6,4.6,15.9
		c10.8,3.3,9.4,11.5,5.3,19.6c-8.4,16.5-17.1,32.8-25.3,49.4c-3.3,6.7-7.8,13.5,4.4,17.4c9.1,2.9,7.8,10.7,4.3,17.8
		c-8.1,16.6-15.9,33.5-24.7,49.7c-5.5,10.1-2.7,13.4,7.6,16.8c60.7,20.1,121.2,19.9,182,0.4c11.4-3.7,13-8.4,7.9-18.3
		c-8.4-16-16-32.3-24.3-48.3c-4.5-8.6-5.2-15.5,6-18.7c7.7-2.2,7.9-6.4,4.5-12.8c-9.2-17.7-17.6-35.8-27-53.4
		c-5.1-9.5-4.8-16.2,6.5-19.7c8.6-2.7,7.5-7.7,4.2-14.3c-20.6-40.6-41-81.3-61.6-121.9c-1.7-3.3-4.1-8.1-6.8-8.5
		c-5.1-0.8-5.8,5.4-7.6,8.9c-5.4,10.5-10.2,21.4-15.7,31.9c-2.3,4.5-5.4,10.2-11.9,7.2c-6.8-3.1-5.9-9-3-14.6
		c9-17.8,17.8-35.7,27.1-53.3c6.9-13,15.5-13.2,22.3-0.1c12.5,24,24,48.4,36,72.6c6.9,14,13.8,28.1,20.9,42c1.6,3.2,2.5,8,7.2,7.8
		c4.6-0.2,5.1-5.1,6.8-8.3c7.2-13.9,13.7-28.2,21.1-42c6.8-12.7,15.1-12.9,21.5-0.3c21.9,43.2,43.4,86.5,65,129.9
		c3.3,6.6,3.7,13.7-2.8,18c-8.6,5.7-5.7,11.8-2.5,18.3c5.4,11.1,11.3,21.9,16.5,33.1c3.8,8.2,5.3,16.6-3,23.3c-5,4-3.3,8.1-1,12.6
		c6,11.8,12.3,23.6,17.7,35.7c6.1,13.6,2.5,21.7-11.5,26.7c-14.3,5.2-28.8,9.8-44,11.7c-9.8,1.3-14.3,5.8-13,16
		c0.4,3.8,0.3,7.6-0.3,11.3c-0.4,3.5-3.2,6.2-6.7,6.4c-3.8,0.4-6.4-1.8-7.5-5.3c-0.9-3.1-1.8-6.6-1.5-9.7
		c1.4-11.4-3.6-14.1-14.6-14.5c-13.5-0.5-18.4,3.2-18.2,17.1c0.4,18.9-0.7,38-2.4,56.9c-1,11.2,3.3,14.8,13.6,13.5
		c1.9-0.2,3.8-0.2,5.7-0.3c18.8-1.1,18.8-1.1,17.8-20.2c-0.2-3.3-0.2-6.6,0.1-9.9c0.4-3.7,2.5-6,6.5-6.3c3.9-0.2,6.6,1.5,7.4,5.2
		c1,4.6,1.7,9.3,2,14.1c0.7,10.8,6.2,16.8,16.9,17.3c20,0.9,28.9,13.7,34.2,30.9c3.2,10.4,0.5,15.3-10.9,15.2
		c-20.4-0.3-40.9-0.1-61.3-0.1c-103.1,0-206.3,0-309.4,0c-21,0-22.6-2.6-15-22c6-15.3,16.9-23.3,33.4-24.6
		c17.7-1.4,19.9-4,20.5-21.8c0.5-13.3,0.8-26.6,1.1-39.9c0.2-7.6,1.1-15.3-8.3-19.1c-3.9-1.6-5-5.9-2.9-9.8c2.4-4.3,7-4.9,11.3-4.2
		c14.2,2.1,28.4,2.1,42.7,1.7C138.2,404.6,156.5,400.4,173.7,391 M332.7,113.6c-8,15.6-14.5,29.2-21.7,42.4
		c-4.9,9.1-8,17.8-3.4,28.3c3.1,7-0.3,13.9-6.8,16.8c-8.6,3.7-6.9,8.4-3.8,14.5c7.5,14.8,15.1,29.5,22.3,44.5
		c4.2,8.7,8.3,18.6-2.6,25.2c-8.4,5.1-6.1,10-2.8,16.4c7.2,13.9,14.4,27.7,21,41.9c7.6,16.3,4.5,24.3-12.5,30.8
		c-12.6,4.8-25.7,8.3-38.9,12.5c1.1,1.6,1.5,2.8,2.2,2.9c43.3,9.4,85.8,5.9,127.6-8.1c6.6-2.2,5.6-5.6,2.9-10.7
		c-7.5-14.2-14.5-28.8-21.7-43.2c-3.3-6.6-4.6-13.1,4.2-16.2c8.4-2.9,6.2-7.7,3.4-13.2c-7.3-14.4-14.6-28.8-21.7-43.2
		c-2.6-5.3-5.5-12,1.8-14.7c12.9-4.8,9-11.5,4.2-19.5c-2.9-4.9-5-10.2-7.5-15.3C363.8,175.6,348.8,145.6,332.7,113.6 M217.7,529.6
		L217.7,529.6c54.6,0.1,109.3,0.2,163.9-0.1c5.3,0,15,4.3,15.4-4c0.4-8.8-9.2-10.5-17.2-10.8c-1.9-0.1-3.8,0-5.7,0
		c-103.6,0-207.2,0-310.7,0.1c-4.2,0-8.7-0.3-12.7,0.9c-4.8,1.5-11.7,3.2-11.1,9.3c0.7,7.7,8.2,4.5,12.7,4.5
		C107.4,529.6,162.6,529.6,217.7,529.6 M254.8,442.8c0.6,0,1.3,0,1.9,0c0,6.2-0.1,12.3,0,18.5c0.1,6.2,0,12.4,0.8,18.4
		c1.6,13,10.6,20.2,23.4,19.5c13.2-0.7,18-8.7,18.2-20.7c0.3-12.3,0.7-24.6,0.8-36.9c0.3-32.5,0.3-32.5-31.5-38.5
		c-0.9-0.2-1.9-0.2-2.8-0.5c-7.7-1.9-11.5,0.2-11,9C255.2,421.9,254.8,432.4,254.8,442.8 M180,448.3h0.7c0-1.4,0-2.8,0-4.3
		c0.6-35.1,0.7-34.9-33.4-26.7c-7.7,1.9-11.2,5.3-10.8,13.6c0.8,16.1,1,32.1,1.1,48.2c0.1,12.1,3.7,20.1,17.8,20
		c15.1-0.1,23.5-6,24.5-19.6C180.5,469.1,180,458.7,180,448.3 M210.8,474.7L210.8,474.7c0-5.2-0.1-10.4,0.1-15.6
		c0.1-5.4,0.8-11.3,7.8-11.2c7.1,0.1,7.4,6.1,7.5,11.5c0.1,10,0.7,20-0.1,29.9c-0.7,10.3,5.4,10.3,12.6,10c10.6-0.5,4-7,3.7-11
		c-0.5-7.5-1.7-15.1-1.9-22.6c-0.6-21.3-0.8-42.7-1.2-64c-0.1-4.4,0-9-6.3-8.9c-5.6,0.1-6.9,3.7-6.8,8.6c0.1,7.6,0,15.2-0.5,22.7
		c-0.3,4.4-3.4,6.8-7.8,6.5c-3.5,0-6.4-2.8-6.5-6.4c-0.5-6.1-0.2-12.3-0.5-18.5c-0.3-5.2,2.4-12.7-7.1-12.2
		c-8.4,0.4-5.6,7.3-5.9,11.9c-1.9,27.9,1.1,55.9-3.7,83.7c-0.7,4.2-4.2,9.8,4.5,9.9c6.2,0.1,13,1.2,12.3-8.7
		C210.5,485.1,210.8,479.9,210.8,474.7 M103.4,499.1c20.4,0.1,19.9,0.1,18.5-18.7c-1.2-14.7-1.6-29.4-1.2-44c0.4-12-4.2-15-15.8-15
		c-11.7,0-13.1,5.1-13,14.6c0.3,15.6,1,31.5-1.1,46.9C89.1,495.9,90.7,502.4,103.4,499.1"/>
	<path id="Path_1253" class="st0" d="M228.4,307c-4.1-0.5-7.5-0.7-10.7-1.4c-4-0.9-7.1-3.2-6.9-7.7c0.2-4.3,3-7.1,7.3-7.5
		c17.4-1.8,34.9-3.5,52.4-5c3.8-0.3,8,0.3,8.6,5.4c0.7,5.8-2.7,9.3-7.8,10.2C256.7,303.3,242.1,305.1,228.4,307"/>
	<path id="Path_1254" class="st0" d="M198.5,199.8c5.7,0.4,11.4,0.7,17,1.3c5.4,0.6,11,1.9,10.7,8.8c-0.3,6.1-5.5,6.8-10.4,7.4
		c-11,1.3-21.7-1.1-32.5-2.3c-4.8-0.5-9.4-3.1-8.5-9.3c0.7-5.3,5.2-6.5,9.6-6.6c4.7-0.1,9.5,0.6,14.2,0.9
		C198.5,199.9,198.5,199.8,198.5,199.8"/>
	<path id="Path_1255" class="st0" d="M78.6,353.5c-6.5-1-13.9-0.1-13.9-9c0-6.8,5.2-8.2,10.9-7.6c5.9,0.6,13.1-0.2,13.3,8.8
		C89.1,353.2,83.3,353.2,78.6,353.5"/>
	<path id="Path_1256" class="st0" d="M355.7,336.8c-8.6,0-14.6,0-15.1-7c-0.5-6.8,5.2-8.4,10.5-9.1c7-1,14.1-1.8,21.2-2.4
		c4.9-0.4,8.3,1.8,9,7c0.6,4.7-2.5,7.2-6.4,8C367.5,334.9,360,336.1,355.7,336.8"/>
</g>
</svg>
