<?xml version="1.0" encoding="utf-8"?>
<!-- Generator: Adobe Illustrator 25.2.0, SVG Export Plug-In . SVG Version: 6.00 Build 0)  -->
<svg version="1.1" id="Vrstva_1" xmlns="http://www.w3.org/2000/svg" xmlns:xlink="http://www.w3.org/1999/xlink" x="0px" y="0px"
	 viewBox="0 0 495.8 494.4" style="enable-background:new 0 0 495.8 494.4;" xml:space="preserve">
<style type="text/css">
	.st0{fill:#FFFFFF;}
</style>
<g>
	<path id="Path_1233" class="st0" d="M254.8,278.2V240H285v-90.7h30.3V119h15v29.7h15.2V104h15.2v44.8h15v-29.7H391v29.8h30.2v120.9
		h15.1v90.6c0.5,0.2,0.9,0.5,1.4,0.7c1-1.1,1.8-2.4,2.5-3.7c8.2-20.4,16.4-40.9,24.6-61.3c0.8-1.9,1.6-3.8,2.5-6
		c4.6,1.8,9.1,3.6,14,5.5c-8.7,21.8-17.3,43.2-26,65.2h27.6c-1.2,15.1-5.8,28.3-15.6,39.4c-12,13.6-27.2,20.7-45.3,21.1
		c-12.9,0.3-25.8,0.1-38.9,0.1c-6,19.2-18.4,30.7-38.9,30c-18.9-0.6-30.4-11.9-35.8-29.9h-23.1v60.1h-227v-4.4
		c0-10.4-0.1-20.8,0.1-31.2c0.2-2.2-0.9-4.3-2.9-5.2c-28.3-16.9-42.5-42-42.5-75c0-62.4,37.1-113,96.6-131.2c6-1.9,4.3-7.3,6.5-10.2
		c-5.5-3.6-11-6.4-15.5-10.3c-3.6-3.1-5.1-8.8-9-11.3c-3.6-2.3-9.2-1.3-13.6-2.8c-11.7-4-19.5-15.3-19.7-27.9
		c-0.1-12.4,0-24.9,0-36.8c-3.7-2-7.6-3.2-10.4-5.7c-7.1-6.2-7.3-30.2-0.1-36.5c3-2.6,7.3-3.9,12-6.2C64,63.4,77.3,42.7,96.9,29.2
		c16.2-11.4,34.4-16.6,54.2-16.4c36.5,0.4,78.1,25.6,87.7,75.2c12.2,2.1,16.1,6.8,16.1,19.5c0,2.8,0,5.7,0,8.5
		c0,10.8-4.1,15.7-15.1,18.1c0,11.7,0,23.5,0,35.3c0,19.1-11.6,31.3-30.7,32.5c-1.2,0.1-3,0.6-3.5,1.5c-5.2,9.8-13.2,16.2-23.5,19.6
		c0.9,6.7,3.2,10.7,10.4,12.8c22.5,6.7,41.4,19.5,57.3,36.8C251.2,274.2,252.6,275.8,254.8,278.2 M111.1,249.4
		c-6.4,2.7-12.5,4.8-18.1,7.8c-44.1,24.1-65.3,61.6-65,111.6c0.2,28.2,17.8,53.4,44.3,63.3c17.5,6.7,35.7,3.4,53.8,4.4v-16.7
		c-9.2-2.1-18.2-3.9-27.2-6.1c-21.5-5.3-37-21.7-39.7-43.6c-1.4-10.9-0.7-22-0.9-33c0-2.1,0-4.3,0-6.3h15.2c0,11.1-0.2,21.9,0,32.8
		c0.5,20.1,18.5,37.6,37.6,36.6V249.4z M253.3,361.1l1.4-0.5c0.1-1.5,0.2-3,0.2-4.5c0-15.6,0.1-31.2-0.1-46.8
		c-0.1-2.6-0.8-5.2-2.1-7.5c-12.3-20.7-30.8-37.1-52.8-46.9c-4.1-1.9-8.4-3.3-12.9-5.1v156c14.4,2.8,22.3,10.8,22.5,22.7
		c0.2,12.2-7.4,20.2-22.4,23.6v14.3h37.5c0-20.7,0.1-41-0.1-61.3c-0.1-2.6-0.9-5.1-2.5-7.2c-8.3-10.8-12.4-23.1-13.6-36.9h27.7
		l-26.1-65.4c4.9-2,9.4-3.7,14-5.6c2.6,6.5,5,12.5,7.4,18.5c2.4,6,4.8,12,7.2,17.9s4.6,12,7.2,17.9
		C248.4,349.9,249.8,356.1,253.3,361.1 M300.7,164.4v75.5h60.2v29.8H406V164.4L300.7,164.4z M103.7,134.1c0,17.5,0,34.5,0,51.5
		c0,14.4,9.6,23.9,24.1,23.9c14.2,0,28.4,0,42.6,0c14.5-0.1,24-9.5,24.1-23.9c0.1-15.9,0-31.8,0-47.7c0-1.2-0.2-2.4-0.3-3.8H103.7z
		 M345.4,255.3h-75v105.3h75V255.3z M227.5,376.1c4,14,18.4,27.3,33.8,28.9c15.3,1.6,30.8,1,46.2,1.1c1,0,2.4-1.6,3.1-2.8
		c4.6-7.9,11.3-12.1,20.5-12.1c9.8-0.1,19.5-0.1,29.3,0c9.1,0.1,16.1,4.2,20.3,12.2c1.3,2.4,2.6,3,5.1,2.9c12-0.1,23.9,0.2,35.9-0.1
		c15.5-0.4,27.9-7,37-19.5c2.2-3.1,3.8-6.6,6-10.5L227.5,376.1z M171.7,391.8v-4.5c0-13.5-1-27.2,0.2-40.6
		c1.4-15-2.4-27.3-13.4-37.6c-3.6-3.3-6.3-7.6-9.6-11.7c-7.1,8.9-13.8,17-20.2,25.4c-1.5,1.9-2.3,4.3-2.4,6.7
		c-0.2,16.2-0.1,32.5-0.1,48.7v25.7c3.4,2.2,5.9,1.6,8.1-1.2c7.1-9,16.5-12.8,27.9-11.5C165.3,391.4,168.3,391.5,171.7,391.8
		 M361.2,360.4h59.9v-75h-59.9V360.4z M239.6,104H58.6v14.6h180.9V104z M126.1,88.4V32c-25.7,6.5-48.2,33.2-50.4,56.4H126.1z
		 M171.9,88.3h50.7c-2-23.4-28.6-52.8-50.7-56.2L171.9,88.3z M240.1,414.7v51.6h29.7v-43.7C259.6,419.9,249.9,417.3,240.1,414.7
		 M149,271.5c5.6-8.4,10.2-16.5,16-23.6c5.3-6.5,6.3-12.8,2.3-20c-0.1-0.1-0.1-0.4-0.2-0.4c-1.3-0.9-2.6-2.6-4-2.7
		c-6.9-0.3-13.8-0.1-20.7-0.1c-10.7,0-10.8,0-14.1,10.4c-0.5,1.6-0.8,3.9,0,5.2C134.9,250.5,141.8,260.6,149,271.5 M141.5,436.4
		c15,0,29.6,0,44.2,0c5.2,0,8.5-3,8.6-7.4c0.1-4.6-3.3-7.6-8.8-7.7c-4.5-0.1-9,0-13.5,0c-1.6-15-2.6-16-16.5-15.1
		c-0.2,0-0.3,0-0.5,0c-3.5,0.3-13.5,8.7-13.6,11.9C141.3,424.1,141.5,430,141.5,436.4 M345.7,406.2H332c-0.3,0-0.6,0-0.9,0
		c-5.2,0.3-8.1,3.3-8.1,8.4c0.1,11.6,10.5,21.7,22.4,21.8c12.2,0.1,22.8-10,22.9-21.7c0.1-5.1-2.8-8.3-8-8.5
		C355.5,406.1,350.6,406.2,345.7,406.2 M141.7,88.2h14.6V28.4h-14.6V88.2z M126.6,466.4h44.8v-14.6h-44.8V466.4z M73.8,449.6v16.7
		H111v-14C98.4,451.4,86.1,450.5,73.8,449.6 M209.8,156.8v29.9c8.8-0.7,14.8-6.8,14.8-14.9C224.7,163.6,218.6,157.4,209.8,156.8
		 M88.3,156.8c-8.9,0.4-15.1,6.8-14.9,15.2c0.1,8.1,6.7,14.5,14.8,14.4c0,0,0,0,0.1,0V156.8z M126.6,265.1v36
		c4.8-6,8.9-11.1,13.1-16.4C135.5,278.4,131.4,272.3,126.6,265.1 M171.7,266.6c-0.3-0.1-0.6-0.3-0.8-0.4l-12.4,18.6
		c4.3,5.4,8.5,10.5,13.2,16.4L171.7,266.6z M224.3,144.8v-10.7h-14.5v6.7C214.8,142.2,219.5,143.5,224.3,144.8 M73.5,144.8
		c5.2-1.4,9.9-2.7,14.7-4.1v-6.6H73.5V144.8z"/>
	<rect id="Rectangle_688" x="376.3" y="209.8" class="st0" width="14.6" height="14.6"/>
	<rect id="Rectangle_689" x="345.8" y="209.9" class="st0" width="14.7" height="14.4"/>
	<rect id="Rectangle_690" x="315.7" y="209.8" class="st0" width="14.5" height="14.6"/>
	<rect id="Rectangle_691" x="376.1" y="179.7" class="st0" width="14.7" height="14.4"/>
	<rect id="Rectangle_692" x="346" y="179.5" class="st0" width="14.5" height="14.6"/>
	<rect id="Rectangle_693" x="315.8" y="179.6" class="st0" width="14.5" height="14.6"/>
	<rect id="Rectangle_694" x="376.2" y="240.1" class="st0" width="14.6" height="14.5"/>
	<rect id="Rectangle_695" x="315.8" y="270.3" class="st0" width="14.5" height="75"/>
	<rect id="Rectangle_696" x="285.4" y="270.4" class="st0" width="14.6" height="75"/>
	<rect id="Rectangle_697" x="376.2" y="300.6" class="st0" width="29.7" height="14.5"/>
	<rect id="Rectangle_698" x="376.3" y="330.8" class="st0" width="29.7" height="14.6"/>
</g>
</svg>
