<?xml version="1.0" encoding="utf-8"?>
<!-- Generator: Adobe Illustrator 25.2.0, SVG Export Plug-In . SVG Version: 6.00 Build 0)  -->
<svg version="1.1" id="Vrstva_1" xmlns="http://www.w3.org/2000/svg" xmlns:xlink="http://www.w3.org/1999/xlink" x="0px" y="0px"
	 viewBox="0 0 134 147.7" style="enable-background:new 0 0 134 147.7;" xml:space="preserve">
<style type="text/css">
	.st0{fill:#010056;}
</style>
<g>
	<path id="Path_446" class="st0" d="M24.9,121.1h19.5v-15.6H24.9V121.1z M87.2,136.8h13.6v-24.5H87.2V136.8z M10.4,136.8h48.5v-10.2
		H10.4V136.8z M59,121.1v-21c0-1.2,0-2.3,0-3.5c-0.1-1.5,1.1-2.7,2.5-2.8h0.1c1.5,0,2.6,1.1,2.7,2.6c0,0.1,0,0.1,0,0.2
		c0,0.4,0,0.8,0,1.2v39h5.9v-1.1c0-4.7,0-9.3,0-14c0-2.1,1.7-3.5,3.5-2.8c1.2,0.4,2,1.7,1.8,2.9c0,4.5,0,9.1,0,13.6v1.4h6.2v-26.4
		c0-2.6,0.9-3.5,3.5-3.5c5.8,0,11.6,0,17.4,0c2.8,0,3.6,0.9,3.6,3.6c0,8.3,0,16.6,0,24.9v1.5h6.2V123c0-0.4,0-0.9,0-1.3
		c-0.1-1.5,1-2.8,2.4-2.9c0.1,0,0.1,0,0.2,0c1.4-0.1,2.7,1.1,2.7,2.5c0,0.1,0,0.2,0,0.3c0,4.6,0,9.3,0,13.9v1.4h5.9v-1.3
		c0-33.4,0-66.9,0-100.4c0.1-0.8-0.5-1.6-1.3-1.8c-18.9-7-37.7-13.9-56.5-21c-0.5-0.2-0.9-0.3-1.5-0.5v59.2c0,0.5,0,1,0,1.5
		c-0.2,1.4-1.4,2.4-2.8,2.3c-1.6-0.1-2.5-1.2-2.5-3.2c0-7.8,0-15.6,0-23.4v-1.5c-0.6,0.2-1,0.4-1.4,0.5c-15.3,6.8-30.6,13.6-46,20.4
		c-0.9,0.2-1.4,1.1-1.3,2c0,16.6,0,33.2,0,49.8v1.4h9.1v-17.7c0-2.3,1-3.3,3.4-3.3c7.9,0,15.8,0,23.6,0c2.5,0,3.4,0.9,3.4,3.4
		c0,5.4,0,10.9,0,16.3v1.4L59,121.1L59,121.1z M6.9,142.2c-1.3-0.7-2-2.2-1.9-3.6c0-23.7,0-47.3,0-71c-0.2-1.7,0.8-3.2,2.5-3.8
		C24.2,56.5,40.9,49,57.7,41.6c0.9-0.3,1.5-1.1,1.3-2.1c0-10.2,0-20.4,0-30.6c0-3,1.5-4.1,4.4-3c21,7.8,42,15.6,63,23.3
		c2.1,0.8,2.6,1.4,2.6,3.8c0,35.2,0,70.4,0,105.6c0.2,1.5-0.6,2.9-1.9,3.7H6.9V142.2z"/>
	<path id="Path_447" class="st0" d="M44.4,87V70.6c-2.7-0.1-5.3-0.2-7.9,1.1c-3.1,1.6-6.5,2.8-9.7,4.1c-1.4,0.6-2.1,1.6-2.1,3.1v8
		L44.4,87L44.4,87z M34.6,92.4c-3.9,0-7.8,0-11.8,0c-2.4,0-3.3-0.9-3.3-3.3c0-4.5,0-9.1,0-13.6c-0.1-1.4,0.8-2.7,2.1-3.2
		c5.2-2.2,10.4-4.4,15.6-6.5c0.7-0.3,1.3-0.4,2.1-0.4c2.5,0,5.1,0,7.6,0c2,0,3,1,3,3.1c0,7,0,14,0,21c0,2.1-1,3.1-3.2,3.1
		C42.7,92.4,38.6,92.4,34.6,92.4"/>
	<path id="Path_448" class="st0" d="M75.7,36.2V58h9.2V39.7L75.7,36.2 M70.2,47V33.8c0-2.2,1-3.3,3.2-3.2c1.5,0,3,0.3,4.4,0.7
		c3.4,1.1,6.8,2.5,10.1,3.7c1.9,0.7,2.3,1.4,2.3,3.4c0,7.2,0,14.5,0,21.8c0,2.3-0.9,3.3-3.2,3.3c-4.5,0-9.1,0-13.6,0
		c-2.3,0-3.2-1-3.2-3.3C70.2,55.8,70.2,51.4,70.2,47"/>
	<path id="Path_449" class="st0" d="M75.7,92.7h9.2V75.9h-9.2V92.7z M90.3,84.4c0,3.5,0,7,0,10.6c0,2.2-1,3.2-3.2,3.2
		c-4.6,0-9.2,0-13.8,0c-2.1,0-3.1-1-3.1-3.2c0-7.1,0-14.3,0-21.4c0-2.1,1-3,3-3c4.6,0,9.3,0,13.9,0c2.2,0,3.1,1,3.1,3.1
		C90.3,77.2,90.3,80.8,90.3,84.4"/>
	<path id="Path_450" class="st0" d="M103.2,92.7h9.2V76h-9.2V92.7z M97.7,84.3c0-3.5,0-7,0-10.5c0-2.2,0.9-3.2,3.1-3.2
		c4.6,0,9.2,0,13.7,0c2.2,0,3.2,1,3.2,3.2c0,7.1,0,14.1,0,21.2c0,2.2-1,3.2-3.2,3.2c-4.5,0-9.1,0-13.6,0c-2.3,0-3.2-1-3.2-3.3
		C97.7,91.3,97.7,87.8,97.7,84.3"/>
	<path id="Path_451" class="st0" d="M103.2,58.1h9.3V52c0-1.4-0.7-2.3-2-2.8c-2.4-0.9-4.8-1.8-7.3-2.7V58.1L103.2,58.1z M97.7,51.7
		c0-2.9,0-5.8,0-8.7c0-2.4,1.6-3.6,3.9-2.8c4.7,1.7,9.4,3.5,14.1,5.2c1.3,0.4,2.1,1.6,2,3c0,4,0,8.1,0,12.1c0.2,1.5-0.8,2.8-2.3,3
		c-0.2,0-0.5,0-0.7,0c-4.7,0-9.4,0-14.2,0c-2,0-2.9-1-2.9-3C97.7,57.5,97.7,54.6,97.7,51.7"/>
	<path id="Path_452" class="st0" d="M61.7,81.8c1.4,0,2.6,1.2,2.6,2.7s-1.2,2.7-2.7,2.7C60.2,87.1,59,86,59,84.5
		S60.2,81.8,61.7,81.8L61.7,81.8"/>
</g>
</svg>
