<?xml version="1.0" encoding="utf-8"?>
<!-- Generator: Adobe Illustrator 25.2.0, SVG Export Plug-In . SVG Version: 6.00 Build 0)  -->
<svg version="1.1" id="Vrstva_1" xmlns="http://www.w3.org/2000/svg" xmlns:xlink="http://www.w3.org/1999/xlink" x="0px" y="0px"
	 viewBox="0 0 443.3 442.6" style="enable-background:new 0 0 443.3 442.6;" xml:space="preserve">
<style type="text/css">
	.st0{fill:#09CE02;}
</style>
<path id="Cesta_1" class="st0" d="M147.4,121.4c-6.6,0-12.2,0.1-17.7,0c-7.1-0.1-10.1-5.2-6.3-11.2c19.4-30.3,38.9-60.6,58.4-90.8
	c3.7-5.7,9.2-5.6,12.9,0.1c19.4,30.1,38.8,60.3,58,90.6c1.3,2.3,1.6,5.1,1,7.6c-0.8,3.1-4,3.8-7.1,3.7c-5.5-0.1-11.1,0-17.5,0
	c5.3,6.4,10.1,12.2,15.2,18.3c5.9-5.1,11.8-10.1,17.6-15.1c5-4.3,7.3-4.4,12.2-0.1c14.5,12.5,28.9,25,43.4,37.5
	c1,0.9,2.1,1.6,3.7,2.9c0-4.7,0.1-8.7-0.1-12.6c-0.1-1-1.1-2.1-2-2.7c-15-11.5-14.9-31.8,0.2-43.3c1.2-0.9,1.8-2.6,2.6-3.9
	c0-0.1,0.1-0.3,0.1-0.4c1.4-10.3,11.2-14.1,16.5-21.3c5.9-8.2,13.4-12.5,23.5-12.5c1.2-0.1,2.4-0.6,3.3-1.3
	c6.7-4.9,15.3-6.5,23.3-4.2c1.7,0.4,3.5,0.4,5.2,0c12.9-3.3,25.8,2.4,31.4,14.2c5.5,11.6,2.1,24.9-8.5,33c-1.2,0.8-2.2,2-2.7,3.4
	c-3.5,14-12.8,20.7-27,21.9c-1.9,6.2-5.9,11.7-11.2,15.4c-0.8,0.8-1.3,2-1.2,3.1c-0.1,18.4-0.1,36.9,0,55.3c0.2,1.7,1,3.3,2.4,4.4
	c13.2,11.6,26.5,23.1,39.9,34.6c2.8,2.4,5.2,4.8,3.8,8.8c-1.5,4.2-5,4.6-8.8,4.6c-10.1-0.1-20.1,0-30.4,0v20c2.1,0,4.3-0.1,6.4,0
	c4,0.2,6.5,2.6,6.6,6.6c0.1,8.9,0.1,17.7,0,26.6c-0.1,3.9-2.6,6.4-6.6,6.6c-2,0.1-4.1,0-6.4,0v13.3c1.9,0,3.7,0,5.4,0
	c5.1,0.1,7.6,2.5,7.6,7.8c0.1,8,0.1,16.1,0,24.1c0,5.6-2.4,8-8.2,8c-1.5,0-3,0-4.8,0v13.3c6.2,0,12.4,0,18.6,0
	c18.5,0.1,31.4,16.3,27.5,34.4c-0.5,3-3,5.3-6,5.4c-1.2,0.1-2.5,0.1-3.7,0.1c-130.8,0-261.5,0-392.3,0c-0.8,0-1.8,0.3-2.5-0.1
	c-2.3-1.1-5.1-2-6.7-3.8c-2-2.4-0.7-5.2,1.1-7.6c8.7-11.1,17.4-22.3,26-33.4c18.4-23.7,36.9-47.5,55.3-71.2c0.7-1,1.4-2,2.5-3.4
	c-1.6-0.1-2.8-0.2-4-0.2c-13.4,0-26.9,0-40.3,0c-3.3,0-6-0.7-7.6-3.9c-1.6-3.3-0.1-5.8,1.9-8.3c24-29.5,48.1-59.1,72.1-88.7
	c1.3-1.6,2.6-3.2,4.5-5.5h-21.8c-3.2,0-6.4-0.1-9.6,0s-5.7-0.9-7.2-3.9c-1.5-3.1-0.4-5.6,1.6-8c11.2-13.4,22.4-26.8,33.5-40.2
	C131.8,140.2,139.3,131.1,147.4,121.4 M235.9,108.1L188.2,34c-16.1,25-31.7,49.3-47.6,74.1c6.9,0,12.9,0.1,18.8,0
	c3.5-0.1,6.7,0.5,8.3,4.1c1.6,3.5-0.3,6.1-2.4,8.6c-17.7,21.3-35.5,42.6-53.2,63.9c-0.7,0.9-1.4,1.9-2.4,3.3c10.3,0,20,0.1,29.7,0
	c3.5,0,6.7,0.4,8.3,4c1.6,3.5-0.2,6.1-2.3,8.6c-19.1,23.5-38.3,47.1-57.4,70.6c-6.1,7.5-12.1,15-18.8,23.2h4.9c12.9,0,25.8,0,38.6,0
	c3.3,0,6.4,0.3,8.2,3.7c1.9,3.6,0,6.3-2.1,9C92,341.4,65.3,375.9,38.5,410.3c-0.8,1-1.5,2.1-2.4,3.5h72.1
	c2.3-17.7,12.3-26.4,29.9-26.4c5.5,0,11,0,16.6,0v-13.3c-2.2,0-4.1,0.1-6,0c-4.4-0.2-6.9-2.7-7-7.1c-0.1-8.6-0.1-17.2,0-25.8
	c0.1-4.4,2.6-6.8,7.1-7c2-0.1,4,0,6,0v-13.3c-1.8,0-3.5,0-5.1,0c-5.5-0.1-7.9-2.4-8-7.8c-0.1-8-0.1-16.1,0-24.1c0-5.5,2.4-7.9,7.8-8
	c1.7,0,3.5,0,5.2,0v-20c-10.4,0-20.5-0.1-30.6,0c-3.7,0-7-0.5-8.5-4.5s0.9-6.4,3.7-8.8c36.9-31.8,73.8-63.7,110.7-95.6
	c1.4-1.2,2.8-2.5,4.3-3.8c-8-9.6-15.7-18.9-23.5-28.1c-2.1-2.5-3.4-5-1.9-8.3c1.6-3.2,4.3-3.9,7.6-3.9
	C222.7,108.2,228.9,108.1,235.9,108.1 M274.7,334v-4.8c0-17.9,0-35.7,0-53.6c0-4.9,2.3-7.8,6.6-7.8c22.2-0.1,44.3-0.1,66.5,0
	c4,0,6.4,2.6,6.6,6.6c0.1,2.1,0,4.3,0,6.5h13.3c0-7.4,0.1-14.5-0.1-21.7c0-1.1-1.1-2.4-2.1-3.2c-4.9-4.1-9.9-8-14.7-12.2
	c-2-1.8-4.7-2.8-7.5-2.7c-45.2,0.1-90.3,0.5-135.5-0.2c-13.5-0.2-25,1.8-34.1,12.2c-1.2,1.3-2.8,2.2-4.1,3.5
	c-0.7,0.6-1.2,1.4-1.4,2.4c-0.1,7.3-0.1,14.6-0.1,21.9h13.3c0-1.3,0-2.2,0-3.2c0.1-8,1.8-9.8,9.7-9.8c20.4,0,40.7,0,61.1,0
	c6.8,0,9,2.1,9,8.9c0,14.7,0,29.4,0,44V334H274.7z M195.1,387.1h52.7V281.3h-52.7V387.1z M396.5,247.8
	c-43.4-37.5-85.9-74.2-128.4-110.9c-42.8,36.9-85.1,73.5-128.4,110.9c6,0,10.8,0.3,15.6-0.1c2.5-0.1,5-1,7-2.4
	c33.1-26.7,66.1-53.5,99.1-80.4c5.9-4.8,7.5-4.9,13.3-0.1c33.2,27,66.4,53.9,99.7,80.9c1.3,1.1,3,1.8,4.7,2
	C384.3,247.9,389.7,247.8,396.5,247.8 M414.3,88.8c-0.1-10.3-9.6-16.2-18.7-12.9c-2.7,1-5.8,1.1-8.6,0.3c-6.2-2.3-11.1-1.2-16,3.1
	c-2.1,1.6-4.7,2.4-7.3,2.3c-6.7-0.5-12.2,2-14.7,8.3c-1.1,2.9-3.3,5.1-6.2,6.1c-5.1,2-8.1,6.1-8.1,11.5c0,4.6-2,7-6,8.8
	c-6.5,3.1-9.3,10.9-6.2,17.5c2.1,4.4,6.5,7.3,11.4,7.5c9.3,0.2,18.5,0.2,27.8,0c6.8-0.2,12.3-5.6,12.7-12.5c0.5-7.6,3-9.5,10.3-7.9
	c8.2,1.8,16.1-3.9,16.2-12.2c0.1-4.6,1.9-7.1,5.9-8.9C411.3,98,414.2,93.7,414.3,88.8 M122,413.8h292.2c-0.5-8.4-5.8-13.1-14.7-13.1
	c-87.6,0-175.3,0-262.9,0c-0.8,0-1.7,0-2.5,0C128.2,401.1,121.6,406.5,122,413.8 M380.9,347.8H261.7v12.8h119.2L380.9,347.8z
	 M330.9,227.7c-5.2-4.2-9.3-7.8-13.8-11.1c-1.6-1.2-3.5-1.9-5.5-2c-29.1-0.1-58.1-0.1-87.2-0.1c-1.2,0-2.7-0.1-3.6,0.5
	c-5.1,3.9-10,8-15.7,12.6L330.9,227.7z M261.6,387.2h105.9v-12.8H261.6V387.2z M307.6,281.4h-19.4v52.7h19.4V281.4z M321.5,334h19.4
	v-52.8h-19.4V334z M360.8,199.4v-44.5h-26.3c0,6.9,0,13.7,0,20.4c0,0.8,0.3,1.6,0.9,2.2C343.7,184.7,352.1,191.9,360.8,199.4
	 M298.2,201.1c-10.1-8.2-19.2-15.7-28.5-23.1c-0.8-0.6-3.1-0.2-4.1,0.6c-8.7,6.8-17.2,13.9-25.8,20.9c-0.5,0.5-0.9,1-1.2,1.6H298.2z
	 M155.2,307.3h26.2v-12.8h-26.2V307.3z M380.9,294.6h-26.1v12.9h26.1V294.6z M181.4,347.8h-26.1v12.8h26.1V347.8z M181.4,321.2
	h-12.8V334h12.8V321.2z M367.6,321.2h-12.8v12.9h12.8V321.2z M181.3,374.5h-12.8v12.8h12.8V374.5z"/>
</svg>
