<?xml version="1.0" encoding="utf-8"?>
<!-- Generator: Adobe Illustrator 25.2.0, SVG Export Plug-In . SVG Version: 6.00 Build 0)  -->
<svg version="1.1" id="Vrstva_1" xmlns="http://www.w3.org/2000/svg" xmlns:xlink="http://www.w3.org/1999/xlink" x="0px" y="0px"
	 viewBox="0 0 426.7 427.3" style="enable-background:new 0 0 426.7 427.3;" xml:space="preserve">
<style type="text/css">
	.st0{fill:#09CE02;}
</style>
<g>
	<path id="Path_1243" class="st0" d="M382.2,417H36.5v-13.2h12.9v-39.3H23.7v-39.2h25.6v-39.4H23.8v-39.4h25.8c0-4.5-0.1-8.6,0-12.7
		c0-1.3,0.1-2.9,0.9-3.7c8.3-8.5,16.7-16.8,25.3-25.4c8.6,8.6,16.9,16.8,25.1,25.3c0.8,0.9,1,2.6,1.1,4c0.1,4.2,0,8.3,0,12.4h13
		c0-16.8,0-33.3,0-49.8c0-0.8-0.1-1.5-0.3-2.3c-3.7,0-7.2,0.1-10.8,0c-5.8-0.2-11.7,0.1-17.4-0.9c-23.5-4-40.6-28.1-36.5-51.2
		c1-0.1,2-0.2,3-0.2c9.8,0,19.6-0.1,29.3,0c10.9,0,21.5,4,29.8,11.2c0.7,0.6,1.5,1.2,2.5,2V95.9c-6.8,0-13.2,0.1-19.7,0
		c-15.8-0.3-28.2-7-37.3-19.8c-6.8-9.6-9-20.5-7.8-32.5c8.1,0,15.9-0.2,23.7,0.1c6.5,0.2,12.9,0.7,19.3,1.5c2.3,0.3,3.6,0,5-1.8
		c6.9-8.8,14-17.6,21-26.3c0.9-1.1,1.8-2.1,2.8-3.3c1.3,1.5,2.2,2.6,3.1,3.8c6.9,8.6,13.7,17.2,20.6,25.7c0.8,1,2.2,2.2,3.3,2.2
		c11-0.4,22.1-1.2,33.1-1.7c3.8-0.2,7.6,0,11.4,0c0,4.6,0.6,8.9-0.1,13c-3.8,23.7-22.3,39.3-46.3,39.4c-6,0-12.1,0-18.3,0v26.6
		c7.8-7.4,16.4-11.9,26.4-12.9c7.2-0.7,14.5-0.4,21.8-0.4c5.5,0,11,0,16.7,0c0,3.8,0.2,7-0.1,10.3c-0.2,2.5-0.6,5-1.3,7.4
		c-5.1,20.3-23.3,34.6-44.3,34.7c-6.4,0.1-12.9,0-19.2,0V217c0.4,0.2,0.7,0.5,1.1,0.7c3.8-4.2,7.6-8.3,11.6-12.6
		c8.5,8.5,16.7,16.6,24.9,24.9c0.9,0.9,1.1,2.6,1.2,3.9c0.1,4.2,0.1,8.4,0.1,12.6h13.2c0.1-1.7,0.1-3.3,0-5
		c-1.3-7.7,1.6-13.2,7.5-18.2c6.6-5.6,12.4-12.2,18.8-18.6c8.6,8.6,16.9,16.9,25.1,25.4c0.8,0.9,1,2.6,1,4c0.1,4.2,0,8.3,0,12.9
		h25.9v39.3h-25.6v29.5c0.3-0.2,0.6-0.4,0.9-0.6c11.6-14.1,26.1-19,43.9-13.9c1.1,0.3,2.9-0.6,3.8-1.5c6.2-7,14.6-11.6,23.8-13.1
		c1.9-0.3,3.8-0.5,5.6-0.7v-69.6c-1.4,1.3-2.3,2.2-3.3,3.1c-21,19.8-54.1,18.8-73.9-2.2s-18.8-54.1,2.2-73.9c1-0.9,2-1.8,3-2.6
		c2.4-1.9,2.7-3.4,1.9-6.3c-5.8-21.1,4.1-43.3,23.7-53c1-0.5,2.1-1.1,3.1-1.6c-6-24.7,0-45.3,21-59.7c17.7-12.1,37-12.8,55.3-1.7
		c23.2,14.1,30,35.5,23.8,61.4c0.4,0.3,0.7,0.5,1.1,0.7c22,10.8,31.6,31.8,25.2,55.4c-0.7,2.4,0.4,3.3,1.9,4.5
		c8.5,6.6,14.7,15.8,17.7,26.1c0.8,2.9,1.5,5.9,2.2,8.8v12.7c-0.3,0.6-0.5,1.2-0.7,1.8c-3.9,20.6-15.7,34.8-35.5,41.3
		s-37.5,1.8-52.7-12.3c-0.7-0.7-1.5-1.2-2.4-2c-0.2,0.5-0.3,1-0.4,1.5c0,22.6-0.1,45.2,0.1,67.8c0,1.2,1.3,2.6,2.3,3.4
		c4.8,3.7,9.6,7.3,14.5,10.7c1.1,0.8,2.6,1.2,4,1c27.3-7.6,51.6,11.3,51.1,39.7c0,1.5,1.2,3.1,2.2,4.3c4.1,4.7,9,8.9,12.5,14
		c2.5,3.6,3.4,8.4,4.9,12.7v11.1c-0.3,0.7-0.5,1.4-0.7,2.2c-3.3,15-12.2,24.9-26.6,30C386.8,415.9,384.5,416.4,382.2,417
		 M207.1,377.5c-0.3-1.7-0.6-3.2-0.8-4.6c-2.6-14.2-16.2-23.6-30.4-21s-23.6,16.2-21,30.4c0.1,0.5,0.2,1,0.3,1.5
		c3.1,12.5,13.3,20,27.3,20c64.2,0,128.4,0,192.6,0c1.1,0,2.1,0,3.2-0.1c12.3-0.7,22.4-9.5,24.5-21.1c2.3-12.6-4.1-24.2-16-29.2
		c-1.9-0.8-3.8-1.6-5.9-2.5c2.8-8.1,4-16,0.2-23.8c-3.4-7.5-10.3-12.8-18.3-14.4c-6.5-1.5-13.4-0.3-19,3.3
		c-8.1,5.1-12,12.7-12.6,22.1h-13c0.3-11.9,5.1-21.6,13.6-29.6c-7.4-8.1-16.1-11.3-26.3-8.7c-12.6,3.2-18.9,12.2-20.2,25h-13
		c0.5-4,1-7.7,1.4-11.3c-12.1-3.8-24.8,1.2-30.5,12.1c5.8,7.3,9.6,15.5,9.3,25.4h-12.6c-2.3-15.2-10.5-24-23.5-25.6
		c-10.7-1.3-21.8,4.7-25.6,13.9c19.9,8.8,31.3,24,28.6,38.1L207.1,377.5z M311.6,153.9c0-26.6,0-52.6-0.1-78.6
		c0-1.2-1.3-2.8-2.4-3.6c-4.6-3.3-9.4-6.4-14.2-9.6c2.5-3.7,4.9-7.2,7.3-10.8c7.1,4.7,14,9.2,20.6,13.9c1,0.7,1.7,2.6,1.7,3.9
		c0.2,4.6,0.1,9.1,0.1,14.6c3.6-2.4,6.6-4.2,9.6-6.2c2.5,3.8,4.8,7.1,7.2,10.8c-4.9,3.3-9.7,6.4-14.3,9.7c-1,0.7-2.3,1.9-2.3,2.8
		c-0.2,8.8-0.1,17.6-0.1,27.4c7.8-6.2,14.9-11.8,22.2-17.6c2.8,3.5,5.4,6.8,8.1,10.2c-4.3,3.5-8.3,6.7-12.9,10.4
		c4.7,4.3,9,8.4,13.2,12.2l-9.6,9.9c-4.6-4.8-9-9.4-13.3-14c-5.6,2.8-8.5,6.5-7.9,13.1c0.7,8,0.2,16.1,0.2,24.2v5.2
		c1.8-1.2,3-1.8,4-2.5c8.6-5.7,17.2-11.4,25.7-17.2c1.5-1.3,3.7-1.4,5.4-0.4c6.8,3.6,13.7,6.9,20.5,10.3c2.1,1,4.1,2.1,6.3,3.3
		c-2.1,4.1-4,7.8-5.9,11.6c-7.1-3.6-13.7-6.9-20.3-10.1c-1.1-0.5-3-0.7-3.9-0.2c-9.6,6.2-19.1,12.6-28.6,19
		c4.9,14.4,20.1,24.7,36.1,24.7c21.7,0.1,39.3-17.4,39.3-39.1c0-4-0.6-8-1.8-11.9c-3.9-12.6-12.9-20.5-24.9-26
		c7.3-11.5,9.7-23.2,3.6-35.6c-6.2-12.6-17.3-17.5-30.8-19.3c1-2.1,1.8-3.7,2.7-5.3c4.8-8.9,6.8-18.4,4.4-28.3
		c-3.9-15.9-13.9-26.3-29.9-29.9c-15.7-3.4-29.2,1.4-39.1,14c-10,12.8-11.1,27-4.3,41.8c1.1,2.5,2.4,4.9,3.8,7.8
		c-13.6,1.7-24.6,6.7-30.7,19c-6.2,12.5-3.8,24.3,3.4,35.7c-2.7,1.5-5.1,2.7-7.3,4.1c-13.9,8.2-21.5,24.4-18.8,39.8
		c3.7,20.9,21.3,34.6,42.6,33c19.5-1.4,34.8-18.6,35.7-39.1c0.3-7.2-1.5-12.1-7.6-16.1c-6.4-4.3-12.1-9.6-18.6-14.9
		c-5.2,5.4-10.2,10.5-14.8,15.2c-3-3-6-5.9-9.4-9.2c5.1-4.8,10.4-9.7,15.8-14.7c-3.6-5.4-6.8-10.3-10.3-15.5
		c3.8-2.5,7.2-4.8,11.3-7.5C285.4,133.9,297.4,144.5,311.6,153.9 M75.8,222.9c-3.8,3.9-7,7.4-10.4,10.7c-1.9,1.6-2.9,4.1-2.7,6.5
		c0.1,53,0.1,106,0.1,158.9v4.5h26c0.1-0.8,0.2-1.3,0.2-1.8c0-54.4,0-108.9,0-163.3c0-1.3-0.5-2.5-1.3-3.5
		C83.9,231,80,227.2,75.8,222.9 M150.3,403.6c-0.1-0.5,0-0.8-0.1-1c-13.5-16.7-10.8-39.9,2.9-53c0.8-1,1.3-2.2,1.3-3.5
		c0.1-35.8,0.1-71.6,0-107.4c0-1.3-0.4-2.5-1.2-3.5c-3.7-4.1-7.6-8-11.8-12.3c-3.8,3.9-7.4,7.2-10.5,10.9c-1.5,1.7-2.4,3.9-2.5,6.1
		c-0.1,53.1-0.2,106.2-0.1,159.3v4.3L150.3,403.6z M219.3,312.6c0.2-0.4,0.3-0.7,0.4-1.1c0-24.5,0.1-48.9,0.1-73.4
		c0.1-0.9-0.2-1.8-0.7-2.5c-4-4.1-8.2-8.1-12.5-12.4c-3.7,3.8-7.2,7.1-10.4,10.8c-1.4,1.6-2.3,3.6-2.4,5.8
		c-0.2,24.6-0.1,49.2-0.1,73.8c0,1.1,0.1,2.2,0.2,3.9C201.6,313,210.5,311.4,219.3,312.6 M121.6,34.4c-5.8,7.4-11.9,14.3-17,21.8
		c-6.4,9.5-1.1,23,9.9,25.8c4.2,1,8.6,1.1,12.9,0.3c9.3-1.8,15.4-10.9,13.6-20.2c-0.5-2.3-1.4-4.5-2.7-6.5
		C133.2,48.4,127.4,41.7,121.6,34.4 M114,181.9c-1.1-11.6-11-23.2-22.9-25.5c-8.9-1.7-18.2-1.3-27.9-1.9c3.6,13.4,11,22.3,23.4,25.1
		C95.4,181.6,104.8,181.2,114,181.9 M179.6,122.5c-7.6,0-15-0.6-22.3,0.1c-12.9,1.3-21.7,8.6-26.8,20.4c-0.6,1.6-1,3.2-1.4,4.8
		c8.6,0,16.8,0.9,24.8-0.2C166.9,145.9,177.3,135.1,179.6,122.5 M167.8,286.3V341c3.4-1.5,7.2-2,8.9-4.2c3.1-4,4.4-8.9,4.1-14.4
		c-0.5-7.9-0.1-15.9-0.1-23.8v-12.4L167.8,286.3L167.8,286.3z M102.3,324.9h12.6v-38.6h-12.6V324.9z M102.4,403.5h12.3v-38.8h-12.3
		V403.5z M93.5,82.5c-1.3-3.9-3.2-7.7-3.8-11.8c-0.7-4.2-0.1-8.5-0.1-13.4H63.7C66.7,71.6,79.6,82.5,93.5,82.5 M179.6,56.7
		c-8.9,0.6-17.5-1-26.2,1.1c2.3,9.1,0.3,17.1-4.1,24.7C164.3,82,177.4,70.9,179.6,56.7 M49.2,260.1H36.8v12.5h12.4
		C49.2,272.6,49.2,260.1,49.2,260.1z M167.6,272.5h12.8v-12.4h-12.8V272.5z M36.7,351.1h12.7v-12.5H36.7V351.1z M114.9,260.1h-12.5
		v12.5h12.5V260.1z M233.2,272.5h12.5v-12.4h-12.5V272.5z M102.4,351.1h12.5v-12.5h-12.5V351.1z"/>
	<path id="Path_1244" class="st0" d="M10.3,417v-12.9h12.8c0.2,4.3,0.4,8.6,0.7,12.9H10.3z"/>
	<path id="Path_1245" class="st0" d="M402.9,285.7c-12.3,0-24.6,1.1-36.5-0.2c-19.2-2.1-31-19-28.1-38.8h10.1c7,0,14-0.1,21,0
		C391,246.9,405.5,263.7,402.9,285.7 M352.2,259.9c2.8,7,7.5,11.5,14.2,12.4c7.2,0.9,14.6,0.2,22,0.2c-2.3-7.1-8.7-12.1-16.2-12.5
		C365.8,259.7,359.3,259.9,352.2,259.9"/>
</g>
</svg>
