<?xml version="1.0" encoding="utf-8"?>
<!-- Generator: Adobe Illustrator 25.2.0, SVG Export Plug-In . SVG Version: 6.00 Build 0)  -->
<svg version="1.1" id="Vrstva_1" xmlns="http://www.w3.org/2000/svg" xmlns:xlink="http://www.w3.org/1999/xlink" x="0px" y="0px"
	 viewBox="0 0 330.3 329.3" style="enable-background:new 0 0 330.3 329.3;" xml:space="preserve">
<style type="text/css">
	.st0{fill:#FFFFFF;}
</style>
<path id="Cesta_1" class="st0" d="M44.5,145.6c24.1,8.3,47.7,16.3,71.4,24.4c1.3,0.4,2.7,0.5,3.9,1.1c29.8,16.1,58.7,14.2,88.7-1.2
	c22.6-11.6,47.1-19.6,70.7-29.3c0.8-0.3,1.4-1.1,3-2.4c-9.8-6.5-21.1-6.8-31.4-9.7c-22-6.2-44.4-10.8-66.4-16.8
	c-9.7-2.6-12.2,0.9-11.5,9.7c0.3,4.9,0.1,9.9,0,14.8c-0.1,4.6-1.6,7.7-7.1,7.7c-5.2-0.1-8.7-1.6-8.6-7.6c0.1-11.2-0.8-22.5,0.1-33.6
	c1-12.6-2.1-17.8-16.4-18.2C105.3,83.2,79,57.6,76,24.6C75,14.4,77.6,9.9,88.8,10.2c20.2,0.5,40.3-0.7,57.8,12.8
	c8.6,6.5,15.3,15.1,19.6,25c3.2,7.5,6.4,7.2,11.5,2.2c19.2-18.7,43.5-18.7,68-18.6c8,0.1,8.4,4.7,8.1,10.7
	c-1.2,19.7-8.2,36.6-23.8,49.2c-4.1,3.4-8.4,6.5-13.9,10.8c15.2,6.5,30.2,8.7,44.7,12.5c16,4.2,32,8.8,48.3,11.9
	c8.6,1.7,11.2,6.1,11.1,13.8c-0.1,17-0.7,34-0.3,51c0.1,6.5-2,9.8-7.9,12.1c-47,18.7-93.9,37.6-140.9,56.3c-5.2,2.1-10.4,0.9-15.7-1
	c-38-13.6-76-27-114-40.3c-15.6-5.4-15.6-5.2-15.7,10.7c0,25.8-0.1,26,24.6,34.9c35.4,12.6,71,24.7,106.5,37.4
	c6,2.2,11.1,1.4,16.8-0.9c42.2-17.4,84.4-34.9,126.9-51.8c5.6-2.2,13.4-11.2,18.2-1.9c5.1,9.8-4.4,13.6-12.2,16.7
	c-43.6,17.6-87.3,35-130.8,52.9c-7.6,3.1-14.3,3.3-22,0.6c-43.9-15.6-87.9-30.9-132-45.9c-8.7-3-11.9-7.5-11.5-16.6
	c0.7-17,0.6-34.1,0-51.1c-0.4-10.6,3-11.8,12.4-8.4c43,15.5,86.2,30.2,129.2,45.6c8.4,3.2,17.7,3,25.9-0.6
	c39.4-16,78.8-32.1,118.5-47.4c8.7-3.4,8.2-9.2,8.2-15.9c0.3-29.2,0.3-29.2-26.3-18.7c-34.1,13.5-68.2,27.1-102.3,40.7
	c-6,2.4-11.8,4.2-18.2,2c-45.4-15.4-90.7-30.8-136.1-46.2c-6.1-2.1-11.6-3.7-11.3-12.3c0.3-9.2,7.1-9.1,12.8-10.8
	c32.1-9.8,64.3-19.5,96.5-29.2c3.8-1.1,8.1-2.5,11.8-1.8c4.5,0.8,5.2,5.9,5.8,9.6c0.8,4.9-3.8,5.2-7.2,6.2
	c-25.3,7.6-50.6,15.1-75.9,22.8C51.1,140.1,47.6,140,44.5,145.6 M184.5,91.7c24.7-0.3,48.2-16.4,52.1-34.6c1.2-5.5,1.6-9.3-5.9-10.3
	C210.6,44,183.2,59.8,176,78.4C172.1,88.5,174.5,93,184.5,91.7 M143.8,69.7c12.9,0.2,14.5-2,9.9-13.7c-8-20.1-33.4-34.2-54.5-31
	c-6.6,1-6.6,4.1-5.3,9.2C99.1,54.3,120,69.3,143.8,69.7"/>
</svg>
