<?xml version="1.0" encoding="utf-8"?>
<!-- Generator: Adobe Illustrator 25.2.0, SVG Export Plug-In . SVG Version: 6.00 Build 0)  -->
<svg version="1.1" id="Vrstva_2_1_" xmlns="http://www.w3.org/2000/svg" xmlns:xlink="http://www.w3.org/1999/xlink" x="0px"
	 y="0px" viewBox="0 0 142 142" style="enable-background:new 0 0 142 142;" xml:space="preserve">
<style type="text/css">
	.st0{fill:#2692D1;}
</style>
<g id="Vrstva_1-2">
	<g>
		<path id="Path_436" class="st0" d="M120.7,96.4c-1.4,0-2.5,1.1-2.6,2.5c0,1.4,1.1,2.6,2.6,2.7l0,0c1.4,0,2.5-1.1,2.6-2.5
			C123.3,97.6,122.2,96.5,120.7,96.4L120.7,96.4 M33.8,95c-1.4-0.1-2.6,1.1-2.6,2.5c0,0,0,0.1,0,0.1c0,1.4,1.1,2.6,2.5,2.6
			c1.4,0,2.6-1.2,2.6-2.6C36.3,96.2,35.2,95.1,33.8,95"/>
		<path id="Path_437" class="st0" d="M115.5,38.7V19.6h-9.8c0,3.7,0,7.3,0,10.8c0,0.4,0.2,0.8,0.5,1.1
			C109.2,33.9,112.2,36.3,115.5,38.7 M71,10.6C51.1,26.2,31.2,41.7,11.4,57.2c1.9,1.9,3.7,3.7,5.6,5.6c0.2-0.2,0.6-0.4,0.9-0.7
			c16.9-13.2,33.8-26.4,50.8-39.7c1.9-1.5,2.7-1.5,4.6,0c16.2,12.7,32.5,25.4,48.7,38.1c1,0.8,2,1.6,2.9,2.2l5.7-5.6L71,10.6
			 M6.5,137.3c-0.5-0.4-1-0.8-1.4-1.3c-0.8-1.2-0.4-2.8,0.8-3.5c0.5-0.3,1-0.4,1.5-0.4c3.2-0.1,6.5,0,9.7,0h1.5V68.2
			c-2.2,1.6-3.6,0.2-5-1.2c-2.5-2.6-5.1-5.1-7.7-7.7c-1.7-1.7-1.6-3.2,0.3-4.7C27.2,38.3,48.1,21.9,69,5.6c1.5-1.2,2.5-1.2,4.1,0.1
			c8.6,6.7,17.3,13.5,25.9,20.2c0.4,0.3,0.9,0.7,1.5,1.1c0-0.6,0.1-1,0.1-1.4c0-2.7,0-5.4,0-8.1c0-2.1,0.9-3.1,3.1-3.1
			c4.7,0,9.4,0,14.1,0c2,0,3,1,3,3c0,8.1,0,16.1,0,24.2c-0.1,0.8,0.3,1.7,1.1,2.1c4.5,3.5,9,7,13.5,10.5c0.7,0.7,1.4,1.3,2.1,2.1
			v1.5c-1.7,1.8-3.3,3.6-5,5.3c-1.4,1.4-2.8,2.8-4.2,4.2c-1.8,1.8-2.3,1.9-4.7,0.9v5.4c0,4.8,0,9.7,0,14.5c0,1.9-1.3,3.2-2.9,2.9
			c-1.4-0.2-2.4-1.5-2.2-2.9c0-5.6,0-11.2,0-16.8c0-2.1,0-4.1,0-6.2c0.1-0.8-0.3-1.5-0.9-2C103,52.2,88.8,41.1,74.5,30
			c-1.1-0.9-2.2-1.7-3.5-2.7c-2.4,1.9-4.8,3.8-7.2,5.6c-13,10.1-26,20.3-39,30.4c-0.6,0.4-1,1.1-1,1.8c0,22,0,43.9,0,65.9v1.1h7.2
			V109c0-0.3,0-0.7,0-1c-0.1-1.4,1.1-2.7,2.5-2.7c0,0,0,0,0,0c1.4,0,2.6,1.1,2.6,2.5c0,0.1,0,0.2,0,0.2c0,5.8,0,11.7,0,17.5v6.6
			h81.8v-22.7c0-0.3,0-0.7,0-1c-0.1-1.4,1-2.7,2.4-2.8c0.1,0,0.1,0,0.1,0c1.5,0,2.6,1.1,2.6,2.9c0,0.8,0,1.6,0,2.5v21.3h1.3
			c3.1,0,6.1,0.1,9.2,0c1.4-0.2,2.9,0.6,3.5,1.8v3.4L6.5,137.3"/>
		<path id="Path_438" class="st0" d="M73.7,110.8h19.5V91.3H73.7C73.7,91.3,73.7,110.8,73.7,110.8z M48.8,110.9h19.5V91.3H48.8
			C48.8,91.3,48.8,110.9,48.8,110.9z M73.6,86h19.6V66.5H73.6V86z M48.8,86h19.5V66.4H48.8L48.8,86L48.8,86z M71.1,61.2
			c8,0,16,0,24.1,0c2.4,0,3.3,0.9,3.3,3.3v48.4c0,2.3-0.9,3.2-3.2,3.2c-16.2,0-32.3,0-48.5,0c-2.2,0-3.2-0.9-3.2-3.1
			c0-16.2,0-32.4,0-48.7c0-2.2,0.9-3.1,3.2-3.1C54.8,61.2,62.9,61.2,71.1,61.2"/>
		<path id="Path_439" class="st0" d="M33.8,95c1.4,0,2.5,1.2,2.5,2.6c0,1.4-1.2,2.6-2.6,2.6c-1.4-0.1-2.5-1.2-2.5-2.6
			C31.1,96.2,32.3,95,33.8,95C33.7,95,33.8,95,33.8,95"/>
		<path id="Path_440" class="st0" d="M120.7,96.4c1.4,0,2.6,1.2,2.6,2.7l0,0c-0.1,1.4-1.2,2.5-2.6,2.5c-1.4,0-2.6-1.2-2.6-2.7l0,0
			C118.2,97.5,119.3,96.4,120.7,96.4"/>
	</g>
</g>
</svg>
