<?xml version="1.0" encoding="utf-8"?>
<!-- Generator: Adobe Illustrator 25.2.0, SVG Export Plug-In . SVG Version: 6.00 Build 0)  -->
<svg version="1.1" id="Vrstva_1" xmlns="http://www.w3.org/2000/svg" xmlns:xlink="http://www.w3.org/1999/xlink" x="0px" y="0px"
	 viewBox="0 0 494.8 495.3" style="enable-background:new 0 0 494.8 495.3;" xml:space="preserve">
<style type="text/css">
	.st0{fill:#010056;}
</style>
<g>
	<path id="Path_1273" class="st0" d="M473,237.4c-10.1-8.9-20.5-17.5-30-27c-12.5-12.4-27-16.6-44.4-16.2
		c-34.1,1-68.3,0.6-102.5,0.7c-6.7,0-13.8,1.4-13.9-9.4c-0.2-10.2,5.3-11.9,13.7-11.8c23.6,0.2,47.2,0.1,70.7,0.1
		c59.9,0,59.9,0,104-40.5c0.4-0.3,0.8-0.6,1.1-0.9c10.6-10.1,10.8-17.6-0.2-27.7c-13-12-26.4-23.7-39.9-35.3
		c-4.8-4.1-11-6.3-17.3-6.3c-22.6,0-45.2-0.1-67.9,0.1c-5.3,0-11.7,0.2-11.5,7.6c0.2,7.6,6.7,6.9,11.9,6.9
		c19.7,0.1,39.5,0.1,59.2,0.1c6.4,0,12.7,0.4,17.7,4.7c11.7,10,23,20.4,34.6,30.4c4.8,4.1,4.9,7.2-0.1,11.4
		c-9.5,8-18.7,16.5-28,24.9c-7,6.7-16.3,10.3-26,10c-40.4-0.2-80.7,0.3-121.1,0.7c-9.1,0.1-13-3.7-12.6-13.1c0.5-12,0.1-24,0.1-36.1
		c-0.1-31.4-0.1-31.4,30.8-33c5.1-0.3,12,0.8,12.1-6.7c0-6.7-6.4-7.4-11.8-8c-19.6-2.3-19.6-2.3-19.9-22.3c0-2.9-0.3-5.8-0.1-8.7
		c0.7-11-5.2-16.2-15.3-16.7c-12.9-0.5-25.9-0.8-38.9-0.2c-9.1,0.4-15.4,5.2-15.4,15.4c0,22.6-0.1,45.2-0.1,67.8c0,5.3,1.6,10,8,9.5
		c5.9-0.4,6-5.5,6-9.8c0.1-13,0-26,0-39c0-31.6,0.6-32,32-28.4c1,0.1,1.9,0.1,2.9,0.2c4.1,0.2,6.4,2.9,6,6.5
		c-1.1,10.2,5.6,22.5-8.1,29.5c-3.7,1.9-3.4,6.5-3.4,10.4c0,26.9,0,53.9,0,80.8c0,5.9,1,10.8,6.7,14.8c8.9,6.4,7.5,15.5,0.5,21.6
		c-6,5.2-7.2,10.6-7.2,17.6c0.1,25.5,0,51,0,76.5c0,4.7-1.2,10.8,4.2,12.8c8.7,3.3,7.6,10,7.6,16.6c0,43.3-0.8,86.6,0.3,129.9
		c0.3,14.6-5.2,18.8-18.1,17.7c-3.4-0.3-6.7-0.9-10.1-0.6c-10.3,0.8-13.5-4.4-13.2-13.9c0.4-12,0.1-24.1,0-36.1
		c0-4.9,0-10.8-6.4-11.1c-7.4-0.3-7.7,5.9-7.7,11.3c-0.1,15.9,0.1,31.7,0,47.6c0,12.1,6,17.5,18,17.2c11.5-0.3,23.1-0.1,34.6,0
		c12,0.2,17.4-5.4,17.2-17.6c-0.4-23.6-0.1-47.1-0.1-70.7c0-23.1,0.5-46.2-0.2-69.3c-0.4-12.6,2.6-17.8,16.7-17.3
		c35.1,1.1,70.3,0.4,105.4,0.4c9.2,0,18.9,0.4,26.3-5.8c15.1-12.7,29.8-25.7,44.2-39.2C482.4,253.2,481.6,244.9,473,237.4
		 M456.9,257.7c-10.7,8.9-21.1,18.2-31.3,27.6c-5.1,4.7-11,5.3-17.4,5.3c-21.2-0.1-42.3,0-63.5,0c-20.7,0-41.4-0.4-62,0.2
		c-9.6,0.2-13.9-2.3-13.5-12.9c0.7-18.7,0.5-37.5,0-56.2c-0.2-8.8,1.8-12.9,11.9-12.7c42.3,0.5,84.6,0.3,127,0.1
		c8.3,0,14.8,3,20.8,8.3c9.3,8.4,18.4,16.9,28.1,24.7C464.1,247.7,463.7,252,456.9,257.7"/>
	<path id="Path_1274" class="st0" d="M219,383.1c9.3,0.2,7.1-8.6,7.1-14.4c0.2-38,0-75.9,0.1-113.9c0-4.7-2-11.1,2.4-13.6
		c13.1-7.4,10.1-19.4,10.2-30.6c0.1-20.7,0-41.3-0.1-62c-0.1-17.8-1.8-19.6-20.1-19.7c-21.6-0.1-43.3,0-64.9,0c-8.7,0-17.3,0-26,0
		c-71.7,0-47.9-7.5-101.7,38.4c-1.1,0.9-2.2,1.9-3.2,2.9C12.3,180.7,12.1,188,23,198.4c9.7,9.2,20.8,17.1,30.1,26.8
		c11.3,11.9,24.9,14.9,40.4,14.7c34.6-0.4,69.2,0.2,103.8-0.4c11.3-0.2,15,3.5,14.8,14.9c-0.6,38-0.3,75.9-0.1,113.9
		C212,374.2,210.1,382.9,219,383.1 M148.1,225.4L148.1,225.4c-19.7,0.1-39.4-0.3-59.1,0.2c-10.4,0.3-18.4-3.1-25.7-10.4
		c-8.5-8.5-17.5-16.4-26.9-23.9c-6.9-5.5-5.8-9.4,0.2-14.4c10.7-8.9,21-18.3,31.3-27.6c4.9-4.4,10.5-6.3,17.1-6.3
		c42.3,0.1,84.6,0.2,126.9-0.1c8.4-0.1,12.2,2.1,12,11.3c-0.5,20.2-0.4,40.4,0,60.5c0.1,8.1-2.9,10.9-11,10.8
		C191.4,225.1,169.7,225.4,148.1,225.4"/>
	<path id="Path_1275" class="st0" d="M288.7,107c-8.8,26-0.9,36.9,25.7,36.9h7.2v-0.2c7.7,0,15.4,0.2,23-0.1
		c5.4-0.2,11.7-1.4,12.2-7.8c0.7-10.8,3.3-21.8-1.9-32.5C351,95.4,347,92,337,94.4c-8.7,2.2-19.9,3.1-27.5,0.4
		C295.3,89.9,291.7,97.9,288.7,107 M336.8,118.3c3.4,0.6,6.3-1.1,6.5,3.9c0.1,4-1.7,6.3-5.9,6.3c-5.2,0-10.5,0-15.7,0v-0.3
		c-5.2,0-10.5,0.2-15.7-0.1c-4.9-0.3-4.4-4.1-4.1-7.4c0.3-4.3,2.9-3.1,6-3C317.4,118.1,327,116.7,336.8,118.3"/>
	<path id="Path_1276" class="st0" d="M376.9,124.8c-4.4,0-8.4,2.9-8.3,8.2c0.2,6,4.9,6.2,9.3,6.3c6.2,0.1,12.4,0,18.6,0v-0.1
		c6.7,0,13.3,0.1,20,0c3.8,0,6.6-1.7,7-5.7c0.6-4.8-2.6-7.2-6.8-7.4C403.5,125.3,390.2,124.7,376.9,124.8"/>
	<path id="Path_1277" class="st0" d="M417.4,97.8c-13.9-0.3-27.8-0.3-41.7,0c-4,0.1-7.6,2.5-7.3,7.2c0.3,5,4.4,5.8,8.4,6
		c6.2,0.2,12.5,0.1,18.7,0.1c0-0.1,0-0.2,0-0.3c7.2,0,14.4,0.2,21.6-0.1c3.7-0.1,6.5-2,6.5-6.2C423.6,100.5,421.1,97.9,417.4,97.8"
		/>
	<path id="Path_1278" class="st0" d="M322.1,220.4c-34.9-0.1-34.9-0.1-34.9,34.5c0,1.9,0,3.8,0,5.7c0.2,7.5,0.8,14.9,10.7,15.6
		c8.6,0.6,17.9,2.3,20.3-10c0.5-2.8,0.7-6.4,4.4-6.4c3.6,0,4,3.3,4.4,6.2c0.7,6.9,4.6,9.7,11.4,10.3c14.7,1.2,18.6-2.2,18.8-17.7
		C357.7,220.5,357.7,220.5,322.1,220.4 M322.3,245.1c-9.4,0.1-13.9,6.8-20.3,16.4c0.1-11-2.4-18.3,1.7-25.3
		c1.1-1.9,35.2-2.3,36.8-0.3c5.6,6.7,1.9,14.4,3.2,25.8C336.6,252.4,332.1,245,322.3,245.1"/>
	<path id="Path_1279" class="st0" d="M415.3,229.4c-13.3-0.2-26.7-0.1-40,0.2c-3.4,0.1-6.8,2-6.9,6c-0.1,4.4,2.7,7.1,7.1,7.3
		c6.7,0.3,13.4,0.1,20,0.1v0.1c6.2,0,12.4,0.1,18.6,0c4.6-0.1,8.9-1.5,9-7C423.3,231.2,419.1,229.4,415.3,229.4"/>
	<path id="Path_1280" class="st0" d="M382.4,257.3c-4.5,1.4-13.3-2.6-13.6,6.9c-0.2,7.8,7.4,7.5,13,7.2c5.7-0.3,14.2,2.7,15-6.3
		C397.7,255.2,388.8,258.4,382.4,257.3"/>
	<path id="Path_1281" class="st0" d="M88.9,163.2c-2.2,2.6-4.3,5.1-6.4,7.8c-7.2,9.1-11.8,19.1-7.3,30.6c4.7,11.9,15.6,5.9,24,7.3
		c1,0.1,1.9,0.1,2.9,0c2.9,0,5.8-0.3,8.6,0.1c14,1.8,18.1-4.5,18.2-18.1c0.1-12.5-8.1-19.1-14.4-27.1
		C104.3,150.5,99.6,150.7,88.9,163.2 M100.7,194.7c-4.2-2.2-12.6,3.7-12.1-5.4c0.4-7.7,6.3-15.8,13.5-15.9
		c6.8-0.1,12.2,8.8,12.4,15.3C114.9,199.4,105.1,191.9,100.7,194.7"/>
	<path id="Path_1282" class="st0" d="M190.9,191.7c-12.9-0.1-25.9-0.2-38.8,0c-4,0-8,1.1-8.1,6.1c0,4.5,3.1,7,7.4,7.2
		c6.7,0.3,13.4,0.1,20.1,0.1v0.3c6.2,0,12.5,0.2,18.7-0.1c4.5-0.2,9-1.7,8.8-7.2C198.9,193.4,195,191.8,190.9,191.7"/>
	<path id="Path_1283" class="st0" d="M151.9,177c6.7,0.2,13.4,0,20.1,0.1c6.2,0,12.4,0.1,18.6,0c4.1-0.1,8-1.5,8.2-6.2
		c0.2-4.5-3.4-7.2-7.4-7.3c-13.4-0.4-26.7-0.4-40.1-0.1c-3.9,0.1-7.9,1.7-7.4,6.8C144.4,174.8,147.6,176.9,151.9,177"/>
</g>
</svg>
