<?xml version="1.0" encoding="utf-8"?>
<!-- Generator: Adobe Illustrator 25.2.0, SVG Export Plug-In . SVG Version: 6.00 Build 0)  -->
<svg version="1.1" id="Vrstva_2_1_" xmlns="http://www.w3.org/2000/svg" xmlns:xlink="http://www.w3.org/1999/xlink" x="0px"
	 y="0px" viewBox="0 0 152 167.6" style="enable-background:new 0 0 152 167.6;" xml:space="preserve">
<style type="text/css">
	.st0{fill:#FFFFFF;}
</style>
<g id="Vrstva_1-2">
	<g>
		<path id="Path_441" class="st0" d="M82.2,93.8c5.3,2.7,10.3,5.3,15.4,7.9c0.5,0.2,1.1,0.1,1.6-0.2c4.4-2.2,8.7-4.4,13.1-6.7
			c0.3-0.2,0.5-0.4,0.7-0.6c-5.5-2.5-10.9-4.8-16.3-7.2c-0.4-0.2-0.8-0.2-1.1,0C91.2,89.2,86.8,91.4,82.2,93.8 M69.9,93.8
			c-4.8-2.5-9.3-4.8-13.9-7.1c-0.5-0.1-1.1,0-1.6,0.2c-4.8,2.2-9.7,4.4-14.5,6.6c-0.4,0.2-0.7,0.4-1.1,0.7c4.9,2.5,9.6,4.9,14.3,7.3
			c0.5,0.2,1,0.3,1.5,0.1C59.6,99.1,64.6,96.5,69.9,93.8 M60,105.1c5.3,2.8,10.3,5.3,15.4,7.9c0.6,0.2,1.2,0.1,1.8-0.2
			c4.6-2.3,9.1-4.7,13.7-7c0.3-0.2,0.7-0.5,1-0.7c-5.1-2.6-10-5.2-15-7.6c-0.6-0.2-1.2-0.2-1.8,0C70.2,99.9,65.3,102.4,60,105.1
			 M82.2,116.5c5.2,2.7,10.3,5.3,15.3,7.8c0.6,0.2,1.3,0.2,1.9-0.1c4.6-2.2,9.1-4.5,13.6-6.8c0.4-0.2,0.8-0.5,1.4-0.8
			c-5.3-2.7-10.3-5.3-15.4-7.8c-0.6-0.2-1.3-0.2-1.9,0.1c-2.5,1.2-5,2.5-7.5,3.8C87.2,113.9,84.8,115.2,82.2,116.5 M137.5,105.2
			c-0.8-0.4-1.4-0.7-1.9-1c-4.6-2-9.2-4-13.7-6.1c-1.3-0.7-2.8-0.7-4,0.1c-4.3,2.3-8.7,4.5-13.3,6.9c0.2,0.2,0.4,0.4,0.7,0.5
			c4.9,2.5,9.8,5.1,14.8,7.6c0.6,0.2,1.3,0.2,1.9-0.1c3.9-1.9,7.8-3.9,11.7-5.8C134.8,106.6,136.1,105.9,137.5,105.2 M92.2,128
			c-5.4-2.8-10.3-5.3-15.3-7.8c-0.6-0.2-1.3-0.1-1.9,0.2c-4,2-8,4.1-12,6.1c-1.1,0.6-2.2,1.1-3.6,1.9c5.4,2.8,10.4,5.3,15.4,7.9
			c0.4,0.1,0.8,0.1,1.1,0C81.2,133.5,86.5,130.8,92.2,128 M69.9,116.5c-5.3-2.7-10.3-5.3-15.4-7.9c-0.6-0.2-1.2-0.1-1.7,0.2
			c-3.5,1.7-6.9,3.5-10.4,5.3c-1.7,0.9-3.4,1.7-5.3,2.7c5.3,2.7,10.3,5.3,15.3,7.8c0.5,0.2,1,0.2,1.4,0
			C59.2,122,64.4,119.4,69.9,116.5 M47.6,105c-5-2.6-9.8-5.1-14.7-7.5c-0.7-0.2-1.4-0.2-2.1,0.1c-5,2.2-10,4.5-14.9,6.8
			c-0.4,0.2-0.8,0.4-1.5,0.8c5.3,2.7,10.3,5.2,15.3,7.9c0.8,0.5,1.8,0.5,2.6,0c4.7-2.5,9.5-4.9,14.3-7.3
			C46.9,105.5,47.3,105.3,47.6,105 M78.1,154.8c0.8-0.4,1.3-0.6,1.8-0.9c4.7-2.4,9.5-4.7,14.2-7.1c15.2-7.6,30.5-15.3,45.8-23
			c0.6-0.3,1.4-0.8,1.4-1.3c0.1-4.2,0.1-8.5,0.1-12.9c-0.8,0.4-1.4,0.6-1.9,0.9c-9.1,4.5-18.1,9.1-27.2,13.6
			c-10.9,5.5-21.9,11-32.8,16.5c-0.6,0.3-1.3,1-1.3,1.5C78,146.2,78,150.4,78.1,154.8 M72.4,154.7c0-4.4,0.1-8.5-0.1-12.5
			c0-0.5-0.7-1.2-1.3-1.5c-9.6-5-19.2-9.9-28.8-14.8c-9.9-5.1-19.7-10.1-29.6-15.2c-0.6-0.3-1.2-0.6-2.2-1.1v2.1c0,4.3,0,8.6,0,12.9
			c0.1,1.3-0.8,2.6-2.1,2.9c-1.2,0.4-2.4-0.1-3-1.2c-0.3-0.6-0.5-1.2-0.5-1.8c0-6.4,0-12.8,0-19.2c-0.1-1.3,0.8-2.5,2-3
			C24.9,94.1,43,85.8,61,77.5c1.9-0.9,3.5-0.4,4.2,1.2c0.7,1.5,0,3-1.9,3.9L62,83.4c3.8,2,7.6,3.7,11.1,5.8c1.8,1.2,4.1,1.2,5.9,0
			c3.3-1.9,6.8-3.6,10.4-5.4c-0.6-0.3-1-0.6-1.4-0.8c-2-1-2.7-2.4-1.9-4s2.3-1.9,4.4-1c5.4,2.4,10.8,4.9,16.2,7.3
			c12.6,5.6,25.1,11.2,37.7,16.8c1.6,0.5,2.7,2.1,2.6,3.9c-0.1,6-0.1,12,0,18c0.1,1.7-0.8,3.2-2.4,3.9
			c-22.4,11.2-44.8,22.5-67.2,33.7c-1.3,0.8-2.9,0.8-4.3,0c-11.8-6.1-23.6-12.2-35.5-18.2c-0.2-0.1-0.4-0.2-0.6-0.3
			c-1.4-0.7-1.9-2.4-1.3-3.7c0.7-1.4,2.3-1.9,3.7-1.3c0.1,0,0.2,0.1,0.2,0.1c4.3,2.2,8.6,4.4,12.9,6.6c6.1,3.1,12.1,6.2,18.2,9.3
			C71.3,154.2,71.8,154.4,72.4,154.7"/>
		<path id="Path_442" class="st0" d="M75.8,73.9c2.1-2.5,4-4.7,5.8-7.1c3.7-4.8,7.2-9.7,10.8-14.6c3.4-5,5.6-10.7,6.2-16.7
			c1.4-10-3.1-18.1-12.3-22.2c-7.5-3.3-14.8-2.6-22,0.7c-4.8,2.1-8.4,6.2-9.9,11.2c-2.2,7-1.9,13.9,1.5,20.4
			C61.3,55.7,68.6,64.6,75.8,73.9 M47.5,33.6c0.2-8.6,2.5-16.3,9.6-21.7c11.4-8.8,29.4-9,40.7,2.8c5.8,6,7.2,13.4,6.3,21.4
			c-0.9,8.5-4.3,15.9-9.4,22.6c-5.4,7.1-11,14-16.6,21c-1.5,1.9-3.4,1.9-4.8,0.1c-7.8-9.6-15.4-19.3-21.6-30
			C48.9,44.7,47.5,39.2,47.5,33.6"/>
		<path id="Path_443" class="st0" d="M16.6,133c-1.8,0-3.3-1.5-3.4-3.3c0-1.8,1.5-3.3,3.3-3.3l0,0c1.8-0.1,3.3,1.4,3.4,3.2v0.1
			C19.9,131.5,18.5,133,16.6,133"/>
		<path id="Path_444" class="st0" d="M27.8,132.1c1.8,0.1,3.3,1.6,3.2,3.4c-0.1,1.8-1.6,3.2-3.5,3.2c-1.8-0.1-3.3-1.6-3.2-3.4
			c0-1.8,1.5-3.2,3.3-3.2C27.7,132.1,27.7,132.1,27.8,132.1"/>
		<path id="Path_445" class="st0" d="M82,34.3c0-3.4-2.7-6.1-6.1-6c0,0,0,0-0.1,0c-3.3,0-6,2.7-6,6c0,3.4,2.7,6.1,6,6.1l0,0
			C79.3,40.4,82,37.7,82,34.3C82,34.4,82,34.3,82,34.3 M64.3,34.3c0-6.4,5.3-11.6,11.7-11.6l0,0c6.4,0,11.6,5.3,11.6,11.8l0,0
			c0,6.5-5.3,11.6-11.7,11.6l0,0C69.5,46,64.3,40.7,64.3,34.3"/>
	</g>
</g>
</svg>
