<?xml version="1.0" encoding="utf-8"?>
<!-- Generator: Adobe Illustrator 25.2.0, SVG Export Plug-In . SVG Version: 6.00 Build 0)  -->
<svg version="1.1" id="Vrstva_1" xmlns="http://www.w3.org/2000/svg" xmlns:xlink="http://www.w3.org/1999/xlink" x="0px" y="0px"
	 viewBox="0 0 100 100" style="enable-background:new 0 0 100 100;" xml:space="preserve">
<style type="text/css">
	.st0{fill:#FFFFFF;}
	.st1{fill:#000066;}
	.st2{fill:#CC0000;}
</style>
<g>
	<rect x="0" y="0" class="st0" width="100" height="100"/>
	<polygon class="st1" points="25.1,59 35,59 41,59 41,59 0,59 0,100 0,89.2 	"/>
	<polygon class="st1" points="0,10.8 0,41 25.1,41 	"/>
	<polygon class="st1" points="41,36.6 41,0 0,0 0,0 10,0 	"/>
	<polygon class="st1" points="10,100 6,100 0,100 0,100 41,100 41,63.4 	"/>
	<polygon class="st1" points="90,0 94,0 100,0 100,0 59,0 59,36.6 	"/>
	<polygon class="st1" points="74.9,41 100,41 100,44 100,56 100,59 74.9,59 100,89.2 100,93.5 100,93.5 100,0 100,10.8 	"/>
	<polygon class="st1" points="59,63.4 59,100 100,100 100,100 90.4,100 	"/>
	<polygon class="st2" points="41,59 41,59 35,59 0,100 6,100 	"/>
	<polygon class="st2" points="100,100 100,93.5 100,93.5 100,95 	"/>
	<polygon class="st2" points="100,95 100,93.5 100,93.5 	"/>
	<polygon class="st2" points="100,100 100,100 100,95 	"/>
	<polygon class="st2" points="100,93.5 71,59 65,59 100,100 100,95 	"/>
	<polygon class="st2" points="59,41 65,41 100,0 94,0 	"/>
	<polygon class="st2" points="0,6.5 0,6.5 0,0 	"/>
	<rect x="-3.3" y="3.3" transform="matrix(0.7557 -0.6549 0.6549 0.7557 -2.1425 0.7996)" class="st2" width="6.5" height="0"/>
	<polygon class="st2" points="0,6.5 29,41 35,41 0,0 	"/>
	<rect y="44" class="st2" width="0" height="12"/>
	<polygon class="st2" points="59,44 56,44 56,41 56,0 44,0 44,41 44,44 41,44 0,44 0,56 41,56 44,56 44,59 44,100 56,100 56,59 
		56,56 59,56 100,56 100,44 	"/>
</g>
</svg>
