<?xml version="1.0" encoding="utf-8"?>
<!-- Generator: Adobe Illustrator 25.2.0, SVG Export Plug-In . SVG Version: 6.00 Build 0)  -->
<svg version="1.1" id="Vrstva_1" xmlns="http://www.w3.org/2000/svg" xmlns:xlink="http://www.w3.org/1999/xlink" x="0px" y="0px"
	 viewBox="0 0 110.9 73.6" style="enable-background:new 0 0 110.9 73.6;" xml:space="preserve">
<style type="text/css">
	.st0{fill:#2790CF;}
</style>
<g id="Elementy">
	<path class="st0" d="M81.2,12.7l-6.4-6.3l-1.3,3.2l4.3,4.3L62.8,30.8L75,1.3H35.9l12.2,29.5L33,14l4.3-4.3L36,6.5l-6.4,6.3
		C29,13.3,29,14.3,29.6,15l24.7,27.6c0.3,0.3,0.7,0.5,1.2,0.5l0,0c0.5,0,0.9-0.2,1.2-0.5L81.3,15C81.9,14.3,81.9,13.3,81.2,12.7z
		 M55.5,31.7L55.5,31.7L55.5,31.7L44.9,4.5H66L55.5,31.7z"/>
	<path class="st0" d="M13.2,71.9H9.3L1.2,52.3h4.1l5.9,15.2l5.9-15.2h4.1L13.2,71.9z"/>
	<path class="st0" d="M23.6,71.8V52.3h3.7v19.6H23.6z"/>
	<path class="st0" d="M44.6,68.1H34.4l-1.7,3.7h-4l8.8-19.6h4l8.8,19.6h-4L44.6,68.1z M39.5,56.4l-3.6,8.3h7.3L39.5,56.4z"/>
	<path class="st0" d="M65.6,57c-1.4-1.3-3.1-2-5-2c-4.2,0-6.7,3.2-6.7,7.2c0,3.2,1.9,6.5,6.7,6.5c1.6,0.1,3.2-0.5,4.4-1.5v-3.5h-5
		v-3.3h8.4v8.2c-1.9,2.3-4.8,3.6-7.8,3.5c-7.3,0-10.3-4.8-10.3-10c0-5.5,3.4-10.6,10.3-10.6c2.7,0,5.3,1.1,7.3,3L65.6,57z"/>
	<path class="st0" d="M86.1,71.8H71.4V52.3h14.7v3.6h-11v4.5h10.6v3.4H75.1v4.4h11V71.8z"/>
	<path class="st0" d="M106,57.7l-6.4,8.5h-0.7l-6.2-8.5v14.2H89V52.3h4.3l6.1,8.4l6.1-8.4h4.2v19.6H106V57.7z"/>
</g>
</svg>
